NotoSansGujarati-Condensed.ufo
<glyph name="numbersign.gujr" format="2">
  <advance width="488"/>
  <unicode hex="0023"/>
  <outline>
    <contour>
      <point x="92" y="0" type="line"/>
      <point x="153" y="0" type="line"/>
      <point x="175" y="177" type="line"/>
      <point x="271" y="177" type="line"/>
      <point x="247" y="0" type="line"/>
      <point x="309" y="0" type="line"/>
      <point x="333" y="177" type="line"/>
      <point x="434" y="177" type="line"/>
      <point x="434" y="240" type="line"/>
      <point x="344" y="240" type="line"/>
      <point x="363" y="395" type="line"/>
      <point x="458" y="395" type="line"/>
      <point x="458" y="458" type="line"/>
      <point x="374" y="458" type="line"/>
      <point x="396" y="632" type="line"/>
      <point x="335" y="632" type="line"/>
      <point x="313" y="458" type="line"/>
      <point x="217" y="458" type="line"/>
      <point x="239" y="632" type="line"/>
      <point x="177" y="632" type="line"/>
      <point x="154" y="458" type="line"/>
      <point x="55" y="458" type="line"/>
      <point x="55" y="395" type="line"/>
      <point x="144" y="395" type="line"/>
      <point x="125" y="240" type="line"/>
      <point x="30" y="240" type="line"/>
      <point x="30" y="177" type="line"/>
      <point x="114" y="177" type="line"/>
    </contour>
    <contour>
      <point x="187" y="240" type="line"/>
      <point x="205" y="395" type="line"/>
      <point x="301" y="395" type="line"/>
      <point x="283" y="240" type="line"/>
    </contour>
  </outline>
</glyph>
<glyph name="quotesingle.gujr" format="2">
  <advance width="279"/>
  <unicode hex="0027"/>
  <outline>
    <contour>
      <point x="117" y="471" type="line"/>
      <point x="177" y="471" type="line"/>
      <point x="194" y="729" type="line"/>
      <point x="100" y="729" type="line"/>
    </contour>
  </outline>
</glyph>
<glyph name="parenleft.gujr" format="2">
  <advance width="312"/>
  <unicode hex="0028"/>
  <outline>
    <contour>
      <point x="181" y="-165" type="curve"/>
      <point x="257" y="-165" type="line"/>
      <point x="181" y="-24"/>
      <point x="141" y="146"/>
      <point x="141" y="335" type="curve" smooth="yes"/>
      <point x="141" y="521"/>
      <point x="181" y="691"/>
      <point x="256" y="832" type="curve"/>
      <point x="181" y="832" type="line"/>
      <point x="102" y="697"/>
      <point x="62" y="524"/>
      <point x="62" y="335" type="curve" smooth="yes"/>
      <point x="62" y="143"/>
      <point x="102" y="-30"/>
    </contour>
  </outline>
</glyph>
<glyph name="parenright.gujr" format="2">
  <advance width="312"/>
  <unicode hex="0029"/>
  <outline>
    <contour>
      <point x="56" y="-165" type="curve"/>
      <point x="131" y="-165" type="line"/>
      <point x="210" y="-30"/>
      <point x="250" y="143"/>
      <point x="250" y="332" type="curve" smooth="yes"/>
      <point x="250" y="524"/>
      <point x="210" y="697"/>
      <point x="131" y="832" type="curve"/>
      <point x="55" y="832" type="line"/>
      <point x="131" y="691"/>
      <point x="171" y="521"/>
      <point x="171" y="333" type="curve" smooth="yes"/>
      <point x="171" y="146"/>
      <point x="131" y="-24"/>
    </contour>
  </outline>
</glyph>
<glyph name="plus.gujr" format="2">
  <advance width="443"/>
  <unicode hex="002B"/>
  <outline>
    <contour>
      <point x="187" y="117" type="line"/>
      <point x="256" y="117" type="line"/>
      <point x="256" y="288" type="line"/>
      <point x="392" y="288" type="line"/>
      <point x="392" y="357" type="line"/>
      <point x="256" y="357" type="line"/>
      <point x="256" y="527" type="line"/>
      <point x="187" y="527" type="line"/>
      <point x="187" y="357" type="line"/>
      <point x="51" y="357" type="line"/>
      <point x="51" y="288" type="line"/>
      <point x="187" y="288" type="line"/>
    </contour>
  </outline>
</glyph>
<glyph name="comma.gujr" format="2">
  <advance width="252"/>
  <unicode hex="002C"/>
  <outline>
    <contour>
      <point x="53" y="-129" type="curve"/>
      <point x="115" y="-129" type="line"/>
      <point x="147" y="-57"/>
      <point x="171" y="22"/>
      <point x="191" y="106" type="curve"/>
      <point x="184" y="117" type="line"/>
      <point x="98" y="117" type="line"/>
      <point x="91" y="45"/>
      <point x="74" y="-48"/>
    </contour>
  </outline>
</glyph>
<glyph name="hyphen.gujr" format="2">
  <advance width="278"/>
  <unicode hex="002D"/>
  <outline>
    <contour>
      <point x="40" y="258" type="line"/>
      <point x="239" y="258" type="line"/>
      <point x="239" y="336" type="line"/>
      <point x="40" y="336" type="line"/>
    </contour>
  </outline>
</glyph>
<glyph name="period.gujr" format="2">
  <advance width="252"/>
  <unicode hex="002E"/>
  <outline>
    <contour>
      <point x="136" y="-14" type="curve" smooth="yes"/>
      <point x="168" y="-14"/>
      <point x="190" y="6"/>
      <point x="190" y="50" type="curve" smooth="yes"/>
      <point x="190" y="95"/>
      <point x="169" y="114"/>
      <point x="136" y="114" type="curve" smooth="yes"/>
      <point x="101" y="114"/>
      <point x="82" y="92"/>
      <point x="82" y="50" type="curve" smooth="yes"/>
      <point x="82" y="8"/>
      <point x="102" y="-14"/>
    </contour>
  </outline>
</glyph>
<glyph name="three.gujr" format="2">
  <advance width="411"/>
  <unicode hex="0033"/>
  <outline>
    <contour>
      <point x="176" y="-10" type="curve" smooth="yes"/>
      <point x="300" y="-10"/>
      <point x="369" y="72"/>
      <point x="369" y="195" type="curve" smooth="yes"/>
      <point x="369" y="293"/>
      <point x="317" y="352"/>
      <point x="228" y="370" type="curve"/>
      <point x="228" y="374" type="line"/>
      <point x="315" y="400"/>
      <point x="356" y="466"/>
      <point x="356" y="550" type="curve" smooth="yes"/>
      <point x="356" y="651"/>
      <point x="295" y="724"/>
      <point x="187" y="724" type="curve" smooth="yes"/>
      <point x="126" y="724"/>
      <point x="78" y="703"/>
      <point x="24" y="660" type="curve"/>
      <point x="64" y="602" type="line"/>
      <point x="102" y="633"/>
      <point x="136" y="653"/>
      <point x="176" y="653" type="curve" smooth="yes"/>
      <point x="241" y="653"/>
      <point x="275" y="611"/>
      <point x="275" y="541" type="curve" smooth="yes"/>
      <point x="275" y="460"/>
      <point x="230" y="404"/>
      <point x="138" y="404" type="curve" smooth="yes"/>
      <point x="103" y="404" type="line"/>
      <point x="103" y="334" type="line"/>
      <point x="136" y="334" type="line" smooth="yes"/>
      <point x="237" y="334"/>
      <point x="285" y="284"/>
      <point x="285" y="197" type="curve" smooth="yes"/>
      <point x="285" y="114"/>
      <point x="249" y="61"/>
      <point x="170" y="61" type="curve" smooth="yes"/>
      <point x="116" y="61"/>
      <point x="72" y="74"/>
      <point x="29" y="100" type="curve"/>
      <point x="29" y="19" type="line"/>
      <point x="72" y="-1"/>
      <point x="117" y="-10"/>
    </contour>
  </outline>
</glyph>
<glyph name="four.gujr" format="2">
  <advance width="411"/>
  <unicode hex="0034"/>
  <outline>
    <contour>
      <point x="246" y="0" type="line"/>
      <point x="328" y="0" type="line"/>
      <point x="328" y="163" type="line"/>
      <point x="392" y="163" type="line"/>
      <point x="392" y="237" type="line"/>
      <point x="328" y="237" type="line"/>
      <point x="328" y="720" type="line"/>
      <point x="238" y="720" type="line"/>
      <point x="11" y="231" type="line"/>
      <point x="11" y="163" type="line"/>
      <point x="246" y="163" type="line"/>
    </contour>
    <contour>
      <point x="86" y="237" type="line"/>
      <point x="208" y="507" type="line" smooth="yes"/>
      <point x="229" y="552"/>
      <point x="237" y="578"/>
      <point x="246" y="611" type="curve"/>
      <point x="249" y="611" type="line"/>
      <point x="247" y="580"/>
      <point x="246" y="536"/>
      <point x="246" y="498" type="curve" smooth="yes"/>
      <point x="246" y="237" type="line"/>
    </contour>
  </outline>
</glyph>
<glyph name="six.gujr" format="2">
  <advance width="411"/>
  <unicode hex="0036"/>
  <outline>
    <contour>
      <point x="217" y="-10" type="curve" smooth="yes"/>
      <point x="325" y="-10"/>
      <point x="378" y="88"/>
      <point x="378" y="226" type="curve" smooth="yes"/>
      <point x="378" y="352"/>
      <point x="332" y="446"/>
      <point x="235" y="446" type="curve" smooth="yes"/>
      <point x="182" y="446"/>
      <point x="152" y="419"/>
      <point x="129" y="370" type="curve"/>
      <point x="125" y="370" type="line"/>
      <point x="136" y="566"/>
      <point x="183" y="653"/>
      <point x="278" y="653" type="curve" smooth="yes"/>
      <point x="303" y="653"/>
      <point x="327" y="649"/>
      <point x="347" y="642" type="curve"/>
      <point x="347" y="714" type="line"/>
      <point x="327" y="720"/>
      <point x="302" y="724"/>
      <point x="275" y="724" type="curve" smooth="yes"/>
      <point x="113" y="724"/>
      <point x="46" y="568"/>
      <point x="46" y="303" type="curve" smooth="yes"/>
      <point x="46" y="100"/>
      <point x="107" y="-10"/>
    </contour>
    <contour>
      <point x="216" y="62" type="curve" smooth="yes"/>
      <point x="151" y="62"/>
      <point x="130" y="155"/>
      <point x="130" y="248" type="curve" smooth="yes"/>
      <point x="130" y="319"/>
      <point x="158" y="379"/>
      <point x="216" y="379" type="curve" smooth="yes"/>
      <point x="270" y="379"/>
      <point x="296" y="328"/>
      <point x="296" y="224" type="curve" smooth="yes"/>
      <point x="296" y="113"/>
      <point x="267" y="62"/>
    </contour>
  </outline>
</glyph>
<glyph name="eight.gujr" format="2">
  <advance width="411"/>
  <unicode hex="0038"/>
  <outline>
    <contour>
      <point x="212" y="-10" type="curve" smooth="yes"/>
      <point x="316" y="-10"/>
      <point x="380" y="60"/>
      <point x="380" y="174" type="curve" smooth="yes"/>
      <point x="380" y="264"/>
      <point x="331" y="321"/>
      <point x="261" y="374" type="curve"/>
      <point x="333" y="421"/>
      <point x="370" y="479"/>
      <point x="370" y="557" type="curve" smooth="yes"/>
      <point x="370" y="659"/>
      <point x="310" y="724"/>
      <point x="209" y="724" type="curve" smooth="yes"/>
      <point x="111" y="724"/>
      <point x="47" y="658"/>
      <point x="47" y="556" type="curve" smooth="yes"/>
      <point x="47" y="485"/>
      <point x="79" y="427"/>
      <point x="145" y="372" type="curve"/>
      <point x="67" y="317"/>
      <point x="32" y="260"/>
      <point x="32" y="176" type="curve" smooth="yes"/>
      <point x="32" y="64"/>
      <point x="97" y="-10"/>
    </contour>
    <contour>
      <point x="208" y="60" type="curve" smooth="yes"/>
      <point x="145" y="60"/>
      <point x="114" y="109"/>
      <point x="114" y="176" type="curve" smooth="yes"/>
      <point x="114" y="245"/>
      <point x="137" y="290"/>
      <point x="200" y="334" type="curve"/>
      <point x="253" y="296"/>
      <point x="296" y="247"/>
      <point x="296" y="177" type="curve" smooth="yes"/>
      <point x="296" y="109"/>
      <point x="269" y="60"/>
    </contour>
    <contour>
      <point x="207" y="413" type="curve"/>
      <point x="154" y="451"/>
      <point x="129" y="490"/>
      <point x="129" y="551" type="curve" smooth="yes"/>
      <point x="129" y="615"/>
      <point x="159" y="654"/>
      <point x="207" y="654" type="curve" smooth="yes"/>
      <point x="258" y="654"/>
      <point x="288" y="615"/>
      <point x="288" y="551" type="curve" smooth="yes"/>
      <point x="288" y="494"/>
      <point x="265" y="452"/>
    </contour>
  </outline>
</glyph>
<glyph name="semicolon.gujr" format="2">
  <advance width="278"/>
  <unicode hex="003B"/>
  <outline>
    <contour>
      <point x="61" y="-130" type="curve"/>
      <point x="123" y="-130" type="line"/>
      <point x="155" y="-58"/>
      <point x="180" y="21"/>
      <point x="199" y="105" type="curve"/>
      <point x="192" y="116" type="line"/>
      <point x="107" y="116" type="line"/>
      <point x="99" y="44"/>
      <point x="83" y="-48"/>
    </contour>
    <contour>
      <point x="139" y="418" type="curve" smooth="yes"/>
      <point x="170" y="418"/>
      <point x="193" y="439"/>
      <point x="193" y="483" type="curve" smooth="yes"/>
      <point x="193" y="525"/>
      <point x="174" y="547"/>
      <point x="139" y="547" type="curve" smooth="yes"/>
      <point x="103" y="547"/>
      <point x="85" y="525"/>
      <point x="85" y="483" type="curve" smooth="yes"/>
      <point x="85" y="440"/>
      <point x="104" y="418"/>
    </contour>
  </outline>
</glyph>
<glyph name="less.gujr" format="2">
  <advance width="443"/>
  <unicode hex="003C"/>
  <outline>
    <contour>
      <point x="392" y="115" type="line"/>
      <point x="392" y="191" type="line"/>
      <point x="139" y="322" type="line"/>
      <point x="392" y="453" type="line"/>
      <point x="392" y="529" type="line"/>
      <point x="51" y="346" type="line"/>
      <point x="51" y="298" type="line"/>
    </contour>
  </outline>
</glyph>
<glyph name="equal.gujr" format="2">
  <advance width="443"/>
  <unicode hex="003D"/>
  <outline>
    <contour>
      <point x="56" y="382" type="line"/>
      <point x="387" y="382" type="line"/>
      <point x="387" y="451" type="line"/>
      <point x="56" y="451" type="line"/>
    </contour>
    <contour>
      <point x="56" y="193" type="line"/>
      <point x="387" y="193" type="line"/>
      <point x="387" y="262" type="line"/>
      <point x="56" y="262" type="line"/>
    </contour>
  </outline>
</glyph>
<glyph name="greater.gujr" format="2">
  <advance width="443"/>
  <unicode hex="003E"/>
  <outline>
    <contour>
      <point x="51" y="115" type="line"/>
      <point x="392" y="298" type="line"/>
      <point x="392" y="346" type="line"/>
      <point x="51" y="529" type="line"/>
      <point x="51" y="453" type="line"/>
      <point x="304" y="322" type="line"/>
      <point x="51" y="191" type="line"/>
    </contour>
  </outline>
</glyph>
<glyph name="bracketright.gujr" format="2">
  <advance width="311"/>
  <unicode hex="005D"/>
  <outline>
    <contour>
      <point x="51" y="-165" type="line"/>
      <point x="221" y="-165" type="line"/>
      <point x="221" y="832" type="line"/>
      <point x="51" y="832" type="line"/>
      <point x="51" y="765" type="line"/>
      <point x="142" y="765" type="line"/>
      <point x="142" y="-98" type="line"/>
      <point x="51" y="-98" type="line"/>
    </contour>
  </outline>
</glyph>
<glyph name="asciicircum.gujr" format="2">
  <advance width="443"/>
  <unicode hex="005E"/>
  <outline>
    <contour>
      <point x="30" y="332" type="line"/>
      <point x="100" y="332" type="line"/>
      <point x="219" y="621" type="line"/>
      <point x="342" y="332" type="line"/>
      <point x="413" y="332" type="line"/>
      <point x="242" y="719" type="line"/>
      <point x="195" y="719" type="line"/>
    </contour>
  </outline>
</glyph>
<glyph name="bar.gujr" format="2">
  <advance width="395"/>
  <unicode hex="007C"/>
  <outline>
    <contour>
      <point x="164" y="832" type="line"/>
      <point x="164" y="-165" type="line"/>
      <point x="231" y="-165" type="line"/>
      <point x="231" y="832" type="line"/>
    </contour>
  </outline>
</glyph>
<glyph name="braceright.gujr" format="2">
  <advance width="330"/>
  <unicode hex="007D"/>
  <outline>
    <contour>
      <point x="51" y="-166" type="line"/>
      <point x="155" y="-164"/>
      <point x="201" y="-126"/>
      <point x="201" y="-26" type="curve" smooth="yes"/>
      <point x="201" y="206" type="line" smooth="yes"/>
      <point x="201" y="272"/>
      <point x="228" y="299"/>
      <point x="291" y="299" type="curve"/>
      <point x="291" y="367" type="line"/>
      <point x="229" y="367"/>
      <point x="201" y="394"/>
      <point x="201" y="460" type="curve" smooth="yes"/>
      <point x="201" y="691" type="line" smooth="yes"/>
      <point x="201" y="790"/>
      <point x="155" y="830"/>
      <point x="51" y="832" type="curve"/>
      <point x="51" y="764" type="line"/>
      <point x="100" y="764"/>
      <point x="124" y="749"/>
      <point x="124" y="686" type="curve" smooth="yes"/>
      <point x="124" y="455" type="line" smooth="yes"/>
      <point x="124" y="388"/>
      <point x="151" y="349"/>
      <point x="202" y="335" type="curve"/>
      <point x="202" y="330" type="line"/>
      <point x="151" y="317"/>
      <point x="124" y="279"/>
      <point x="124" y="211" type="curve" smooth="yes"/>
      <point x="124" y="-20" type="line" smooth="yes"/>
      <point x="124" y="-84"/>
      <point x="100" y="-98"/>
      <point x="51" y="-98" type="curve"/>
    </contour>
  </outline>
</glyph>
<glyph name="asciitilde.gujr" format="2">
  <advance width="443"/>
  <unicode hex="007E"/>
  <outline>
    <contour>
      <point x="51" y="337" type="curve"/>
      <point x="51" y="262" type="line"/>
      <point x="76" y="294"/>
      <point x="106" y="317"/>
      <point x="137" y="317" type="curve" smooth="yes"/>
      <point x="157" y="317"/>
      <point x="173" y="309"/>
      <point x="207" y="290" type="curve" smooth="yes"/>
      <point x="254" y="263"/>
      <point x="272" y="258"/>
      <point x="301" y="258" type="curve" smooth="yes"/>
      <point x="337" y="258"/>
      <point x="364" y="276"/>
      <point x="392" y="307" type="curve"/>
      <point x="392" y="383" type="line"/>
      <point x="364" y="352"/>
      <point x="340" y="327"/>
      <point x="309" y="327" type="curve" smooth="yes"/>
      <point x="284" y="327"/>
      <point x="271" y="334"/>
      <point x="235" y="354" type="curve" smooth="yes"/>
      <point x="189" y="380"/>
      <point x="171" y="386"/>
      <point x="143" y="386" type="curve" smooth="yes"/>
      <point x="108" y="386"/>
      <point x="80" y="369"/>
    </contour>
  </outline>
</glyph>
<glyph name="multiply.gujr" format="2">
  <advance width="443"/>
  <unicode hex="00D7"/>
  <outline>
    <contour>
      <point x="89" y="144" type="line"/>
      <point x="220" y="278" type="line"/>
      <point x="351" y="144" type="line"/>
      <point x="398" y="191" type="line"/>
      <point x="265" y="323" type="line"/>
      <point x="398" y="454" type="line"/>
      <point x="351" y="501" type="line"/>
      <point x="220" y="367" type="line"/>
      <point x="89" y="501" type="line"/>
      <point x="42" y="454" type="line"/>
      <point x="175" y="323" type="line"/>
      <point x="42" y="191" type="line"/>
    </contour>
  </outline>
</glyph>
<glyph name="divide.gujr" format="2">
  <advance width="443"/>
  <unicode hex="00F7"/>
  <outline>
    <contour>
      <point x="51" y="288" type="line"/>
      <point x="392" y="288" type="line"/>
      <point x="392" y="357" type="line"/>
      <point x="51" y="357" type="line"/>
    </contour>
    <contour>
      <point x="220" y="99" type="curve" smooth="yes"/>
      <point x="248" y="99"/>
      <point x="272" y="116"/>
      <point x="272" y="155" type="curve" smooth="yes"/>
      <point x="272" y="195"/>
      <point x="248" y="211"/>
      <point x="220" y="211" type="curve" smooth="yes"/>
      <point x="193" y="211"/>
      <point x="170" y="195"/>
      <point x="170" y="155" type="curve" smooth="yes"/>
      <point x="170" y="116"/>
      <point x="193" y="99"/>
    </contour>
    <contour>
      <point x="220" y="436" type="curve" smooth="yes"/>
      <point x="248" y="436"/>
      <point x="272" y="453"/>
      <point x="272" y="492" type="curve" smooth="yes"/>
      <point x="272" y="532"/>
      <point x="248" y="548"/>
      <point x="220" y="548" type="curve" smooth="yes"/>
      <point x="193" y="548"/>
      <point x="170" y="532"/>
      <point x="170" y="492" type="curve" smooth="yes"/>
      <point x="170" y="453"/>
      <point x="193" y="436"/>
    </contour>
  </outline>
</glyph>
<glyph name="uni0952" format="2">
  <unicode hex="0952"/>
  <outline>
    <contour>
      <point x="-384" y="-79" type="line"/>
      <point x="-384" y="-146" type="line"/>
      <point x="-125" y="-146" type="line"/>
      <point x="-125" y="-79" type="line"/>
    </contour>
  </outline>
</glyph>
<glyph name="danda.gujr" format="2">
  <advance width="356"/>
  <unicode hex="0964"/>
  <outline>
    <contour>
      <point x="179" y="0" type="line"/>
      <point x="254" y="0" type="line"/>
      <point x="254" y="597" type="line"/>
      <point x="179" y="597" type="line"/>
    </contour>
  </outline>
</glyph>
<glyph name="dbldanda.gujr" format="2">
  <advance width="538"/>
  <unicode hex="0965"/>
  <outline>
    <contour>
      <point x="361" y="0" type="line"/>
      <point x="436" y="0" type="line"/>
      <point x="436" y="597" type="line"/>
      <point x="361" y="597" type="line"/>
    </contour>
    <contour>
      <point x="179" y="0" type="line"/>
      <point x="254" y="0" type="line"/>
      <point x="254" y="597" type="line"/>
      <point x="179" y="597" type="line"/>
    </contour>
  </outline>
</glyph>
<glyph name="candrabindugujr" format="2">
  <unicode hex="0A81"/>
  <outline>
    <contour>
      <point x="-107" y="655" type="curve" smooth="yes"/>
      <point x="-37" y="655"/>
      <point x="30" y="689"/>
      <point x="57" y="791" type="curve"/>
      <point x="-6" y="815" type="line"/>
      <point x="-26" y="749"/>
      <point x="-53" y="720"/>
      <point x="-107" y="720" type="curve" smooth="yes"/>
      <point x="-162" y="720"/>
      <point x="-195" y="750"/>
      <point x="-213" y="815" type="curve"/>
      <point x="-275" y="793" type="line"/>
      <point x="-248" y="690"/>
      <point x="-178" y="655"/>
    </contour>
    <contour>
      <point x="-110" y="774" type="curve" smooth="yes"/>
      <point x="-84" y="774"/>
      <point x="-67" y="794"/>
      <point x="-67" y="828" type="curve" smooth="yes"/>
      <point x="-67" y="862"/>
      <point x="-84" y="881"/>
      <point x="-110" y="881" type="curve" smooth="yes"/>
      <point x="-136" y="881"/>
      <point x="-153" y="862"/>
      <point x="-153" y="828" type="curve" smooth="yes"/>
      <point x="-153" y="794"/>
      <point x="-136" y="774"/>
    </contour>
  </outline>
</glyph>
<glyph name="anusvaragujr" format="2">
  <unicode hex="0A82"/>
  <outline>
    <contour>
      <point x="-108" y="707" type="curve" smooth="yes"/>
      <point x="-76" y="707"/>
      <point x="-59" y="729"/>
      <point x="-59" y="762" type="curve" smooth="yes"/>
      <point x="-59" y="794"/>
      <point x="-76" y="817"/>
      <point x="-108" y="817" type="curve" smooth="yes"/>
      <point x="-139" y="817"/>
      <point x="-157" y="794"/>
      <point x="-157" y="762" type="curve" smooth="yes"/>
      <point x="-157" y="729"/>
      <point x="-139" y="707"/>
    </contour>
  </outline>
</glyph>
<glyph name="visargagujr" format="2">
  <advance width="204"/>
  <unicode hex="0A83"/>
  <outline>
    <contour>
      <point x="102" y="357" type="curve" smooth="yes"/>
      <point x="133" y="357"/>
      <point x="156" y="381"/>
      <point x="156" y="421" type="curve" smooth="yes"/>
      <point x="156" y="461"/>
      <point x="133" y="485"/>
      <point x="102" y="485" type="curve" smooth="yes"/>
      <point x="71" y="485"/>
      <point x="48" y="461"/>
      <point x="48" y="421" type="curve" smooth="yes"/>
      <point x="48" y="381"/>
      <point x="71" y="357"/>
    </contour>
    <contour>
      <point x="102" y="50" type="curve" smooth="yes"/>
      <point x="133" y="50"/>
      <point x="156" y="74"/>
      <point x="156" y="114" type="curve" smooth="yes"/>
      <point x="156" y="154"/>
      <point x="133" y="178"/>
      <point x="102" y="178" type="curve" smooth="yes"/>
      <point x="71" y="178"/>
      <point x="48" y="154"/>
      <point x="48" y="114" type="curve" smooth="yes"/>
      <point x="48" y="74"/>
      <point x="71" y="50"/>
    </contour>
  </outline>
</glyph>
<glyph name="aagujr" format="2">
  <advance width="877"/>
  <unicode hex="0A86"/>
  <outline>
    <contour>
      <point x="274" y="108" type="curve" smooth="yes"/>
      <point x="370" y="108"/>
      <point x="426" y="177"/>
      <point x="426" y="289" type="curve" smooth="yes"/>
      <point x="426" y="426" type="line"/>
      <point x="351" y="432" type="line"/>
      <point x="351" y="299" type="line" smooth="yes"/>
      <point x="351" y="253"/>
      <point x="343" y="222"/>
      <point x="326" y="201" type="curve" smooth="yes"/>
      <point x="313" y="184"/>
      <point x="293" y="176"/>
      <point x="270" y="176" type="curve" smooth="yes"/>
      <point x="221" y="176"/>
      <point x="185" y="205"/>
      <point x="154" y="267" type="curve"/>
      <point x="150" y="282" type="line"/>
      <point x="125" y="325"/>
      <point x="101" y="341"/>
      <point x="75" y="341" type="curve" smooth="yes"/>
      <point x="40" y="341"/>
      <point x="20" y="320"/>
      <point x="20" y="289" type="curve" smooth="yes"/>
      <point x="20" y="253"/>
      <point x="54" y="228"/>
      <point x="103" y="228" type="curve" smooth="yes"/>
      <point x="191" y="228"/>
      <point x="268" y="311"/>
      <point x="268" y="422" type="curve" smooth="yes"/>
      <point x="268" y="526"/>
      <point x="208" y="602"/>
      <point x="111" y="602" type="curve" smooth="yes"/>
      <point x="81" y="602"/>
      <point x="51" y="595"/>
      <point x="22" y="583" type="curve"/>
      <point x="43" y="521" type="line"/>
      <point x="62" y="529"/>
      <point x="85" y="534"/>
      <point x="102" y="534" type="curve" smooth="yes"/>
      <point x="162" y="534"/>
      <point x="193" y="488"/>
      <point x="193" y="422" type="curve" smooth="yes"/>
      <point x="193" y="355"/>
      <point x="155" y="305"/>
      <point x="103" y="295" type="curve"/>
      <point x="88" y="250" type="line"/>
      <point x="128" y="163"/>
      <point x="189" y="108"/>
    </contour>
    <contour>
      <point x="467" y="232" type="curve" smooth="yes"/>
      <point x="498" y="232"/>
      <point x="522" y="244"/>
      <point x="541" y="264" type="curve"/>
      <point x="534" y="341" type="line"/>
      <point x="517" y="315"/>
      <point x="493" y="300"/>
      <point x="468" y="300" type="curve" smooth="yes"/>
      <point x="447" y="300"/>
      <point x="426" y="310"/>
      <point x="413" y="328" type="curve"/>
      <point x="389" y="264" type="line"/>
      <point x="411" y="243"/>
      <point x="440" y="232"/>
    </contour>
    <contour>
      <point x="633" y="0" type="curve" smooth="yes"/>
      <point x="653" y="0" type="line"/>
      <point x="657" y="68" type="line"/>
      <point x="633" y="68"/>
      <point x="621" y="72"/>
      <point x="612" y="79" type="curve" smooth="yes"/>
      <point x="599" y="89"/>
      <point x="594" y="104"/>
      <point x="594" y="129" type="curve" smooth="yes"/>
      <point x="594" y="592" type="line"/>
      <point x="519" y="602" type="line"/>
      <point x="519" y="117" type="line" smooth="yes"/>
      <point x="519" y="77"/>
      <point x="529" y="45"/>
      <point x="552" y="25" type="curve" smooth="yes"/>
      <point x="572" y="8"/>
      <point x="598" y="0"/>
    </contour>
    <contour>
      <point x="845" y="0" type="curve" smooth="yes"/>
      <point x="865" y="0" type="line"/>
      <point x="869" y="68" type="line"/>
      <point x="845" y="68"/>
      <point x="833" y="72"/>
      <point x="824" y="79" type="curve" smooth="yes"/>
      <point x="811" y="89"/>
      <point x="806" y="104"/>
      <point x="806" y="129" type="curve" smooth="yes"/>
      <point x="806" y="592" type="line"/>
      <point x="731" y="602" type="line"/>
      <point x="731" y="117" type="line" smooth="yes"/>
      <point x="731" y="77"/>
      <point x="741" y="45"/>
      <point x="764" y="25" type="curve" smooth="yes"/>
      <point x="784" y="8"/>
      <point x="810" y="0"/>
    </contour>
  </outline>
</glyph>
<glyph name="igujr" format="2">
  <advance width="509"/>
  <unicode hex="0A87"/>
  <outline>
    <contour>
      <point x="267" y="-10" type="curve" smooth="yes"/>
      <point x="400" y="-10"/>
      <point x="475" y="91"/>
      <point x="475" y="209" type="curve" smooth="yes"/>
      <point x="475" y="282"/>
      <point x="460" y="337"/>
      <point x="429" y="410" type="curve" smooth="yes"/>
      <point x="401" y="476"/>
      <point x="385" y="524"/>
      <point x="385" y="559" type="curve" smooth="yes"/>
      <point x="385" y="603"/>
      <point x="402" y="633"/>
      <point x="448" y="669" type="curve"/>
      <point x="394" y="728" type="line"/>
      <point x="332" y="680"/>
      <point x="308" y="624"/>
      <point x="308" y="563" type="curve" smooth="yes"/>
      <point x="308" y="511"/>
      <point x="322" y="468"/>
      <point x="352" y="397" type="curve" smooth="yes"/>
      <point x="381" y="328"/>
      <point x="400" y="272"/>
      <point x="400" y="209" type="curve" smooth="yes"/>
      <point x="400" y="119"/>
      <point x="350" y="57"/>
      <point x="266" y="57" type="curve" smooth="yes"/>
      <point x="190" y="57"/>
      <point x="143" y="103"/>
      <point x="143" y="178" type="curve" smooth="yes"/>
      <point x="143" y="247"/>
      <point x="183" y="291"/>
      <point x="247" y="291" type="curve" smooth="yes"/>
      <point x="255" y="291"/>
      <point x="264" y="290"/>
      <point x="273" y="288" type="curve"/>
      <point x="281" y="355" type="line"/>
      <point x="268" y="358"/>
      <point x="257" y="359"/>
      <point x="246" y="359" type="curve" smooth="yes"/>
      <point x="144" y="359"/>
      <point x="68" y="282"/>
      <point x="68" y="177" type="curve" smooth="yes"/>
      <point x="68" y="64"/>
      <point x="149" y="-10"/>
    </contour>
    <contour>
      <point x="121" y="276" type="curve"/>
      <point x="171" y="327" type="line"/>
      <point x="130" y="363"/>
      <point x="109" y="398"/>
      <point x="109" y="448" type="curve" smooth="yes"/>
      <point x="109" y="497"/>
      <point x="141" y="529"/>
      <point x="195" y="529" type="curve" smooth="yes"/>
      <point x="210" y="529"/>
      <point x="224" y="527"/>
      <point x="237" y="523" type="curve"/>
      <point x="250" y="595" type="line"/>
      <point x="232" y="600"/>
      <point x="210" y="603"/>
      <point x="188" y="603" type="curve" smooth="yes"/>
      <point x="88" y="603"/>
      <point x="34" y="534"/>
      <point x="34" y="453" type="curve" smooth="yes"/>
      <point x="34" y="381"/>
      <point x="69" y="325"/>
    </contour>
  </outline>
</glyph>
<glyph name="iigujr" format="2">
  <advance width="511"/>
  <unicode hex="0A88"/>
  <outline>
    <contour>
      <point x="267" y="-10" type="curve" smooth="yes"/>
      <point x="390" y="-10"/>
      <point x="475" y="83"/>
      <point x="475" y="219" type="curve" smooth="yes"/>
      <point x="475" y="320"/>
      <point x="451" y="394"/>
      <point x="406" y="519" type="curve" smooth="yes"/>
      <point x="361" y="643"/>
      <point x="346" y="696"/>
      <point x="346" y="754" type="curve" smooth="yes"/>
      <point x="346" y="803"/>
      <point x="369" y="830"/>
      <point x="406" y="830" type="curve" smooth="yes"/>
      <point x="448" y="830"/>
      <point x="468" y="792"/>
      <point x="485" y="737" type="curve"/>
      <point x="558" y="761" type="line"/>
      <point x="532" y="830"/>
      <point x="491" y="896"/>
      <point x="402" y="896" type="curve" smooth="yes"/>
      <point x="319" y="896"/>
      <point x="268" y="836"/>
      <point x="268" y="754" type="curve" smooth="yes"/>
      <point x="268" y="690"/>
      <point x="284" y="631"/>
      <point x="332" y="499" type="curve" smooth="yes"/>
      <point x="377" y="375"/>
      <point x="400" y="304"/>
      <point x="400" y="219" type="curve" smooth="yes"/>
      <point x="400" y="123"/>
      <point x="350" y="57"/>
      <point x="266" y="57" type="curve" smooth="yes"/>
      <point x="190" y="57"/>
      <point x="143" y="103"/>
      <point x="143" y="178" type="curve" smooth="yes"/>
      <point x="143" y="247"/>
      <point x="183" y="291"/>
      <point x="247" y="291" type="curve" smooth="yes"/>
      <point x="255" y="291"/>
      <point x="264" y="290"/>
      <point x="273" y="288" type="curve"/>
      <point x="281" y="355" type="line"/>
      <point x="268" y="358"/>
      <point x="257" y="359"/>
      <point x="246" y="359" type="curve" smooth="yes"/>
      <point x="144" y="359"/>
      <point x="68" y="282"/>
      <point x="68" y="177" type="curve" smooth="yes"/>
      <point x="68" y="64"/>
      <point x="149" y="-10"/>
    </contour>
    <contour>
      <point x="121" y="276" type="curve"/>
      <point x="171" y="327" type="line"/>
      <point x="130" y="363"/>
      <point x="109" y="398"/>
      <point x="109" y="448" type="curve" smooth="yes"/>
      <point x="109" y="497"/>
      <point x="141" y="529"/>
      <point x="195" y="529" type="curve" smooth="yes"/>
      <point x="210" y="529"/>
      <point x="224" y="527"/>
      <point x="237" y="523" type="curve"/>
      <point x="250" y="595" type="line"/>
      <point x="232" y="600"/>
      <point x="210" y="603"/>
      <point x="188" y="603" type="curve" smooth="yes"/>
      <point x="88" y="603"/>
      <point x="34" y="534"/>
      <point x="34" y="453" type="curve" smooth="yes"/>
      <point x="34" y="381"/>
      <point x="69" y="325"/>
    </contour>
  </outline>
</glyph>
<glyph name="ugujr" format="2">
  <advance width="494"/>
  <unicode hex="0A89"/>
  <outline>
    <contour>
      <point x="286" y="-10" type="curve" smooth="yes"/>
      <point x="399" y="-10"/>
      <point x="459" y="59"/>
      <point x="459" y="165" type="curve" smooth="yes"/>
      <point x="459" y="237"/>
      <point x="420" y="307"/>
      <point x="357" y="348" type="curve"/>
      <point x="316" y="326" type="line"/>
      <point x="319" y="294" type="line"/>
      <point x="360" y="266"/>
      <point x="384" y="217"/>
      <point x="384" y="168" type="curve" smooth="yes"/>
      <point x="384" y="99"/>
      <point x="351" y="58"/>
      <point x="284" y="58" type="curve" smooth="yes"/>
      <point x="171" y="58"/>
      <point x="118" y="173"/>
      <point x="118" y="367" type="curve" smooth="yes"/>
      <point x="118" y="627"/>
      <point x="206" y="765"/>
      <point x="351" y="765" type="curve" smooth="yes"/>
      <point x="365" y="765"/>
      <point x="385" y="764"/>
      <point x="401" y="760" type="curve"/>
      <point x="413" y="828" type="line"/>
      <point x="390" y="833"/>
      <point x="370" y="834"/>
      <point x="352" y="834" type="curve" smooth="yes"/>
      <point x="164" y="834"/>
      <point x="43" y="680"/>
      <point x="43" y="369" type="curve" smooth="yes"/>
      <point x="43" y="133"/>
      <point x="118" y="-10"/>
    </contour>
    <contour>
      <point x="269" y="270" type="line"/>
      <point x="399" y="294"/>
      <point x="458" y="349"/>
      <point x="458" y="448" type="curve" smooth="yes"/>
      <point x="458" y="535"/>
      <point x="399" y="602"/>
      <point x="298" y="602" type="curve" smooth="yes"/>
      <point x="263" y="602"/>
      <point x="224" y="592"/>
      <point x="190" y="577" type="curve"/>
      <point x="212" y="515" type="line"/>
      <point x="241" y="527"/>
      <point x="268" y="534"/>
      <point x="292" y="534" type="curve" smooth="yes"/>
      <point x="352" y="534"/>
      <point x="383" y="499"/>
      <point x="383" y="446" type="curve" smooth="yes"/>
      <point x="383" y="383"/>
      <point x="330" y="355"/>
      <point x="250" y="340" type="curve"/>
    </contour>
  </outline>
</glyph>
<glyph name="uugujr" format="2">
  <advance width="705"/>
  <unicode hex="0A8A"/>
  <outline>
    <contour>
      <point x="286" y="-10" type="curve" smooth="yes"/>
      <point x="399" y="-10"/>
      <point x="459" y="59"/>
      <point x="459" y="165" type="curve" smooth="yes"/>
      <point x="459" y="237"/>
      <point x="420" y="307"/>
      <point x="357" y="348" type="curve"/>
      <point x="316" y="326" type="line"/>
      <point x="319" y="294" type="line"/>
      <point x="360" y="266"/>
      <point x="384" y="217"/>
      <point x="384" y="168" type="curve" smooth="yes"/>
      <point x="384" y="99"/>
      <point x="351" y="58"/>
      <point x="284" y="58" type="curve" smooth="yes"/>
      <point x="171" y="58"/>
      <point x="118" y="171"/>
      <point x="118" y="387" type="curve" smooth="yes"/>
      <point x="118" y="624"/>
      <point x="203" y="766"/>
      <point x="356" y="766" type="curve" smooth="yes"/>
      <point x="466" y="766"/>
      <point x="532" y="682"/>
      <point x="559" y="557" type="curve"/>
      <point x="559" y="117" type="line" smooth="yes"/>
      <point x="559" y="77"/>
      <point x="569" y="45"/>
      <point x="592" y="25" type="curve" smooth="yes"/>
      <point x="612" y="8"/>
      <point x="638" y="0"/>
      <point x="673" y="0" type="curve" smooth="yes"/>
      <point x="693" y="0" type="line"/>
      <point x="697" y="68" type="line"/>
      <point x="673" y="68"/>
      <point x="661" y="72"/>
      <point x="652" y="79" type="curve" smooth="yes"/>
      <point x="639" y="89"/>
      <point x="634" y="104"/>
      <point x="634" y="129" type="curve" smooth="yes"/>
      <point x="634" y="577" type="line"/>
      <point x="598" y="739"/>
      <point x="497" y="834"/>
      <point x="355" y="834" type="curve" smooth="yes"/>
      <point x="159" y="834"/>
      <point x="43" y="679"/>
      <point x="43" y="387" type="curve" smooth="yes"/>
      <point x="43" y="133"/>
      <point x="118" y="-10"/>
    </contour>
    <contour>
      <point x="269" y="270" type="line"/>
      <point x="399" y="294"/>
      <point x="458" y="349"/>
      <point x="458" y="448" type="curve" smooth="yes"/>
      <point x="458" y="535"/>
      <point x="399" y="602"/>
      <point x="298" y="602" type="curve" smooth="yes"/>
      <point x="263" y="602"/>
      <point x="224" y="592"/>
      <point x="190" y="577" type="curve"/>
      <point x="212" y="515" type="line"/>
      <point x="241" y="527"/>
      <point x="268" y="534"/>
      <point x="292" y="534" type="curve" smooth="yes"/>
      <point x="352" y="534"/>
      <point x="383" y="499"/>
      <point x="383" y="446" type="curve" smooth="yes"/>
      <point x="383" y="383"/>
      <point x="330" y="355"/>
      <point x="250" y="340" type="curve"/>
    </contour>
  </outline>
</glyph>
<glyph name="rvocalicgujr" format="2">
  <advance width="669"/>
  <unicode hex="0A8B"/>
  <outline>
    <contour>
      <point x="550" y="78" type="line"/>
      <point x="607" y="116"/>
      <point x="639" y="152"/>
      <point x="639" y="218" type="curve" smooth="yes"/>
      <point x="639" y="270"/>
      <point x="619" y="321"/>
      <point x="577" y="399" type="curve"/>
      <point x="546" y="407" type="line"/>
      <point x="524" y="387"/>
      <point x="512" y="383"/>
      <point x="489" y="383" type="curve" smooth="yes"/>
      <point x="449" y="383"/>
      <point x="411" y="399"/>
      <point x="382" y="426" type="curve"/>
      <point x="377" y="357" type="line"/>
      <point x="413" y="329"/>
      <point x="456" y="317"/>
      <point x="502" y="317" type="curve" smooth="yes"/>
      <point x="566" y="317"/>
      <point x="625" y="356"/>
      <point x="625" y="418" type="curve" smooth="yes"/>
      <point x="625" y="461"/>
      <point x="601" y="490"/>
      <point x="564" y="490" type="curve" smooth="yes"/>
      <point x="526" y="490"/>
      <point x="504" y="466"/>
      <point x="504" y="427" type="curve" smooth="yes"/>
      <point x="504" y="410"/>
      <point x="509" y="392"/>
      <point x="517" y="375" type="curve"/>
      <point x="522" y="359" type="line"/>
      <point x="551" y="304"/>
      <point x="565" y="266"/>
      <point x="565" y="230" type="curve" smooth="yes"/>
      <point x="565" y="193"/>
      <point x="542" y="166"/>
      <point x="502" y="142" type="curve"/>
    </contour>
    <contour>
      <point x="120" y="144" type="line"/>
      <point x="360" y="340" type="line"/>
      <point x="326" y="394" type="line"/>
      <point x="70" y="203" type="line"/>
    </contour>
    <contour>
      <point x="262" y="342" type="curve"/>
      <point x="314" y="382" type="line"/>
      <point x="234" y="487"/>
      <point x="187" y="521"/>
      <point x="113" y="521" type="curve" smooth="yes"/>
      <point x="77" y="521"/>
      <point x="42" y="512"/>
      <point x="7" y="497" type="curve"/>
      <point x="34" y="431" type="line"/>
      <point x="62" y="444"/>
      <point x="84" y="451"/>
      <point x="114" y="451" type="curve" smooth="yes"/>
      <point x="162" y="451"/>
      <point x="201" y="420"/>
    </contour>
    <contour>
      <point x="434" y="0" type="curve" smooth="yes"/>
      <point x="454" y="0" type="line"/>
      <point x="458" y="68" type="line"/>
      <point x="434" y="68"/>
      <point x="422" y="72"/>
      <point x="413" y="79" type="curve" smooth="yes"/>
      <point x="400" y="89"/>
      <point x="395" y="104"/>
      <point x="395" y="129" type="curve" smooth="yes"/>
      <point x="395" y="592" type="line"/>
      <point x="320" y="602" type="line"/>
      <point x="320" y="117" type="line" smooth="yes"/>
      <point x="320" y="77"/>
      <point x="330" y="45"/>
      <point x="353" y="25" type="curve" smooth="yes"/>
      <point x="373" y="8"/>
      <point x="399" y="0"/>
    </contour>
  </outline>
</glyph>
<glyph name="lvocalicgujr" format="2">
  <advance width="570"/>
  <unicode hex="0A8C"/>
  <outline>
    <contour>
      <point x="163" y="35" type="curve"/>
      <point x="216" y="81" type="line"/>
      <point x="144" y="158"/>
      <point x="105" y="220"/>
      <point x="105" y="292" type="curve" smooth="yes"/>
      <point x="105" y="346"/>
      <point x="135" y="381"/>
      <point x="189" y="381" type="curve" smooth="yes"/>
      <point x="224" y="381"/>
      <point x="247" y="368"/>
      <point x="274" y="344" type="curve"/>
      <point x="309" y="399" type="line"/>
      <point x="271" y="432"/>
      <point x="231" y="450"/>
      <point x="181" y="450" type="curve" smooth="yes"/>
      <point x="106" y="450"/>
      <point x="29" y="404"/>
      <point x="29" y="296" type="curve" smooth="yes"/>
      <point x="29" y="205"/>
      <point x="80" y="121"/>
    </contour>
    <contour>
      <point x="488" y="-87" type="curve" smooth="yes"/>
      <point x="528" y="-87"/>
      <point x="561" y="-79"/>
      <point x="588" y="-66" type="curve"/>
      <point x="562" y="3" type="line"/>
      <point x="536" y="-9"/>
      <point x="516" y="-15"/>
      <point x="486" y="-15" type="curve" smooth="yes"/>
      <point x="445" y="-15"/>
      <point x="416" y="8"/>
      <point x="416" y="45" type="curve" smooth="yes"/>
      <point x="416" y="87"/>
      <point x="445" y="116"/>
      <point x="496" y="138" type="curve"/>
      <point x="467" y="196" type="line"/>
      <point x="380" y="166"/>
      <point x="341" y="114"/>
      <point x="341" y="42" type="curve" smooth="yes"/>
      <point x="341" y="-35"/>
      <point x="396" y="-87"/>
    </contour>
    <contour>
      <point x="496" y="138" type="line"/>
      <point x="521" y="183"/>
      <point x="537" y="242"/>
      <point x="537" y="298" type="curve" smooth="yes"/>
      <point x="537" y="389"/>
      <point x="489" y="450"/>
      <point x="406" y="450" type="curve" smooth="yes"/>
      <point x="303" y="450"/>
      <point x="243" y="379"/>
      <point x="218" y="255" type="curve"/>
      <point x="290" y="235" type="line"/>
      <point x="308" y="333"/>
      <point x="344" y="381"/>
      <point x="399" y="381" type="curve" smooth="yes"/>
      <point x="442" y="381"/>
      <point x="461" y="351"/>
      <point x="461" y="302" type="curve" smooth="yes"/>
      <point x="461" y="251"/>
      <point x="443" y="201"/>
      <point x="417" y="158" type="curve"/>
    </contour>
    <contour>
      <point x="367" y="412" type="line"/>
      <point x="442" y="412" type="line"/>
      <point x="442" y="592" type="line"/>
      <point x="367" y="602" type="line"/>
    </contour>
  </outline>
</glyph>
<glyph name="kagujr" format="2">
  <advance width="393"/>
  <unicode hex="0A95"/>
  <outline>
    <contour>
      <point x="186" y="-10" type="curve" smooth="yes"/>
      <point x="287" y="-10"/>
      <point x="350" y="50"/>
      <point x="350" y="132" type="curve" smooth="yes"/>
      <point x="350" y="203"/>
      <point x="314" y="256"/>
      <point x="239" y="320" type="curve"/>
      <point x="216" y="343" type="line"/>
      <point x="179" y="375"/>
      <point x="149" y="415"/>
      <point x="149" y="457" type="curve" smooth="yes"/>
      <point x="149" y="506"/>
      <point x="180" y="534"/>
      <point x="236" y="534" type="curve" smooth="yes"/>
      <point x="257" y="534"/>
      <point x="280" y="531"/>
      <point x="301" y="526" type="curve"/>
      <point x="314" y="591" type="line"/>
      <point x="284" y="598"/>
      <point x="259" y="602"/>
      <point x="225" y="602" type="curve" smooth="yes"/>
      <point x="135" y="602"/>
      <point x="74" y="546"/>
      <point x="74" y="465" type="curve" smooth="yes"/>
      <point x="74" y="405"/>
      <point x="107" y="360"/>
      <point x="153" y="314" type="curve"/>
      <point x="173" y="289" type="line"/>
      <point x="235" y="242"/>
      <point x="275" y="197"/>
      <point x="275" y="136" type="curve" smooth="yes"/>
      <point x="275" y="87"/>
      <point x="240" y="58"/>
      <point x="175" y="58" type="curve" smooth="yes"/>
      <point x="133" y="58"/>
      <point x="90" y="74"/>
      <point x="51" y="102" type="curve"/>
      <point x="16" y="43" type="line"/>
      <point x="66" y="9"/>
      <point x="130" y="-10"/>
    </contour>
    <contour>
      <point x="53" y="220" type="line"/>
      <point x="209" y="285" type="line"/>
      <point x="380" y="352" type="line"/>
      <point x="353" y="415" type="line"/>
      <point x="186" y="345" type="line"/>
      <point x="25" y="284" type="line"/>
    </contour>
  </outline>
</glyph>
<glyph name="khagujr" format="2">
  <advance width="585"/>
  <unicode hex="0A96"/>
  <outline>
    <contour>
      <point x="201" y="155" type="curve" smooth="yes"/>
      <point x="289" y="155"/>
      <point x="337" y="216"/>
      <point x="337" y="310" type="curve" smooth="yes"/>
      <point x="337" y="461" type="line"/>
      <point x="262" y="467" type="line"/>
      <point x="262" y="313" type="line" smooth="yes"/>
      <point x="262" y="287"/>
      <point x="258" y="258"/>
      <point x="245" y="241" type="curve" smooth="yes"/>
      <point x="236" y="230"/>
      <point x="225" y="223"/>
      <point x="202" y="223" type="curve" smooth="yes"/>
      <point x="180" y="223"/>
      <point x="167" y="230"/>
      <point x="157" y="243" type="curve" smooth="yes"/>
      <point x="145" y="259"/>
      <point x="141" y="284"/>
      <point x="141" y="319" type="curve" smooth="yes"/>
      <point x="141" y="475" type="line" smooth="yes"/>
      <point x="141" y="518"/>
      <point x="130" y="546"/>
      <point x="110" y="565" type="curve" smooth="yes"/>
      <point x="89" y="585"/>
      <point x="61" y="592"/>
      <point x="30" y="592" type="curve" smooth="yes"/>
      <point x="12" y="592" type="line"/>
      <point x="8" y="524" type="line"/>
      <point x="26" y="524"/>
      <point x="41" y="521"/>
      <point x="50" y="513" type="curve" smooth="yes"/>
      <point x="64" y="501"/>
      <point x="66" y="482"/>
      <point x="66" y="463" type="curve" smooth="yes"/>
      <point x="66" y="324" type="line" smooth="yes"/>
      <point x="66" y="258"/>
      <point x="78" y="223"/>
      <point x="101" y="196" type="curve" smooth="yes"/>
      <point x="122" y="171"/>
      <point x="156" y="155"/>
    </contour>
    <contour>
      <point x="380" y="264" type="curve" smooth="yes"/>
      <point x="415" y="264"/>
      <point x="443" y="280"/>
      <point x="464" y="304" type="curve"/>
      <point x="455" y="383" type="line"/>
      <point x="438" y="352"/>
      <point x="412" y="332"/>
      <point x="385" y="332" type="curve" smooth="yes"/>
      <point x="359" y="332"/>
      <point x="339" y="348"/>
      <point x="326" y="375" type="curve"/>
      <point x="292" y="321" type="line"/>
      <point x="306" y="290"/>
      <point x="340" y="264"/>
    </contour>
    <contour>
      <point x="553" y="0" type="curve" smooth="yes"/>
      <point x="573" y="0" type="line"/>
      <point x="577" y="68" type="line"/>
      <point x="553" y="68"/>
      <point x="541" y="72"/>
      <point x="532" y="79" type="curve" smooth="yes"/>
      <point x="519" y="89"/>
      <point x="514" y="104"/>
      <point x="514" y="129" type="curve" smooth="yes"/>
      <point x="514" y="592" type="line"/>
      <point x="439" y="602" type="line"/>
      <point x="439" y="117" type="line" smooth="yes"/>
      <point x="439" y="77"/>
      <point x="449" y="45"/>
      <point x="472" y="25" type="curve" smooth="yes"/>
      <point x="492" y="8"/>
      <point x="518" y="0"/>
    </contour>
  </outline>
</glyph>
<glyph name="gagujr" format="2">
  <advance width="522"/>
  <unicode hex="0A97"/>
  <outline>
    <contour>
      <point x="162" y="178" type="curve" smooth="yes"/>
      <point x="256" y="178"/>
      <point x="300" y="259"/>
      <point x="300" y="380" type="curve" smooth="yes"/>
      <point x="300" y="510"/>
      <point x="252" y="602"/>
      <point x="142" y="602" type="curve" smooth="yes"/>
      <point x="109" y="602"/>
      <point x="76" y="594"/>
      <point x="49" y="582" type="curve"/>
      <point x="71" y="520" type="line"/>
      <point x="91" y="528"/>
      <point x="113" y="534"/>
      <point x="133" y="534" type="curve" smooth="yes"/>
      <point x="201" y="534"/>
      <point x="225" y="476"/>
      <point x="225" y="380" type="curve" smooth="yes"/>
      <point x="225" y="299"/>
      <point x="207" y="246"/>
      <point x="153" y="246" type="curve" smooth="yes"/>
      <point x="114" y="246"/>
      <point x="91" y="276"/>
      <point x="69" y="341" type="curve"/>
      <point x="9" y="316" type="line"/>
      <point x="38" y="224"/>
      <point x="88" y="178"/>
    </contour>
    <contour>
      <point x="490" y="0" type="curve" smooth="yes"/>
      <point x="510" y="0" type="line"/>
      <point x="514" y="68" type="line"/>
      <point x="490" y="68"/>
      <point x="478" y="72"/>
      <point x="469" y="79" type="curve" smooth="yes"/>
      <point x="456" y="89"/>
      <point x="451" y="104"/>
      <point x="451" y="129" type="curve" smooth="yes"/>
      <point x="451" y="592" type="line"/>
      <point x="376" y="602" type="line"/>
      <point x="376" y="117" type="line" smooth="yes"/>
      <point x="376" y="77"/>
      <point x="386" y="45"/>
      <point x="409" y="25" type="curve" smooth="yes"/>
      <point x="429" y="8"/>
      <point x="455" y="0"/>
    </contour>
  </outline>
</glyph>
<glyph name="ngagujr" format="2">
  <advance width="394"/>
  <unicode hex="0A99"/>
  <outline>
    <contour>
      <point x="321" y="361" type="curve" smooth="yes"/>
      <point x="349" y="361"/>
      <point x="371" y="381"/>
      <point x="371" y="418" type="curve" smooth="yes"/>
      <point x="371" y="454"/>
      <point x="349" y="474"/>
      <point x="321" y="474" type="curve" smooth="yes"/>
      <point x="295" y="474"/>
      <point x="272" y="455"/>
      <point x="272" y="418" type="curve" smooth="yes"/>
      <point x="272" y="381"/>
      <point x="294" y="361"/>
    </contour>
    <contour>
      <point x="215" y="-10" type="curve" smooth="yes"/>
      <point x="307" y="-10"/>
      <point x="364" y="44"/>
      <point x="364" y="127" type="curve" smooth="yes"/>
      <point x="364" y="192"/>
      <point x="345" y="239"/>
      <point x="247" y="342" type="curve" smooth="yes"/>
      <point x="183" y="409"/>
      <point x="166" y="428"/>
      <point x="166" y="469" type="curve" smooth="yes"/>
      <point x="166" y="508"/>
      <point x="196" y="534"/>
      <point x="247" y="534" type="curve" smooth="yes"/>
      <point x="268" y="534"/>
      <point x="285" y="531"/>
      <point x="304" y="526" type="curve"/>
      <point x="319" y="591" type="line"/>
      <point x="294" y="598"/>
      <point x="268" y="602"/>
      <point x="242" y="602" type="curve" smooth="yes"/>
      <point x="146" y="602"/>
      <point x="90" y="550"/>
      <point x="90" y="473" type="curve" smooth="yes"/>
      <point x="90" y="417"/>
      <point x="111" y="373"/>
      <point x="194" y="290" type="curve" smooth="yes"/>
      <point x="268" y="216"/>
      <point x="286" y="176"/>
      <point x="286" y="132" type="curve" smooth="yes"/>
      <point x="286" y="83"/>
      <point x="261" y="58"/>
      <point x="212" y="58" type="curve" smooth="yes"/>
      <point x="153" y="58"/>
      <point x="118" y="94"/>
      <point x="78" y="172" type="curve"/>
      <point x="11" y="141" type="line"/>
      <point x="51" y="48"/>
      <point x="121" y="-10"/>
    </contour>
  </outline>
</glyph>
<glyph name="chagujr" format="2">
  <advance width="575"/>
  <unicode hex="0A9B"/>
  <outline>
    <contour>
      <point x="265" y="-10" type="curve" smooth="yes"/>
      <point x="430" y="-10"/>
      <point x="541" y="127"/>
      <point x="541" y="379" type="curve" smooth="yes"/>
      <point x="541" y="521"/>
      <point x="493" y="602"/>
      <point x="398" y="602" type="curve" smooth="yes"/>
      <point x="328" y="602"/>
      <point x="279" y="551"/>
      <point x="279" y="471" type="curve" smooth="yes"/>
      <point x="279" y="388"/>
      <point x="334" y="315"/>
      <point x="424" y="275" type="curve"/>
      <point x="447" y="344" type="line"/>
      <point x="390" y="369"/>
      <point x="354" y="414"/>
      <point x="354" y="469" type="curve" smooth="yes"/>
      <point x="354" y="511"/>
      <point x="373" y="535"/>
      <point x="403" y="535" type="curve" smooth="yes"/>
      <point x="447" y="535"/>
      <point x="465" y="477"/>
      <point x="465" y="379" type="curve" smooth="yes"/>
      <point x="465" y="174"/>
      <point x="386" y="59"/>
      <point x="262" y="59" type="curve" smooth="yes"/>
      <point x="180" y="59"/>
      <point x="134" y="105"/>
      <point x="134" y="179" type="curve" smooth="yes"/>
      <point x="134" y="248"/>
      <point x="169" y="288"/>
      <point x="232" y="288" type="curve" smooth="yes"/>
      <point x="238" y="288"/>
      <point x="246" y="288"/>
      <point x="256" y="287" type="curve"/>
      <point x="263" y="354" type="line"/>
      <point x="255" y="355"/>
      <point x="241" y="356"/>
      <point x="231" y="356" type="curve" smooth="yes"/>
      <point x="127" y="356"/>
      <point x="60" y="285"/>
      <point x="60" y="181" type="curve" smooth="yes"/>
      <point x="60" y="65"/>
      <point x="137" y="-10"/>
    </contour>
    <contour>
      <point x="121" y="287" type="curve"/>
      <point x="176" y="331" type="line"/>
      <point x="133" y="359"/>
      <point x="107" y="401"/>
      <point x="107" y="446" type="curve" smooth="yes"/>
      <point x="107" y="500"/>
      <point x="137" y="534"/>
      <point x="186" y="534" type="curve" smooth="yes"/>
      <point x="199" y="534"/>
      <point x="207" y="533"/>
      <point x="221" y="530" type="curve"/>
      <point x="230" y="596" type="line"/>
      <point x="213" y="600"/>
      <point x="196" y="602"/>
      <point x="179" y="602" type="curve" smooth="yes"/>
      <point x="90" y="602"/>
      <point x="32" y="544"/>
      <point x="32" y="455" type="curve" smooth="yes"/>
      <point x="32" y="392"/>
      <point x="63" y="333"/>
    </contour>
  </outline>
</glyph>
<glyph name="jagujr" format="2">
  <advance width="642"/>
  <unicode hex="0A9C"/>
  <outline>
    <contour>
      <point x="429" y="-10" type="curve" smooth="yes"/>
      <point x="516" y="-10"/>
      <point x="567" y="60"/>
      <point x="567" y="165" type="curve" smooth="yes"/>
      <point x="567" y="271"/>
      <point x="536" y="360"/>
      <point x="480" y="440" type="curve"/>
      <point x="405" y="547"/>
      <point x="318" y="602"/>
      <point x="210" y="602" type="curve" smooth="yes"/>
      <point x="97" y="602"/>
      <point x="27" y="531"/>
      <point x="27" y="428" type="curve" smooth="yes"/>
      <point x="27" y="337"/>
      <point x="78" y="279"/>
      <point x="156" y="279" type="curve" smooth="yes"/>
      <point x="246" y="279"/>
      <point x="287" y="338"/>
      <point x="287" y="414" type="curve" smooth="yes"/>
      <point x="287" y="465"/>
      <point x="269" y="522"/>
      <point x="236" y="564" type="curve"/>
      <point x="170" y="553" type="line"/>
      <point x="199" y="513"/>
      <point x="214" y="468"/>
      <point x="214" y="420" type="curve" smooth="yes"/>
      <point x="214" y="373"/>
      <point x="196" y="345"/>
      <point x="157" y="345" type="curve" smooth="yes"/>
      <point x="121" y="345"/>
      <point x="99" y="376"/>
      <point x="99" y="428" type="curve" smooth="yes"/>
      <point x="99" y="487"/>
      <point x="125" y="538"/>
      <point x="208" y="538" type="curve" smooth="yes"/>
      <point x="300" y="538"/>
      <point x="375" y="479"/>
      <point x="430" y="394" type="curve" smooth="yes"/>
      <point x="473" y="328"/>
      <point x="492" y="247"/>
      <point x="492" y="167" type="curve" smooth="yes"/>
      <point x="492" y="101"/>
      <point x="470" y="57"/>
      <point x="427" y="57" type="curve" smooth="yes"/>
      <point x="383" y="57"/>
      <point x="362" y="94"/>
      <point x="362" y="156" type="curve" smooth="yes"/>
      <point x="362" y="241"/>
      <point x="403" y="315"/>
      <point x="471" y="390" type="curve" smooth="yes"/>
      <point x="518" y="441"/>
      <point x="574" y="493"/>
      <point x="643" y="550" type="curve"/>
      <point x="597" y="603" type="line"/>
      <point x="536" y="550"/>
      <point x="482" y="499"/>
      <point x="434" y="448" type="curve" smooth="yes"/>
      <point x="347" y="354"/>
      <point x="288" y="267"/>
      <point x="288" y="156" type="curve" smooth="yes"/>
      <point x="288" y="51"/>
      <point x="343" y="-10"/>
    </contour>
  </outline>
</glyph>
<glyph name="jhagujr" format="2">
  <advance width="559"/>
  <unicode hex="0A9D"/>
  <outline>
    <contour>
      <point x="167" y="-10" type="curve" smooth="yes"/>
      <point x="270" y="-10"/>
      <point x="326" y="76"/>
      <point x="326" y="235" type="curve" smooth="yes"/>
      <point x="326" y="397"/>
      <point x="258" y="492"/>
      <point x="143" y="492" type="curve" smooth="yes"/>
      <point x="108" y="492"/>
      <point x="77" y="485"/>
      <point x="44" y="472" type="curve"/>
      <point x="66" y="410" type="line"/>
      <point x="89" y="419"/>
      <point x="111" y="424"/>
      <point x="138" y="424" type="curve" smooth="yes"/>
      <point x="212" y="424"/>
      <point x="251" y="359"/>
      <point x="251" y="235" type="curve" smooth="yes"/>
      <point x="251" y="118"/>
      <point x="220" y="58"/>
      <point x="161" y="58" type="curve" smooth="yes"/>
      <point x="114" y="58"/>
      <point x="90" y="89"/>
      <point x="74" y="138" type="curve"/>
      <point x="12" y="115" type="line"/>
      <point x="39" y="31"/>
      <point x="92" y="-10"/>
    </contour>
    <contour>
      <point x="446" y="-6" type="line"/>
      <point x="508" y="69"/>
      <point x="532" y="144"/>
      <point x="532" y="228" type="curve" smooth="yes"/>
      <point x="532" y="342"/>
      <point x="478" y="412"/>
      <point x="377" y="412" type="curve" smooth="yes"/>
      <point x="331" y="412"/>
      <point x="290" y="393"/>
      <point x="256" y="362" type="curve"/>
      <point x="289" y="298" type="line"/>
      <point x="318" y="326"/>
      <point x="344" y="346"/>
      <point x="379" y="346" type="curve" smooth="yes"/>
      <point x="432" y="346"/>
      <point x="457" y="303"/>
      <point x="457" y="228" type="curve" smooth="yes"/>
      <point x="457" y="157"/>
      <point x="431" y="102"/>
      <point x="380" y="42" type="curve"/>
    </contour>
    <contour>
      <point x="363" y="388" type="line"/>
      <point x="438" y="388" type="line"/>
      <point x="438" y="592" type="line"/>
      <point x="363" y="602" type="line"/>
    </contour>
  </outline>
</glyph>
<glyph name="ttagujr" format="2">
  <advance width="357"/>
  <unicode hex="0A9F"/>
  <outline>
    <contour>
      <point x="210" y="-10" type="curve" smooth="yes"/>
      <point x="271" y="-10"/>
      <point x="314" y="3"/>
      <point x="360" y="31" type="curve"/>
      <point x="327" y="95" type="line"/>
      <point x="290" y="71"/>
      <point x="255" y="58"/>
      <point x="212" y="58" type="curve" smooth="yes"/>
      <point x="147" y="58"/>
      <point x="109" y="92"/>
      <point x="109" y="149" type="curve" smooth="yes"/>
      <point x="109" y="209"/>
      <point x="145" y="253"/>
      <point x="217" y="309" type="curve" smooth="yes"/>
      <point x="288" y="364"/>
      <point x="325" y="405"/>
      <point x="325" y="477" type="curve" smooth="yes"/>
      <point x="325" y="547"/>
      <point x="273" y="602"/>
      <point x="182" y="602" type="curve" smooth="yes"/>
      <point x="143" y="602"/>
      <point x="104" y="594"/>
      <point x="70" y="579" type="curve"/>
      <point x="93" y="515" type="line"/>
      <point x="121" y="527"/>
      <point x="147" y="534"/>
      <point x="176" y="534" type="curve" smooth="yes"/>
      <point x="223" y="534"/>
      <point x="250" y="513"/>
      <point x="250" y="475" type="curve" smooth="yes"/>
      <point x="250" y="432"/>
      <point x="222" y="405"/>
      <point x="155" y="353" type="curve" smooth="yes"/>
      <point x="87" y="300"/>
      <point x="32" y="239"/>
      <point x="32" y="155" type="curve" smooth="yes"/>
      <point x="32" y="53"/>
      <point x="101" y="-10"/>
    </contour>
  </outline>
</glyph>
<glyph name="tthagujr" format="2">
  <advance width="404"/>
  <unicode hex="0AA0"/>
  <outline>
    <contour>
      <point x="208" y="-10" type="curve" smooth="yes"/>
      <point x="315" y="-10"/>
      <point x="381" y="49"/>
      <point x="381" y="156" type="curve" smooth="yes"/>
      <point x="381" y="241"/>
      <point x="336" y="299"/>
      <point x="263" y="366" type="curve" smooth="yes"/>
      <point x="198" y="425"/>
      <point x="176" y="447"/>
      <point x="176" y="482" type="curve" smooth="yes"/>
      <point x="176" y="517"/>
      <point x="207" y="534"/>
      <point x="250" y="534" type="curve" smooth="yes"/>
      <point x="270" y="534"/>
      <point x="294" y="531"/>
      <point x="308" y="527" type="curve"/>
      <point x="324" y="593" type="line"/>
      <point x="303" y="599"/>
      <point x="273" y="602"/>
      <point x="245" y="602" type="curve" smooth="yes"/>
      <point x="160" y="602"/>
      <point x="101" y="560"/>
      <point x="101" y="483" type="curve" smooth="yes"/>
      <point x="101" y="423"/>
      <point x="140" y="383"/>
      <point x="186" y="341" type="curve"/>
      <point x="215" y="315" type="line"/>
      <point x="266" y="276"/>
      <point x="305" y="224"/>
      <point x="305" y="161" type="curve" smooth="yes"/>
      <point x="305" y="97"/>
      <point x="274" y="58"/>
      <point x="207" y="58" type="curve" smooth="yes"/>
      <point x="146" y="58"/>
      <point x="108" y="93"/>
      <point x="108" y="162" type="curve" smooth="yes"/>
      <point x="108" y="255"/>
      <point x="175" y="304"/>
      <point x="245" y="304" type="curve"/>
      <point x="258" y="304"/>
      <point x="266" y="303"/>
      <point x="278" y="301" type="curve"/>
      <point x="276" y="329" type="line"/>
      <point x="226" y="366" type="line"/>
      <point x="135" y="355"/>
      <point x="32" y="296"/>
      <point x="32" y="161" type="curve" smooth="yes"/>
      <point x="32" y="62"/>
      <point x="92" y="-10"/>
    </contour>
  </outline>
</glyph>
<glyph name="ddhagujr" format="2">
  <advance width="412"/>
  <unicode hex="0AA2"/>
  <outline>
    <contour>
      <point x="219" y="-10" type="curve" smooth="yes"/>
      <point x="330" y="-10"/>
      <point x="396" y="51"/>
      <point x="396" y="148" type="curve" smooth="yes"/>
      <point x="396" y="220"/>
      <point x="356" y="267"/>
      <point x="286" y="267" type="curve" smooth="yes"/>
      <point x="217" y="267"/>
      <point x="171" y="218"/>
      <point x="171" y="146" type="curve" smooth="yes"/>
      <point x="171" y="103"/>
      <point x="184" y="64"/>
      <point x="213" y="10" type="curve"/>
      <point x="276" y="22" type="line"/>
      <point x="249" y="65"/>
      <point x="238" y="94"/>
      <point x="238" y="135" type="curve" smooth="yes"/>
      <point x="238" y="175"/>
      <point x="258" y="202"/>
      <point x="287" y="202" type="curve" smooth="yes"/>
      <point x="315" y="202"/>
      <point x="327" y="179"/>
      <point x="327" y="146" type="curve" smooth="yes"/>
      <point x="327" y="91"/>
      <point x="294" y="55"/>
      <point x="231" y="55" type="curve" smooth="yes"/>
      <point x="217" y="55" type="line" smooth="yes"/>
      <point x="150" y="55"/>
      <point x="107" y="90"/>
      <point x="107" y="159" type="curve" smooth="yes"/>
      <point x="107" y="218"/>
      <point x="134" y="257"/>
      <point x="199" y="305" type="curve" smooth="yes"/>
      <point x="218" y="319" type="line" smooth="yes"/>
      <point x="285" y="368"/>
      <point x="327" y="408"/>
      <point x="327" y="475" type="curve" smooth="yes"/>
      <point x="327" y="546"/>
      <point x="275" y="602"/>
      <point x="183" y="602" type="curve" smooth="yes"/>
      <point x="148" y="602"/>
      <point x="106" y="593"/>
      <point x="72" y="579" type="curve"/>
      <point x="95" y="515" type="line"/>
      <point x="121" y="527"/>
      <point x="150" y="534"/>
      <point x="178" y="534" type="curve" smooth="yes"/>
      <point x="224" y="534"/>
      <point x="252" y="515"/>
      <point x="252" y="475" type="curve" smooth="yes"/>
      <point x="252" y="437"/>
      <point x="220" y="411"/>
      <point x="173" y="375" type="curve" smooth="yes"/>
      <point x="152" y="359" type="line" smooth="yes"/>
      <point x="66" y="293"/>
      <point x="32" y="236"/>
      <point x="32" y="164" type="curve" smooth="yes"/>
      <point x="32" y="59"/>
      <point x="97" y="-10"/>
    </contour>
  </outline>
</glyph>
<glyph name="tagujr" format="2">
  <advance width="442"/>
  <unicode hex="0AA4"/>
  <outline>
    <contour>
      <point x="161" y="5" type="curve"/>
      <point x="215" y="52" type="line"/>
      <point x="147" y="122"/>
      <point x="105" y="189"/>
      <point x="105" y="255" type="curve" smooth="yes"/>
      <point x="105" y="286"/>
      <point x="114" y="311"/>
      <point x="131" y="329" type="curve" smooth="yes"/>
      <point x="151" y="351"/>
      <point x="183" y="363"/>
      <point x="244" y="363" type="curve" smooth="yes"/>
      <point x="314" y="363" type="line"/>
      <point x="314" y="431" type="line"/>
      <point x="233" y="431" type="line" smooth="yes"/>
      <point x="159" y="431"/>
      <point x="111" y="415"/>
      <point x="77" y="382" type="curve" smooth="yes"/>
      <point x="48" y="353"/>
      <point x="30" y="313"/>
      <point x="30" y="263" type="curve" smooth="yes"/>
      <point x="30" y="169"/>
      <point x="82" y="87"/>
    </contour>
    <contour>
      <point x="410" y="0" type="curve" smooth="yes"/>
      <point x="430" y="0" type="line"/>
      <point x="434" y="68" type="line"/>
      <point x="410" y="68"/>
      <point x="398" y="72"/>
      <point x="389" y="79" type="curve" smooth="yes"/>
      <point x="376" y="89"/>
      <point x="371" y="104"/>
      <point x="371" y="129" type="curve" smooth="yes"/>
      <point x="371" y="592" type="line"/>
      <point x="296" y="602" type="line"/>
      <point x="296" y="117" type="line" smooth="yes"/>
      <point x="296" y="77"/>
      <point x="306" y="45"/>
      <point x="329" y="25" type="curve" smooth="yes"/>
      <point x="349" y="8"/>
      <point x="375" y="0"/>
    </contour>
  </outline>
</glyph>
<glyph name="thagujr" format="2">
  <advance width="498"/>
  <unicode hex="0AA5"/>
  <outline>
    <contour>
      <point x="235" y="146" type="curve" smooth="yes"/>
      <point x="300" y="146"/>
      <point x="342" y="165"/>
      <point x="376" y="190" type="curve"/>
      <point x="376" y="280" type="line"/>
      <point x="340" y="244"/>
      <point x="298" y="214"/>
      <point x="235" y="214" type="curve" smooth="yes"/>
      <point x="183" y="214"/>
      <point x="143" y="238"/>
      <point x="122" y="292" type="curve"/>
      <point x="111" y="276" type="line"/>
      <point x="211" y="321"/>
      <point x="269" y="377"/>
      <point x="269" y="475" type="curve" smooth="yes"/>
      <point x="269" y="545"/>
      <point x="229" y="602"/>
      <point x="150" y="602" type="curve" smooth="yes"/>
      <point x="77" y="602"/>
      <point x="32" y="554"/>
      <point x="32" y="488" type="curve" smooth="yes"/>
      <point x="32" y="440"/>
      <point x="52" y="406"/>
      <point x="87" y="376" type="curve"/>
      <point x="135" y="420" type="line"/>
      <point x="112" y="442"/>
      <point x="103" y="462"/>
      <point x="103" y="486" type="curve" smooth="yes"/>
      <point x="103" y="518"/>
      <point x="122" y="538"/>
      <point x="151" y="538" type="curve" smooth="yes"/>
      <point x="180" y="538"/>
      <point x="197" y="516"/>
      <point x="197" y="478" type="curve" smooth="yes"/>
      <point x="197" y="405"/>
      <point x="139" y="360"/>
      <point x="38" y="320" type="curve"/>
      <point x="68" y="206"/>
      <point x="137" y="146"/>
    </contour>
    <contour>
      <point x="466" y="0" type="curve" smooth="yes"/>
      <point x="486" y="0" type="line"/>
      <point x="490" y="68" type="line"/>
      <point x="466" y="68"/>
      <point x="454" y="72"/>
      <point x="445" y="79" type="curve" smooth="yes"/>
      <point x="432" y="89"/>
      <point x="427" y="104"/>
      <point x="427" y="129" type="curve" smooth="yes"/>
      <point x="427" y="592" type="line"/>
      <point x="352" y="602" type="line"/>
      <point x="352" y="117" type="line" smooth="yes"/>
      <point x="352" y="77"/>
      <point x="362" y="45"/>
      <point x="385" y="25" type="curve" smooth="yes"/>
      <point x="405" y="8"/>
      <point x="431" y="0"/>
    </contour>
  </outline>
</glyph>
<glyph name="dhagujr" format="2">
  <advance width="482"/>
  <unicode hex="0AA7"/>
  <outline>
    <contour>
      <point x="235" y="107" type="curve" smooth="yes"/>
      <point x="275" y="107"/>
      <point x="324" y="121"/>
      <point x="355" y="146" type="curve"/>
      <point x="355" y="230" type="line"/>
      <point x="321" y="195"/>
      <point x="280" y="175"/>
      <point x="237" y="175" type="curve" smooth="yes"/>
      <point x="179" y="175"/>
      <point x="140" y="206"/>
      <point x="140" y="261" type="curve" smooth="yes"/>
      <point x="140" y="311"/>
      <point x="174" y="341"/>
      <point x="225" y="341" type="curve" smooth="yes"/>
      <point x="235" y="341"/>
      <point x="246" y="340"/>
      <point x="250" y="339" type="curve"/>
      <point x="261" y="405" type="line"/>
      <point x="251" y="407"/>
      <point x="236" y="408"/>
      <point x="223" y="408" type="curve" smooth="yes"/>
      <point x="126" y="408"/>
      <point x="65" y="345"/>
      <point x="65" y="260" type="curve" smooth="yes"/>
      <point x="65" y="174"/>
      <point x="127" y="107"/>
    </contour>
    <contour>
      <point x="120" y="322" type="curve"/>
      <point x="169" y="370" type="line"/>
      <point x="132" y="401"/>
      <point x="111" y="429"/>
      <point x="111" y="467" type="curve" smooth="yes"/>
      <point x="111" y="514"/>
      <point x="150" y="544"/>
      <point x="218" y="575" type="curve"/>
      <point x="180" y="644" type="line"/>
      <point x="87" y="602"/>
      <point x="34" y="550"/>
      <point x="34" y="477" type="curve" smooth="yes"/>
      <point x="34" y="411"/>
      <point x="72" y="361"/>
    </contour>
    <contour>
      <point x="450" y="0" type="curve" smooth="yes"/>
      <point x="470" y="0" type="line"/>
      <point x="474" y="68" type="line"/>
      <point x="450" y="68"/>
      <point x="438" y="72"/>
      <point x="429" y="79" type="curve" smooth="yes"/>
      <point x="416" y="89"/>
      <point x="411" y="104"/>
      <point x="411" y="129" type="curve" smooth="yes"/>
      <point x="411" y="592" type="line"/>
      <point x="336" y="602" type="line"/>
      <point x="336" y="117" type="line" smooth="yes"/>
      <point x="336" y="77"/>
      <point x="346" y="45"/>
      <point x="369" y="25" type="curve" smooth="yes"/>
      <point x="389" y="8"/>
      <point x="415" y="0"/>
    </contour>
  </outline>
</glyph>
<glyph name="bagujr" format="2">
  <advance width="574"/>
  <unicode hex="0AAC"/>
  <outline>
    <contour>
      <point x="181" y="153" type="curve" smooth="yes"/>
      <point x="270" y="153"/>
      <point x="329" y="212"/>
      <point x="329" y="352" type="curve" smooth="yes"/>
      <point x="329" y="421" type="line"/>
      <point x="254" y="430" type="line"/>
      <point x="254" y="342" type="line" smooth="yes"/>
      <point x="254" y="300"/>
      <point x="247" y="268"/>
      <point x="233" y="248" type="curve" smooth="yes"/>
      <point x="221" y="230"/>
      <point x="203" y="221"/>
      <point x="181" y="221" type="curve" smooth="yes"/>
      <point x="135" y="221"/>
      <point x="108" y="261"/>
      <point x="108" y="330" type="curve" smooth="yes"/>
      <point x="108" y="413"/>
      <point x="143" y="482"/>
      <point x="218" y="549" type="curve"/>
      <point x="167" y="602" type="line"/>
      <point x="74" y="521"/>
      <point x="32" y="435"/>
      <point x="32" y="331" type="curve" smooth="yes"/>
      <point x="32" y="224"/>
      <point x="92" y="153"/>
    </contour>
    <contour>
      <point x="370" y="230" type="curve" smooth="yes"/>
      <point x="398" y="230"/>
      <point x="425" y="242"/>
      <point x="443" y="261" type="curve"/>
      <point x="436" y="340" type="line"/>
      <point x="420" y="313"/>
      <point x="398" y="298"/>
      <point x="373" y="298" type="curve" smooth="yes"/>
      <point x="352" y="298"/>
      <point x="331" y="310"/>
      <point x="318" y="331" type="curve"/>
      <point x="292" y="264" type="line"/>
      <point x="313" y="243"/>
      <point x="342" y="230"/>
    </contour>
    <contour>
      <point x="542" y="0" type="curve" smooth="yes"/>
      <point x="562" y="0" type="line"/>
      <point x="566" y="68" type="line"/>
      <point x="542" y="68"/>
      <point x="530" y="72"/>
      <point x="521" y="79" type="curve" smooth="yes"/>
      <point x="508" y="89"/>
      <point x="503" y="104"/>
      <point x="503" y="129" type="curve" smooth="yes"/>
      <point x="503" y="592" type="line"/>
      <point x="428" y="602" type="line"/>
      <point x="428" y="117" type="line" smooth="yes"/>
      <point x="428" y="77"/>
      <point x="438" y="45"/>
      <point x="461" y="25" type="curve" smooth="yes"/>
      <point x="481" y="8"/>
      <point x="507" y="0"/>
    </contour>
  </outline>
</glyph>
<glyph name="ragujr" format="2">
  <advance width="343"/>
  <unicode hex="0AB0"/>
  <outline>
    <contour>
      <point x="314" y="0" type="curve" smooth="yes"/>
      <point x="330" y="0" type="line"/>
      <point x="335" y="70" type="line"/>
      <point x="320" y="70" type="line" smooth="yes"/>
      <point x="264" y="70"/>
      <point x="219" y="96"/>
      <point x="147" y="233" type="curve"/>
      <point x="152" y="243" type="line"/>
      <point x="126" y="286"/>
      <point x="104" y="303"/>
      <point x="76" y="303" type="curve" smooth="yes"/>
      <point x="43" y="303"/>
      <point x="21" y="282"/>
      <point x="21" y="252" type="curve" smooth="yes"/>
      <point x="21" y="213"/>
      <point x="54" y="187"/>
      <point x="104" y="187" type="curve" smooth="yes"/>
      <point x="210" y="187"/>
      <point x="305" y="276"/>
      <point x="305" y="404" type="curve" smooth="yes"/>
      <point x="305" y="528"/>
      <point x="233" y="603"/>
      <point x="125" y="603" type="curve" smooth="yes"/>
      <point x="88" y="603"/>
      <point x="55" y="597"/>
      <point x="21" y="585" type="curve"/>
      <point x="41" y="521" type="line"/>
      <point x="66" y="530"/>
      <point x="93" y="535"/>
      <point x="117" y="535" type="curve" smooth="yes"/>
      <point x="186" y="535"/>
      <point x="230" y="488"/>
      <point x="230" y="403" type="curve" smooth="yes"/>
      <point x="230" y="312"/>
      <point x="168" y="264"/>
      <point x="100" y="256" type="curve"/>
      <point x="83" y="215" type="line"/>
      <point x="158" y="57"/>
      <point x="228" y="0"/>
    </contour>
  </outline>
</glyph>
<glyph name="lagujr" format="2">
  <advance width="505"/>
  <unicode hex="0AB2"/>
  <outline>
    <contour>
      <point x="238" y="99" type="curve" smooth="yes"/>
      <point x="267" y="99"/>
      <point x="295" y="104"/>
      <point x="319" y="113" type="curve"/>
      <point x="299" y="178" type="line"/>
      <point x="282" y="171"/>
      <point x="260" y="167"/>
      <point x="240" y="167" type="curve" smooth="yes"/>
      <point x="159" y="167"/>
      <point x="107" y="230"/>
      <point x="107" y="330" type="curve" smooth="yes"/>
      <point x="107" y="435"/>
      <point x="174" y="497"/>
      <point x="261" y="534" type="curve"/>
      <point x="238" y="602" type="line"/>
      <point x="119" y="558"/>
      <point x="32" y="462"/>
      <point x="32" y="330" type="curve" smooth="yes"/>
      <point x="32" y="190"/>
      <point x="117" y="99"/>
    </contour>
    <contour>
      <point x="205" y="295" type="line"/>
      <point x="381" y="344" type="line"/>
      <point x="381" y="418" type="line"/>
      <point x="188" y="364" type="line"/>
    </contour>
    <contour>
      <point x="473" y="0" type="curve" smooth="yes"/>
      <point x="493" y="0" type="line"/>
      <point x="497" y="68" type="line"/>
      <point x="473" y="68"/>
      <point x="461" y="72"/>
      <point x="452" y="79" type="curve" smooth="yes"/>
      <point x="439" y="89"/>
      <point x="434" y="104"/>
      <point x="434" y="129" type="curve" smooth="yes"/>
      <point x="434" y="592" type="line"/>
      <point x="359" y="602" type="line"/>
      <point x="359" y="117" type="line" smooth="yes"/>
      <point x="359" y="77"/>
      <point x="369" y="45"/>
      <point x="392" y="25" type="curve" smooth="yes"/>
      <point x="412" y="8"/>
      <point x="438" y="0"/>
    </contour>
  </outline>
</glyph>
<glyph name="vagujr" format="2">
  <advance width="444"/>
  <unicode hex="0AB5"/>
  <outline>
    <contour>
      <point x="217" y="162" type="curve" smooth="yes"/>
      <point x="254" y="162"/>
      <point x="288" y="171"/>
      <point x="313" y="187" type="curve"/>
      <point x="313" y="272" type="line"/>
      <point x="288" y="245"/>
      <point x="254" y="230"/>
      <point x="218" y="230" type="curve" smooth="yes"/>
      <point x="149" y="230"/>
      <point x="107" y="277"/>
      <point x="107" y="354" type="curve" smooth="yes"/>
      <point x="107" y="430"/>
      <point x="148" y="478"/>
      <point x="214" y="478" type="curve" smooth="yes"/>
      <point x="226" y="478"/>
      <point x="238" y="477"/>
      <point x="249" y="475" type="curve"/>
      <point x="254" y="542" type="line"/>
      <point x="244" y="544"/>
      <point x="228" y="546"/>
      <point x="211" y="546" type="curve" smooth="yes"/>
      <point x="102" y="546"/>
      <point x="32" y="471"/>
      <point x="32" y="356" type="curve" smooth="yes"/>
      <point x="32" y="236"/>
      <point x="103" y="162"/>
    </contour>
    <contour>
      <point x="412" y="0" type="curve" smooth="yes"/>
      <point x="432" y="0" type="line"/>
      <point x="436" y="68" type="line"/>
      <point x="412" y="68"/>
      <point x="400" y="72"/>
      <point x="391" y="79" type="curve" smooth="yes"/>
      <point x="378" y="89"/>
      <point x="373" y="104"/>
      <point x="373" y="129" type="curve" smooth="yes"/>
      <point x="373" y="592" type="line"/>
      <point x="298" y="602" type="line"/>
      <point x="298" y="117" type="line" smooth="yes"/>
      <point x="298" y="77"/>
      <point x="308" y="45"/>
      <point x="331" y="25" type="curve" smooth="yes"/>
      <point x="351" y="8"/>
      <point x="377" y="0"/>
    </contour>
  </outline>
</glyph>
<glyph name="shagujr" format="2">
  <advance width="540"/>
  <unicode hex="0AB6"/>
  <outline>
    <contour>
      <point x="297" y="0" type="curve" smooth="yes"/>
      <point x="312" y="0" type="line"/>
      <point x="318" y="70" type="line"/>
      <point x="307" y="70" type="line" smooth="yes"/>
      <point x="248" y="70"/>
      <point x="210" y="98"/>
      <point x="149" y="217" type="curve"/>
      <point x="154" y="227" type="line"/>
      <point x="128" y="270"/>
      <point x="106" y="287"/>
      <point x="80" y="287" type="curve" smooth="yes"/>
      <point x="44" y="287"/>
      <point x="23" y="267"/>
      <point x="23" y="235" type="curve" smooth="yes"/>
      <point x="23" y="190"/>
      <point x="62" y="172"/>
      <point x="107" y="172" type="curve" smooth="yes"/>
      <point x="226" y="172"/>
      <point x="315" y="275"/>
      <point x="315" y="411" type="curve" smooth="yes"/>
      <point x="315" y="526"/>
      <point x="262" y="602"/>
      <point x="170" y="602" type="curve" smooth="yes"/>
      <point x="94" y="602"/>
      <point x="42" y="549"/>
      <point x="42" y="477" type="curve" smooth="yes"/>
      <point x="42" y="407"/>
      <point x="88" y="352"/>
      <point x="178" y="333" type="curve"/>
      <point x="196" y="397" type="line"/>
      <point x="144" y="405"/>
      <point x="115" y="430"/>
      <point x="115" y="476" type="curve" smooth="yes"/>
      <point x="115" y="510"/>
      <point x="136" y="536"/>
      <point x="170" y="536" type="curve" smooth="yes"/>
      <point x="218" y="536"/>
      <point x="240" y="491"/>
      <point x="240" y="415" type="curve" smooth="yes"/>
      <point x="240" y="316"/>
      <point x="196" y="257"/>
      <point x="109" y="240" type="curve"/>
      <point x="88" y="199" type="line"/>
      <point x="159" y="45"/>
      <point x="220" y="0"/>
    </contour>
    <contour>
      <point x="508" y="0" type="curve" smooth="yes"/>
      <point x="528" y="0" type="line"/>
      <point x="532" y="68" type="line"/>
      <point x="508" y="68"/>
      <point x="496" y="72"/>
      <point x="487" y="79" type="curve" smooth="yes"/>
      <point x="474" y="89"/>
      <point x="469" y="104"/>
      <point x="469" y="129" type="curve" smooth="yes"/>
      <point x="469" y="592" type="line"/>
      <point x="394" y="602" type="line"/>
      <point x="394" y="117" type="line" smooth="yes"/>
      <point x="394" y="77"/>
      <point x="404" y="45"/>
      <point x="427" y="25" type="curve" smooth="yes"/>
      <point x="447" y="8"/>
      <point x="473" y="0"/>
    </contour>
  </outline>
</glyph>
<glyph name="sagujr" format="2">
  <advance width="552"/>
  <unicode hex="0AB8"/>
  <outline>
    <contour>
      <point x="314" y="0" type="curve" smooth="yes"/>
      <point x="330" y="0" type="line"/>
      <point x="335" y="70" type="line"/>
      <point x="320" y="70" type="line" smooth="yes"/>
      <point x="264" y="70"/>
      <point x="219" y="96"/>
      <point x="147" y="233" type="curve"/>
      <point x="152" y="243" type="line"/>
      <point x="126" y="286"/>
      <point x="104" y="303"/>
      <point x="76" y="303" type="curve" smooth="yes"/>
      <point x="43" y="303"/>
      <point x="21" y="282"/>
      <point x="21" y="252" type="curve" smooth="yes"/>
      <point x="21" y="213"/>
      <point x="54" y="187"/>
      <point x="104" y="187" type="curve" smooth="yes"/>
      <point x="210" y="187"/>
      <point x="305" y="275"/>
      <point x="305" y="404" type="curve" smooth="yes"/>
      <point x="305" y="527"/>
      <point x="233" y="602"/>
      <point x="125" y="602" type="curve" smooth="yes"/>
      <point x="88" y="602"/>
      <point x="55" y="596"/>
      <point x="21" y="584" type="curve"/>
      <point x="41" y="520" type="line"/>
      <point x="66" y="529"/>
      <point x="93" y="534"/>
      <point x="117" y="534" type="curve" smooth="yes"/>
      <point x="186" y="534"/>
      <point x="230" y="487"/>
      <point x="230" y="403" type="curve" smooth="yes"/>
      <point x="230" y="312"/>
      <point x="168" y="264"/>
      <point x="100" y="256" type="curve"/>
      <point x="86" y="215" type="line"/>
      <point x="161" y="57"/>
      <point x="228" y="0"/>
    </contour>
    <contour>
      <point x="342" y="286" type="curve" smooth="yes"/>
      <point x="379" y="286"/>
      <point x="409" y="294"/>
      <point x="434" y="315" type="curve"/>
      <point x="426" y="390" type="line"/>
      <point x="398" y="362"/>
      <point x="378" y="354"/>
      <point x="339" y="354" type="curve" smooth="yes"/>
      <point x="315" y="354"/>
      <point x="292" y="361"/>
      <point x="272" y="377" type="curve"/>
      <point x="259" y="306" type="line"/>
      <point x="282" y="293"/>
      <point x="310" y="286"/>
    </contour>
    <contour>
      <point x="520" y="0" type="curve" smooth="yes"/>
      <point x="540" y="0" type="line"/>
      <point x="544" y="68" type="line"/>
      <point x="520" y="68"/>
      <point x="508" y="72"/>
      <point x="499" y="79" type="curve" smooth="yes"/>
      <point x="486" y="89"/>
      <point x="481" y="104"/>
      <point x="481" y="129" type="curve" smooth="yes"/>
      <point x="481" y="592" type="line"/>
      <point x="406" y="602" type="line"/>
      <point x="406" y="117" type="line" smooth="yes"/>
      <point x="406" y="77"/>
      <point x="416" y="45"/>
      <point x="439" y="25" type="curve" smooth="yes"/>
      <point x="459" y="8"/>
      <point x="485" y="0"/>
    </contour>
  </outline>
</glyph>
<glyph name="hagujr" format="2">
  <advance width="478"/>
  <unicode hex="0AB9"/>
  <outline>
    <contour>
      <point x="314" y="-10" type="curve" smooth="yes"/>
      <point x="372" y="-10"/>
      <point x="425" y="1"/>
      <point x="475" y="25" type="curve"/>
      <point x="449" y="92" type="line"/>
      <point x="403" y="69"/>
      <point x="367" y="59"/>
      <point x="314" y="59" type="curve" smooth="yes"/>
      <point x="190" y="59"/>
      <point x="113" y="143"/>
      <point x="113" y="278" type="curve" smooth="yes"/>
      <point x="113" y="338"/>
      <point x="126" y="391"/>
      <point x="147" y="439" type="curve"/>
      <point x="74" y="464" type="line"/>
      <point x="48" y="405"/>
      <point x="36" y="345"/>
      <point x="36" y="282" type="curve" smooth="yes"/>
      <point x="36" y="105"/>
      <point x="146" y="-10"/>
    </contour>
    <contour>
      <point x="315" y="160" type="curve" smooth="yes"/>
      <point x="390" y="160"/>
      <point x="437" y="208"/>
      <point x="437" y="274" type="curve" smooth="yes"/>
      <point x="437" y="331"/>
      <point x="404" y="367"/>
      <point x="344" y="418" type="curve" smooth="yes"/>
      <point x="300" y="455"/>
      <point x="284" y="471"/>
      <point x="284" y="494" type="curve" smooth="yes"/>
      <point x="284" y="521"/>
      <point x="307" y="534"/>
      <point x="342" y="534" type="curve" smooth="yes"/>
      <point x="357" y="534"/>
      <point x="373" y="532"/>
      <point x="384" y="529" type="curve"/>
      <point x="393" y="595" type="line"/>
      <point x="378" y="599"/>
      <point x="355" y="602"/>
      <point x="335" y="602" type="curve" smooth="yes"/>
      <point x="264" y="602"/>
      <point x="209" y="563"/>
      <point x="209" y="498" type="curve" smooth="yes"/>
      <point x="209" y="446"/>
      <point x="238" y="415"/>
      <point x="291" y="371" type="curve" smooth="yes"/>
      <point x="336" y="334"/>
      <point x="362" y="310"/>
      <point x="362" y="274" type="curve" smooth="yes"/>
      <point x="362" y="246"/>
      <point x="343" y="228"/>
      <point x="311" y="228" type="curve" smooth="yes"/>
      <point x="276" y="228"/>
      <point x="245" y="247"/>
      <point x="213" y="291" type="curve"/>
      <point x="156" y="254" type="line"/>
      <point x="192" y="198"/>
      <point x="245" y="160"/>
    </contour>
  </outline>
</glyph>
<glyph name="nuktagujr" format="2">
  <unicode hex="0ABC"/>
  <outline>
    <contour>
      <point x="-200" y="-192" type="curve" smooth="yes"/>
      <point x="-170" y="-192"/>
      <point x="-145" y="-167"/>
      <point x="-145" y="-134" type="curve" smooth="yes"/>
      <point x="-145" y="-102"/>
      <point x="-170" y="-76"/>
      <point x="-200" y="-76" type="curve" smooth="yes"/>
      <point x="-231" y="-76"/>
      <point x="-256" y="-102"/>
      <point x="-256" y="-134" type="curve" smooth="yes"/>
      <point x="-256" y="-167"/>
      <point x="-231" y="-192"/>
    </contour>
  </outline>
</glyph>
<glyph name="avagrahagujr" format="2">
  <advance width="380"/>
  <unicode hex="0ABD"/>
  <outline>
    <contour>
      <point x="209" y="38" type="curve" smooth="yes"/>
      <point x="294" y="38"/>
      <point x="346" y="95"/>
      <point x="346" y="173" type="curve" smooth="yes"/>
      <point x="346" y="231"/>
      <point x="325" y="283"/>
      <point x="252" y="363" type="curve" smooth="yes"/>
      <point x="193" y="427"/>
      <point x="178" y="453"/>
      <point x="178" y="479" type="curve" smooth="yes"/>
      <point x="178" y="492"/>
      <point x="182" y="501"/>
      <point x="190" y="509" type="curve" smooth="yes"/>
      <point x="202" y="520"/>
      <point x="214" y="524"/>
      <point x="244" y="524" type="curve" smooth="yes"/>
      <point x="336" y="524" type="line"/>
      <point x="336" y="592" type="line"/>
      <point x="247" y="592" type="line" smooth="yes"/>
      <point x="198" y="592"/>
      <point x="161" y="581"/>
      <point x="137" y="561" type="curve" smooth="yes"/>
      <point x="115" y="543"/>
      <point x="103" y="517"/>
      <point x="103" y="485" type="curve" smooth="yes"/>
      <point x="103" y="436"/>
      <point x="122" y="398"/>
      <point x="189" y="324" type="curve" smooth="yes"/>
      <point x="255" y="252"/>
      <point x="271" y="218"/>
      <point x="271" y="173" type="curve" smooth="yes"/>
      <point x="271" y="131"/>
      <point x="243" y="106"/>
      <point x="206" y="106" type="curve" smooth="yes"/>
      <point x="155" y="106"/>
      <point x="116" y="136"/>
      <point x="75" y="235" type="curve"/>
      <point x="8" y="202" type="line"/>
      <point x="54" y="92"/>
      <point x="116" y="38"/>
    </contour>
  </outline>
</glyph>
<glyph name="aavowelsigngujr" format="2">
  <advance width="212"/>
  <unicode hex="0ABE"/>
  <outline>
    <contour>
      <point x="180" y="0" type="curve" smooth="yes"/>
      <point x="200" y="0" type="line"/>
      <point x="204" y="68" type="line"/>
      <point x="180" y="68"/>
      <point x="168" y="72"/>
      <point x="159" y="79" type="curve" smooth="yes"/>
      <point x="146" y="89"/>
      <point x="141" y="104"/>
      <point x="141" y="129" type="curve" smooth="yes"/>
      <point x="141" y="593" type="line"/>
      <point x="66" y="603" type="line"/>
      <point x="66" y="117" type="line" smooth="yes"/>
      <point x="66" y="77"/>
      <point x="76" y="45"/>
      <point x="99" y="25" type="curve" smooth="yes"/>
      <point x="119" y="8"/>
      <point x="145" y="0"/>
    </contour>
  </outline>
</glyph>
<glyph name="iivowelsigngujr" format="2">
  <advance width="212"/>
  <unicode hex="0AC0"/>
  <outline>
    <contour>
      <point x="180" y="0" type="curve" smooth="yes"/>
      <point x="200" y="0" type="line"/>
      <point x="204" y="68" type="line"/>
      <point x="180" y="68"/>
      <point x="168" y="72"/>
      <point x="159" y="79" type="curve" smooth="yes"/>
      <point x="146" y="89"/>
      <point x="141" y="104"/>
      <point x="141" y="129" type="curve" smooth="yes"/>
      <point x="141" y="606" type="line"/>
      <point x="125" y="753"/>
      <point x="84" y="888"/>
      <point x="-32" y="888" type="curve" smooth="yes"/>
      <point x="-114" y="888"/>
      <point x="-158" y="830"/>
      <point x="-158" y="745" type="curve" smooth="yes"/>
      <point x="-158" y="723"/>
      <point x="-156" y="697"/>
      <point x="-152" y="669" type="curve"/>
      <point x="-78" y="669" type="line"/>
      <point x="-82" y="693"/>
      <point x="-84" y="713"/>
      <point x="-84" y="740" type="curve" smooth="yes"/>
      <point x="-84" y="786"/>
      <point x="-70" y="821"/>
      <point x="-31" y="821" type="curve" smooth="yes"/>
      <point x="27" y="821"/>
      <point x="54" y="724"/>
      <point x="66" y="604" type="curve"/>
      <point x="66" y="117" type="line" smooth="yes"/>
      <point x="66" y="77"/>
      <point x="76" y="45"/>
      <point x="99" y="25" type="curve" smooth="yes"/>
      <point x="119" y="8"/>
      <point x="145" y="0"/>
    </contour>
  </outline>
</glyph>
<glyph name="uvowelsigngujr" format="2">
  <unicode hex="0AC1"/>
  <outline>
    <contour>
      <point x="-129" y="-268" type="curve" smooth="yes"/>
      <point x="-37" y="-268"/>
      <point x="17" y="-215"/>
      <point x="17" y="-134" type="curve" smooth="yes"/>
      <point x="17" y="-50"/>
      <point x="-42" y="0"/>
      <point x="-124" y="0" type="curve" smooth="yes"/>
      <point x="-159" y="0"/>
      <point x="-185" y="-8"/>
      <point x="-206" y="-15" type="curve"/>
      <point x="-189" y="-75" type="line"/>
      <point x="-172" y="-69"/>
      <point x="-154" y="-63"/>
      <point x="-125" y="-63" type="curve" smooth="yes"/>
      <point x="-79" y="-63"/>
      <point x="-52" y="-89"/>
      <point x="-52" y="-131" type="curve" smooth="yes"/>
      <point x="-52" y="-179"/>
      <point x="-84" y="-201"/>
      <point x="-131" y="-201" type="curve" smooth="yes"/>
      <point x="-201" y="-201"/>
      <point x="-247" y="-158"/>
      <point x="-294" y="-65" type="curve"/>
      <point x="-358" y="-91" type="line"/>
      <point x="-305" y="-209"/>
      <point x="-225" y="-268"/>
    </contour>
  </outline>
</glyph>
<glyph name="uuvowelsigngujr" format="2">
  <unicode hex="0AC2"/>
  <outline>
    <contour>
      <point x="-131" y="-268" type="curve" smooth="yes"/>
      <point x="-93" y="-268"/>
      <point x="-71" y="-263"/>
      <point x="-47" y="-252" type="curve"/>
      <point x="-64" y="-189" type="line"/>
      <point x="-82" y="-197"/>
      <point x="-101" y="-201"/>
      <point x="-127" y="-201" type="curve" smooth="yes"/>
      <point x="-165" y="-201"/>
      <point x="-199" y="-183"/>
      <point x="-199" y="-134" type="curve" smooth="yes"/>
      <point x="-199" y="-91"/>
      <point x="-166" y="-64"/>
      <point x="-118" y="-64" type="curve" smooth="yes"/>
      <point x="-56" y="-64"/>
      <point x="-8" y="-106"/>
      <point x="43" y="-227" type="curve"/>
      <point x="107" y="-206" type="line"/>
      <point x="51" y="-63"/>
      <point x="-19" y="0"/>
      <point x="-118" y="0" type="curve" smooth="yes"/>
      <point x="-212" y="0"/>
      <point x="-268" y="-59"/>
      <point x="-268" y="-134" type="curve" smooth="yes"/>
      <point x="-268" y="-208"/>
      <point x="-217" y="-268"/>
    </contour>
  </outline>
</glyph>
<glyph name="rvocalicvowelsigngujr" format="2">
  <unicode hex="0AC3"/>
  <outline>
    <contour>
      <point x="24" y="-247" type="curve"/>
      <point x="-2" y="-182" type="line"/>
      <point x="-26" y="-194"/>
      <point x="-46" y="-200"/>
      <point x="-73" y="-200" type="curve" smooth="yes"/>
      <point x="-120" y="-200"/>
      <point x="-152" y="-175"/>
      <point x="-152" y="-131" type="curve" smooth="yes"/>
      <point x="-152" y="-87"/>
      <point x="-122" y="-57"/>
      <point x="-71" y="-49" type="curve"/>
      <point x="-71" y="18" type="line"/>
      <point x="-165" y="10"/>
      <point x="-222" y="-51"/>
      <point x="-222" y="-127" type="curve" smooth="yes"/>
      <point x="-222" y="-216"/>
      <point x="-159" y="-268"/>
      <point x="-72" y="-268" type="curve" smooth="yes"/>
      <point x="-34" y="-268"/>
      <point x="-3" y="-260"/>
    </contour>
  </outline>
</glyph>
<glyph name="ecandravowelsigngujr" format="2">
  <unicode hex="0AC5"/>
  <outline>
    <contour>
      <point x="-102" y="641" type="curve" smooth="yes"/>
      <point x="-76" y="641"/>
      <point x="-53" y="646"/>
      <point x="-35" y="653" type="curve"/>
      <point x="-56" y="717" type="line"/>
      <point x="-69" y="712"/>
      <point x="-82" y="709"/>
      <point x="-102" y="709" type="curve" smooth="yes"/>
      <point x="-168" y="709"/>
      <point x="-206" y="750"/>
      <point x="-271" y="867" type="curve"/>
      <point x="-330" y="835" type="line"/>
      <point x="-259" y="715"/>
      <point x="-200" y="641"/>
    </contour>
  </outline>
</glyph>
<glyph name="evowelsigngujr" format="2">
  <unicode hex="0AC7"/>
  <outline>
    <contour>
      <point x="-145" y="641" type="curve"/>
      <point x="-78" y="641" type="line"/>
      <point x="-116" y="837"/>
      <point x="-162" y="896"/>
      <point x="-255" y="896" type="curve" smooth="yes"/>
      <point x="-273" y="896"/>
      <point x="-292" y="894"/>
      <point x="-310" y="889" type="curve"/>
      <point x="-295" y="822" type="line"/>
      <point x="-281" y="825"/>
      <point x="-266" y="827"/>
      <point x="-256" y="827" type="curve" smooth="yes"/>
      <point x="-200" y="827"/>
      <point x="-170" y="780"/>
    </contour>
  </outline>
</glyph>
<glyph name="aivowelsigngujr" format="2">
  <unicode hex="0AC8"/>
  <outline>
    <contour>
      <point x="-136" y="641" type="curve"/>
      <point x="-75" y="641" type="line"/>
      <point x="-101" y="836"/>
      <point x="-148" y="896"/>
      <point x="-238" y="896" type="curve" smooth="yes"/>
      <point x="-259" y="896"/>
      <point x="-275" y="894"/>
      <point x="-296" y="889" type="curve"/>
      <point x="-282" y="824" type="line"/>
      <point x="-271" y="827"/>
      <point x="-256" y="828"/>
      <point x="-247" y="828" type="curve" smooth="yes"/>
      <point x="-185" y="828"/>
      <point x="-163" y="788"/>
    </contour>
    <contour>
      <point x="-189" y="623" type="curve"/>
      <point x="-147" y="657" type="line"/>
      <point x="-218" y="747"/>
      <point x="-265" y="781"/>
      <point x="-324" y="781" type="curve" smooth="yes"/>
      <point x="-347" y="781"/>
      <point x="-368" y="777"/>
      <point x="-388" y="771" type="curve"/>
      <point x="-367" y="706" type="line"/>
      <point x="-352" y="711"/>
      <point x="-338" y="714"/>
      <point x="-321" y="714" type="curve" smooth="yes"/>
      <point x="-278" y="714"/>
      <point x="-243" y="687"/>
    </contour>
  </outline>
</glyph>
<glyph name="viramagujr" format="2">
  <unicode hex="0ACD"/>
  <outline>
    <contour>
      <point x="62" y="-257" type="curve"/>
      <point x="119" y="-228" type="line"/>
      <point x="53" y="-103"/>
      <point x="-1" y="-52"/>
      <point x="-94" y="-52" type="curve" smooth="yes"/>
      <point x="-110" y="-52"/>
      <point x="-133" y="-55"/>
      <point x="-151" y="-61" type="curve"/>
      <point x="-136" y="-129" type="line"/>
      <point x="-122" y="-124"/>
      <point x="-106" y="-122"/>
      <point x="-93" y="-122" type="curve" smooth="yes"/>
      <point x="-25" y="-122"/>
      <point x="10" y="-158"/>
    </contour>
  </outline>
</glyph>
<glyph name="omgujr" format="2">
  <advance width="700"/>
  <unicode hex="0AD0"/>
  <outline>
    <contour>
      <point x="202" y="-10" type="curve" smooth="yes"/>
      <point x="292" y="-10"/>
      <point x="351" y="52"/>
      <point x="351" y="145" type="curve" smooth="yes"/>
      <point x="351" y="184"/>
      <point x="339" y="220"/>
      <point x="320" y="254" type="curve"/>
      <point x="315" y="234" type="line"/>
      <point x="329" y="226"/>
      <point x="345" y="221"/>
      <point x="364" y="221" type="curve" smooth="yes"/>
      <point x="404" y="221"/>
      <point x="426" y="250"/>
      <point x="451" y="304" type="curve" smooth="yes"/>
      <point x="478" y="363" type="line" smooth="yes"/>
      <point x="498" y="407"/>
      <point x="511" y="426"/>
      <point x="537" y="426" type="curve" smooth="yes"/>
      <point x="566" y="426"/>
      <point x="586" y="388"/>
      <point x="586" y="315" type="curve" smooth="yes"/>
      <point x="586" y="234"/>
      <point x="558" y="209"/>
      <point x="523" y="209" type="curve" smooth="yes"/>
      <point x="494" y="209"/>
      <point x="477" y="222"/>
      <point x="455" y="244" type="curve"/>
      <point x="409" y="194" type="line"/>
      <point x="450" y="156"/>
      <point x="485" y="141"/>
      <point x="529" y="141" type="curve" smooth="yes"/>
      <point x="612" y="141"/>
      <point x="662" y="209"/>
      <point x="662" y="314" type="curve" smooth="yes"/>
      <point x="662" y="429"/>
      <point x="613" y="494"/>
      <point x="534" y="494" type="curve" smooth="yes"/>
      <point x="478" y="494"/>
      <point x="443" y="464"/>
      <point x="409" y="391" type="curve" smooth="yes"/>
      <point x="386" y="342" type="line" smooth="yes"/>
      <point x="370" y="308"/>
      <point x="354" y="288"/>
      <point x="327" y="288" type="curve" smooth="yes"/>
      <point x="318" y="288"/>
      <point x="305" y="291"/>
      <point x="295" y="298" type="curve"/>
      <point x="293" y="301"/>
      <point x="289" y="305"/>
      <point x="284" y="310" type="curve"/>
      <point x="323" y="348"/>
      <point x="342" y="392"/>
      <point x="342" y="448" type="curve" smooth="yes"/>
      <point x="342" y="536"/>
      <point x="292" y="602"/>
      <point x="179" y="602" type="curve" smooth="yes"/>
      <point x="138" y="602"/>
      <point x="101" y="593"/>
      <point x="67" y="580" type="curve"/>
      <point x="87" y="517" type="line"/>
      <point x="116" y="529"/>
      <point x="140" y="534"/>
      <point x="170" y="534" type="curve" smooth="yes"/>
      <point x="236" y="534"/>
      <point x="267" y="501"/>
      <point x="267" y="447" type="curve" smooth="yes"/>
      <point x="267" y="383"/>
      <point x="217" y="341"/>
      <point x="125" y="328" type="curve"/>
      <point x="139" y="262" type="line"/>
      <point x="167" y="265"/>
      <point x="193" y="271"/>
      <point x="219" y="282" type="curve"/>
      <point x="258" y="243"/>
      <point x="276" y="196"/>
      <point x="276" y="147" type="curve" smooth="yes"/>
      <point x="276" y="92"/>
      <point x="246" y="58"/>
      <point x="197" y="58" type="curve" smooth="yes"/>
      <point x="145" y="58"/>
      <point x="106" y="96"/>
      <point x="75" y="178" type="curve"/>
      <point x="5" y="151" type="line"/>
      <point x="45" y="45"/>
      <point x="109" y="-10"/>
    </contour>
    <contour>
      <point x="350" y="635" type="curve" smooth="yes"/>
      <point x="420" y="635"/>
      <point x="487" y="669"/>
      <point x="514" y="771" type="curve"/>
      <point x="451" y="795" type="line"/>
      <point x="431" y="729"/>
      <point x="404" y="700"/>
      <point x="350" y="700" type="curve" smooth="yes"/>
      <point x="295" y="700"/>
      <point x="262" y="730"/>
      <point x="244" y="795" type="curve"/>
      <point x="182" y="773" type="line"/>
      <point x="209" y="670"/>
      <point x="279" y="635"/>
    </contour>
    <contour>
      <point x="347" y="754" type="curve" smooth="yes"/>
      <point x="373" y="754"/>
      <point x="390" y="774"/>
      <point x="390" y="808" type="curve" smooth="yes"/>
      <point x="390" y="842"/>
      <point x="373" y="861"/>
      <point x="347" y="861" type="curve" smooth="yes"/>
      <point x="321" y="861"/>
      <point x="304" y="842"/>
      <point x="304" y="808" type="curve" smooth="yes"/>
      <point x="304" y="774"/>
      <point x="321" y="754"/>
    </contour>
  </outline>
</glyph>
<glyph name="rrvocalicgujr" format="2">
  <advance width="715"/>
  <unicode hex="0AE0"/>
  <outline>
    <contour>
      <point x="434" y="0" type="curve" smooth="yes"/>
      <point x="454" y="0" type="line"/>
      <point x="458" y="68" type="line"/>
      <point x="434" y="68"/>
      <point x="422" y="72"/>
      <point x="413" y="79" type="curve" smooth="yes"/>
      <point x="400" y="89"/>
      <point x="395" y="104"/>
      <point x="395" y="129" type="curve" smooth="yes"/>
      <point x="395" y="592" type="line"/>
      <point x="320" y="602" type="line"/>
      <point x="320" y="117" type="line" smooth="yes"/>
      <point x="320" y="77"/>
      <point x="330" y="45"/>
      <point x="353" y="25" type="curve" smooth="yes"/>
      <point x="373" y="8"/>
      <point x="399" y="0"/>
    </contour>
    <contour>
      <point x="120" y="144" type="line"/>
      <point x="360" y="340" type="line"/>
      <point x="326" y="394" type="line"/>
      <point x="70" y="203" type="line"/>
    </contour>
    <contour>
      <point x="262" y="342" type="curve"/>
      <point x="314" y="382" type="line"/>
      <point x="234" y="487"/>
      <point x="187" y="521"/>
      <point x="113" y="521" type="curve" smooth="yes"/>
      <point x="77" y="521"/>
      <point x="42" y="512"/>
      <point x="7" y="497" type="curve"/>
      <point x="34" y="431" type="line"/>
      <point x="62" y="444"/>
      <point x="84" y="451"/>
      <point x="114" y="451" type="curve" smooth="yes"/>
      <point x="162" y="451"/>
      <point x="201" y="420"/>
    </contour>
    <contour>
      <point x="638" y="0" type="curve" smooth="yes"/>
      <point x="675" y="0"/>
      <point x="708" y="9"/>
      <point x="733" y="22" type="curve"/>
      <point x="708" y="92" type="line"/>
      <point x="679" y="77"/>
      <point x="661" y="72"/>
      <point x="638" y="72" type="curve" smooth="yes"/>
      <point x="597" y="72"/>
      <point x="570" y="95"/>
      <point x="570" y="129" type="curve" smooth="yes"/>
      <point x="570" y="170"/>
      <point x="602" y="199"/>
      <point x="650" y="219" type="curve"/>
      <point x="607" y="275" type="line"/>
      <point x="530" y="241"/>
      <point x="495" y="194"/>
      <point x="495" y="128" type="curve" smooth="yes"/>
      <point x="495" y="52"/>
      <point x="551" y="0"/>
    </contour>
    <contour>
      <point x="650" y="219" type="line"/>
      <point x="637" y="271"/>
      <point x="625" y="311"/>
      <point x="608" y="356" type="curve"/>
      <point x="622" y="370"/>
      <point x="632" y="393"/>
      <point x="632" y="418" type="curve" smooth="yes"/>
      <point x="632" y="461"/>
      <point x="608" y="490"/>
      <point x="571" y="490" type="curve" smooth="yes"/>
      <point x="533" y="490"/>
      <point x="511" y="466"/>
      <point x="511" y="427" type="curve" smooth="yes"/>
      <point x="511" y="409"/>
      <point x="516" y="391"/>
      <point x="526" y="372" type="curve"/>
      <point x="537" y="394" type="line"/>
      <point x="522" y="385"/>
      <point x="512" y="383"/>
      <point x="496" y="383" type="curve" smooth="yes"/>
      <point x="453" y="383"/>
      <point x="418" y="397"/>
      <point x="387" y="426" type="curve"/>
      <point x="382" y="357" type="line"/>
      <point x="420" y="328"/>
      <point x="461" y="317"/>
      <point x="509" y="317" type="curve" smooth="yes"/>
      <point x="528" y="317"/>
      <point x="546" y="320"/>
      <point x="563" y="327" type="curve"/>
      <point x="540" y="342" type="line"/>
      <point x="554" y="306"/>
      <point x="565" y="270"/>
      <point x="572" y="233" type="curve"/>
    </contour>
  </outline>
</glyph>
<glyph name="llvocalicgujr" format="2">
  <advance width="570"/>
  <unicode hex="0AE1"/>
  <outline>
    <contour>
      <point x="503" y="-12" type="curve" smooth="yes"/>
      <point x="544" y="-12"/>
      <point x="578" y="-4"/>
      <point x="606" y="9" type="curve"/>
      <point x="580" y="72" type="line"/>
      <point x="553" y="60"/>
      <point x="532" y="54"/>
      <point x="501" y="54" type="curve" smooth="yes"/>
      <point x="461" y="54"/>
      <point x="432" y="71"/>
      <point x="432" y="105" type="curve" smooth="yes"/>
      <point x="432" y="140"/>
      <point x="461" y="161"/>
      <point x="514" y="177" type="curve"/>
      <point x="528" y="211"/>
      <point x="537" y="256"/>
      <point x="537" y="298" type="curve" smooth="yes"/>
      <point x="537" y="389"/>
      <point x="489" y="450"/>
      <point x="406" y="450" type="curve" smooth="yes"/>
      <point x="303" y="450"/>
      <point x="243" y="379"/>
      <point x="218" y="255" type="curve"/>
      <point x="290" y="235" type="line"/>
      <point x="308" y="333"/>
      <point x="344" y="381"/>
      <point x="399" y="381" type="curve" smooth="yes"/>
      <point x="442" y="381"/>
      <point x="461" y="351"/>
      <point x="461" y="302" type="curve" smooth="yes"/>
      <point x="461" y="275"/>
      <point x="456" y="247"/>
      <point x="447" y="222" type="curve"/>
      <point x="388" y="198"/>
      <point x="359" y="159"/>
      <point x="359" y="108" type="curve" smooth="yes"/>
      <point x="359" y="38"/>
      <point x="418" y="-12"/>
    </contour>
    <contour>
      <point x="163" y="35" type="curve"/>
      <point x="216" y="81" type="line"/>
      <point x="144" y="158"/>
      <point x="105" y="220"/>
      <point x="105" y="292" type="curve" smooth="yes"/>
      <point x="105" y="346"/>
      <point x="135" y="381"/>
      <point x="189" y="381" type="curve" smooth="yes"/>
      <point x="224" y="381"/>
      <point x="247" y="368"/>
      <point x="274" y="344" type="curve"/>
      <point x="309" y="399" type="line"/>
      <point x="271" y="432"/>
      <point x="231" y="450"/>
      <point x="181" y="450" type="curve" smooth="yes"/>
      <point x="106" y="450"/>
      <point x="29" y="404"/>
      <point x="29" y="296" type="curve" smooth="yes"/>
      <point x="29" y="205"/>
      <point x="80" y="121"/>
    </contour>
    <contour>
      <point x="543" y="-167" type="curve" smooth="yes"/>
      <point x="584" y="-167"/>
      <point x="617" y="-159"/>
      <point x="645" y="-146" type="curve"/>
      <point x="619" y="-83" type="line"/>
      <point x="592" y="-95"/>
      <point x="572" y="-101"/>
      <point x="541" y="-101" type="curve" smooth="yes"/>
      <point x="500" y="-101"/>
      <point x="471" y="-84"/>
      <point x="471" y="-50" type="curve" smooth="yes"/>
      <point x="471" y="-31"/>
      <point x="479" y="-16"/>
      <point x="495" y="-4" type="curve"/>
      <point x="424" y="24" type="line"/>
      <point x="407" y="4"/>
      <point x="398" y="-20"/>
      <point x="398" y="-47" type="curve" smooth="yes"/>
      <point x="398" y="-117"/>
      <point x="457" y="-167"/>
    </contour>
    <contour>
      <point x="367" y="412" type="line"/>
      <point x="442" y="412" type="line"/>
      <point x="442" y="592" type="line"/>
      <point x="367" y="602" type="line"/>
    </contour>
  </outline>
</glyph>
<glyph name="zerogujr" format="2">
  <advance width="443"/>
  <unicode hex="0AE6"/>
  <outline>
    <contour>
      <point x="221" y="91" type="curve" smooth="yes"/>
      <point x="328" y="91"/>
      <point x="386" y="182"/>
      <point x="386" y="306" type="curve" smooth="yes"/>
      <point x="386" y="428"/>
      <point x="328" y="521"/>
      <point x="221" y="521" type="curve" smooth="yes"/>
      <point x="114" y="521"/>
      <point x="56" y="428"/>
      <point x="56" y="306" type="curve" smooth="yes"/>
      <point x="56" y="183"/>
      <point x="114" y="91"/>
    </contour>
    <contour>
      <point x="221" y="159" type="curve" smooth="yes"/>
      <point x="163" y="159"/>
      <point x="131" y="216"/>
      <point x="131" y="306" type="curve" smooth="yes"/>
      <point x="131" y="396"/>
      <point x="163" y="453"/>
      <point x="221" y="453" type="curve" smooth="yes"/>
      <point x="279" y="453"/>
      <point x="311" y="397"/>
      <point x="311" y="306" type="curve" smooth="yes"/>
      <point x="311" y="213"/>
      <point x="279" y="159"/>
    </contour>
  </outline>
</glyph>
<glyph name="onegujr" format="2">
  <advance width="443"/>
  <unicode hex="0AE7"/>
  <outline>
    <contour>
      <point x="373" y="0" type="curve" smooth="yes"/>
      <point x="393" y="0" type="line"/>
      <point x="397" y="68" type="line"/>
      <point x="373" y="68"/>
      <point x="361" y="72"/>
      <point x="352" y="79" type="curve" smooth="yes"/>
      <point x="339" y="89"/>
      <point x="334" y="104"/>
      <point x="334" y="129" type="curve" smooth="yes"/>
      <point x="334" y="436" type="line" smooth="yes"/>
      <point x="334" y="490"/>
      <point x="324" y="530"/>
      <point x="303" y="558" type="curve" smooth="yes"/>
      <point x="281" y="587"/>
      <point x="248" y="602"/>
      <point x="204" y="602" type="curve" smooth="yes"/>
      <point x="122" y="602"/>
      <point x="67" y="538"/>
      <point x="67" y="441" type="curve" smooth="yes"/>
      <point x="67" y="342"/>
      <point x="126" y="274"/>
      <point x="211" y="274" type="curve" smooth="yes"/>
      <point x="238" y="274"/>
      <point x="265" y="282"/>
      <point x="288" y="296" type="curve"/>
      <point x="276" y="373" type="line"/>
      <point x="255" y="351"/>
      <point x="233" y="342"/>
      <point x="211" y="342" type="curve" smooth="yes"/>
      <point x="169" y="342"/>
      <point x="143" y="379"/>
      <point x="143" y="441" type="curve" smooth="yes"/>
      <point x="143" y="500"/>
      <point x="167" y="534"/>
      <point x="204" y="534" type="curve" smooth="yes"/>
      <point x="223" y="534"/>
      <point x="236" y="527"/>
      <point x="245" y="512" type="curve" smooth="yes"/>
      <point x="255" y="495"/>
      <point x="259" y="468"/>
      <point x="259" y="427" type="curve" smooth="yes"/>
      <point x="259" y="117" type="line" smooth="yes"/>
      <point x="259" y="77"/>
      <point x="269" y="45"/>
      <point x="292" y="25" type="curve" smooth="yes"/>
      <point x="312" y="8"/>
      <point x="338" y="0"/>
    </contour>
  </outline>
</glyph>
<glyph name="twogujr" format="2">
  <advance width="443"/>
  <unicode hex="0AE8"/>
  <outline>
    <contour>
      <point x="342" y="0" type="curve" smooth="yes"/>
      <point x="370" y="0"/>
      <point x="393" y="6"/>
      <point x="411" y="15" type="curve"/>
      <point x="390" y="80" type="line"/>
      <point x="376" y="73"/>
      <point x="360" y="69"/>
      <point x="342" y="69" type="curve" smooth="yes"/>
      <point x="286" y="69"/>
      <point x="250" y="115"/>
      <point x="204" y="232" type="curve"/>
      <point x="199" y="243" type="line"/>
      <point x="173" y="286"/>
      <point x="151" y="303"/>
      <point x="123" y="303" type="curve" smooth="yes"/>
      <point x="91" y="303"/>
      <point x="68" y="282"/>
      <point x="68" y="252" type="curve" smooth="yes"/>
      <point x="68" y="210"/>
      <point x="101" y="187"/>
      <point x="151" y="187" type="curve" smooth="yes"/>
      <point x="252" y="187"/>
      <point x="352" y="270"/>
      <point x="352" y="406" type="curve" smooth="yes"/>
      <point x="352" y="519"/>
      <point x="286" y="603"/>
      <point x="173" y="603" type="curve" smooth="yes"/>
      <point x="136" y="603"/>
      <point x="103" y="597"/>
      <point x="68" y="585" type="curve"/>
      <point x="88" y="521" type="line"/>
      <point x="115" y="531"/>
      <point x="140" y="535"/>
      <point x="166" y="535" type="curve" smooth="yes"/>
      <point x="234" y="535"/>
      <point x="277" y="485"/>
      <point x="277" y="405" type="curve" smooth="yes"/>
      <point x="277" y="318"/>
      <point x="222" y="265"/>
      <point x="147" y="256" type="curve"/>
      <point x="139" y="215" type="line"/>
      <point x="197" y="66"/>
      <point x="256" y="0"/>
    </contour>
  </outline>
</glyph>
<glyph name="threegujr" format="2">
  <advance width="443"/>
  <unicode hex="0AE9"/>
  <outline>
    <contour>
      <point x="232" y="-10" type="curve" smooth="yes"/>
      <point x="322" y="-10"/>
      <point x="381" y="52"/>
      <point x="381" y="145" type="curve" smooth="yes"/>
      <point x="381" y="217"/>
      <point x="351" y="280"/>
      <point x="287" y="337" type="curve"/>
      <point x="232" y="316" type="line"/>
      <point x="232" y="294" type="line"/>
      <point x="282" y="252"/>
      <point x="306" y="201"/>
      <point x="306" y="147" type="curve" smooth="yes"/>
      <point x="306" y="92"/>
      <point x="276" y="58"/>
      <point x="227" y="58" type="curve" smooth="yes"/>
      <point x="173" y="58"/>
      <point x="129" y="96"/>
      <point x="101" y="178" type="curve"/>
      <point x="38" y="151" type="line"/>
      <point x="78" y="45"/>
      <point x="143" y="-10"/>
    </contour>
    <contour>
      <point x="169" y="270" type="line"/>
      <point x="298" y="284"/>
      <point x="372" y="347"/>
      <point x="372" y="448" type="curve" smooth="yes"/>
      <point x="372" y="540"/>
      <point x="312" y="602"/>
      <point x="209" y="602" type="curve" smooth="yes"/>
      <point x="172" y="602"/>
      <point x="130" y="594"/>
      <point x="97" y="581" type="curve"/>
      <point x="117" y="518" type="line"/>
      <point x="145" y="528"/>
      <point x="175" y="534"/>
      <point x="200" y="534" type="curve" smooth="yes"/>
      <point x="263" y="534"/>
      <point x="297" y="503"/>
      <point x="297" y="447" type="curve" smooth="yes"/>
      <point x="297" y="380"/>
      <point x="247" y="344"/>
      <point x="155" y="336" type="curve"/>
    </contour>
  </outline>
</glyph>
<glyph name="fourgujr" format="2">
  <advance width="443"/>
  <unicode hex="0AEA"/>
  <outline>
    <contour>
      <point x="214" y="-4" type="curve" smooth="yes"/>
      <point x="293" y="-4"/>
      <point x="346" y="49"/>
      <point x="346" y="142" type="curve" smooth="yes"/>
      <point x="346" y="210"/>
      <point x="326" y="271"/>
      <point x="264" y="357" type="curve"/>
      <point x="311" y="411"/>
      <point x="362" y="468"/>
      <point x="439" y="549" type="curve"/>
      <point x="379" y="603" type="line"/>
      <point x="315" y="530"/>
      <point x="260" y="463"/>
      <point x="218" y="411" type="curve"/>
      <point x="174" y="470"/>
      <point x="128" y="530"/>
      <point x="63" y="603" type="curve"/>
      <point x="3" y="551" type="line"/>
      <point x="77" y="470"/>
      <point x="131" y="405"/>
      <point x="170" y="356" type="curve"/>
      <point x="103" y="269"/>
      <point x="80" y="208"/>
      <point x="80" y="142" type="curve" smooth="yes"/>
      <point x="80" y="49"/>
      <point x="135" y="-4"/>
    </contour>
    <contour>
      <point x="213" y="63" type="curve" smooth="yes"/>
      <point x="177" y="63"/>
      <point x="155" y="89"/>
      <point x="155" y="142" type="curve" smooth="yes"/>
      <point x="155" y="197"/>
      <point x="170" y="244"/>
      <point x="216" y="306" type="curve"/>
      <point x="259" y="245"/>
      <point x="271" y="198"/>
      <point x="271" y="142" type="curve" smooth="yes"/>
      <point x="271" y="90"/>
      <point x="248" y="63"/>
    </contour>
  </outline>
</glyph>
<glyph name="fivegujr" format="2">
  <advance width="443"/>
  <unicode hex="0AEB"/>
  <outline>
    <contour>
      <point x="207" y="163" type="curve" smooth="yes"/>
      <point x="246" y="163"/>
      <point x="278" y="176"/>
      <point x="303" y="196" type="curve"/>
      <point x="303" y="283" type="line"/>
      <point x="276" y="248"/>
      <point x="246" y="231"/>
      <point x="214" y="231" type="curve" smooth="yes"/>
      <point x="197" y="231"/>
      <point x="183" y="235"/>
      <point x="173" y="244" type="curve" smooth="yes"/>
      <point x="155" y="261"/>
      <point x="149" y="284"/>
      <point x="149" y="312" type="curve" smooth="yes"/>
      <point x="149" y="475" type="line" smooth="yes"/>
      <point x="149" y="509"/>
      <point x="143" y="541"/>
      <point x="118" y="565" type="curve" smooth="yes"/>
      <point x="98" y="584"/>
      <point x="73" y="592"/>
      <point x="38" y="592" type="curve" smooth="yes"/>
      <point x="24" y="592" type="line"/>
      <point x="20" y="524" type="line"/>
      <point x="43" y="524"/>
      <point x="51" y="519"/>
      <point x="58" y="513" type="curve" smooth="yes"/>
      <point x="70" y="502"/>
      <point x="74" y="489"/>
      <point x="74" y="464" type="curve" smooth="yes"/>
      <point x="74" y="313" type="line" smooth="yes"/>
      <point x="74" y="257"/>
      <point x="91" y="217"/>
      <point x="122" y="190" type="curve" smooth="yes"/>
      <point x="145" y="170"/>
      <point x="175" y="163"/>
    </contour>
    <contour>
      <point x="395" y="0" type="curve" smooth="yes"/>
      <point x="415" y="0" type="line"/>
      <point x="419" y="68" type="line"/>
      <point x="395" y="68"/>
      <point x="383" y="72"/>
      <point x="374" y="79" type="curve" smooth="yes"/>
      <point x="361" y="89"/>
      <point x="356" y="104"/>
      <point x="356" y="129" type="curve" smooth="yes"/>
      <point x="356" y="592" type="line"/>
      <point x="281" y="602" type="line"/>
      <point x="281" y="117" type="line" smooth="yes"/>
      <point x="281" y="77"/>
      <point x="291" y="45"/>
      <point x="314" y="25" type="curve" smooth="yes"/>
      <point x="334" y="8"/>
      <point x="360" y="0"/>
    </contour>
  </outline>
</glyph>
<glyph name="sixgujr" format="2">
  <advance width="443"/>
  <unicode hex="0AEC"/>
  <outline>
    <contour>
      <point x="358" y="-163" type="line"/>
      <point x="383" y="-126"/>
      <point x="399" y="-92"/>
      <point x="399" y="-46" type="curve" smooth="yes"/>
      <point x="399" y="22"/>
      <point x="368" y="59"/>
      <point x="278" y="116" type="curve" smooth="yes"/>
      <point x="200" y="166"/>
      <point x="173" y="191"/>
      <point x="173" y="240" type="curve" smooth="yes"/>
      <point x="173" y="287"/>
      <point x="210" y="316"/>
      <point x="270" y="316" type="curve" smooth="yes"/>
      <point x="298" y="316"/>
      <point x="318" y="313"/>
      <point x="336" y="308" type="curve"/>
      <point x="349" y="375" type="line"/>
      <point x="328" y="380"/>
      <point x="303" y="384"/>
      <point x="270" y="384" type="curve" smooth="yes"/>
      <point x="163" y="384"/>
      <point x="98" y="324"/>
      <point x="98" y="239" type="curve" smooth="yes"/>
      <point x="98" y="163"/>
      <point x="140" y="120"/>
      <point x="229" y="63" type="curve" smooth="yes"/>
      <point x="304" y="15"/>
      <point x="322" y="-11"/>
      <point x="322" y="-50" type="curve" smooth="yes"/>
      <point x="322" y="-75"/>
      <point x="309" y="-99"/>
      <point x="293" y="-123" type="curve"/>
    </contour>
    <contour>
      <point x="149" y="284" type="curve"/>
      <point x="199" y="334" type="line"/>
      <point x="160" y="375"/>
      <point x="142" y="409"/>
      <point x="142" y="450" type="curve" smooth="yes"/>
      <point x="142" y="502"/>
      <point x="179" y="535"/>
      <point x="248" y="535" type="curve" smooth="yes"/>
      <point x="273" y="535"/>
      <point x="296" y="532"/>
      <point x="314" y="527" type="curve"/>
      <point x="328" y="593" type="line"/>
      <point x="305" y="599"/>
      <point x="273" y="603"/>
      <point x="240" y="603" type="curve" smooth="yes"/>
      <point x="130" y="603"/>
      <point x="67" y="538"/>
      <point x="67" y="456" type="curve" smooth="yes"/>
      <point x="67" y="389"/>
      <point x="102" y="334"/>
    </contour>
  </outline>
</glyph>
<glyph name="sevengujr" format="2">
  <advance width="443"/>
  <unicode hex="0AED"/>
  <outline>
    <contour>
      <point x="227" y="-9" type="curve" smooth="yes"/>
      <point x="351" y="-9"/>
      <point x="411" y="95"/>
      <point x="411" y="284" type="curve" smooth="yes"/>
      <point x="411" y="492"/>
      <point x="352" y="603"/>
      <point x="230" y="603" type="curve" smooth="yes"/>
      <point x="145" y="603"/>
      <point x="88" y="545"/>
      <point x="88" y="460" type="curve" smooth="yes"/>
      <point x="88" y="349"/>
      <point x="172" y="278"/>
      <point x="299" y="255" type="curve"/>
      <point x="313" y="325" type="line"/>
      <point x="226" y="340"/>
      <point x="163" y="382"/>
      <point x="163" y="457" type="curve" smooth="yes"/>
      <point x="163" y="503"/>
      <point x="189" y="535"/>
      <point x="233" y="535" type="curve" smooth="yes"/>
      <point x="307" y="535"/>
      <point x="336" y="450"/>
      <point x="336" y="296" type="curve" smooth="yes"/>
      <point x="336" y="134"/>
      <point x="300" y="59"/>
      <point x="222" y="59" type="curve" smooth="yes"/>
      <point x="140" y="59"/>
      <point x="103" y="135"/>
      <point x="90" y="286" type="curve"/>
      <point x="15" y="278" type="line"/>
      <point x="32" y="86"/>
      <point x="97" y="-9"/>
    </contour>
  </outline>
</glyph>
<glyph name="eightgujr" format="2">
  <advance width="443"/>
  <unicode hex="0AEE"/>
  <outline>
    <contour>
      <point x="236" y="-10" type="curve" smooth="yes"/>
      <point x="304" y="-10"/>
      <point x="354" y="7"/>
      <point x="400" y="36" type="curve"/>
      <point x="366" y="101" type="line"/>
      <point x="324" y="73"/>
      <point x="285" y="58"/>
      <point x="238" y="58" type="curve" smooth="yes"/>
      <point x="170" y="58"/>
      <point x="129" y="95"/>
      <point x="129" y="156" type="curve" smooth="yes"/>
      <point x="129" y="209"/>
      <point x="152" y="246"/>
      <point x="203" y="314" type="curve" smooth="yes"/>
      <point x="381" y="553" type="line"/>
      <point x="316" y="603" type="line"/>
      <point x="131" y="353" type="line" smooth="yes"/>
      <point x="79" y="283"/>
      <point x="52" y="224"/>
      <point x="52" y="158" type="curve" smooth="yes"/>
      <point x="52" y="53"/>
      <point x="126" y="-10"/>
    </contour>
  </outline>
</glyph>
<glyph name="ninegujr" format="2">
  <advance width="443"/>
  <unicode hex="0AEF"/>
  <outline>
    <contour>
      <point x="312" y="-10" type="curve" smooth="yes"/>
      <point x="345" y="-10"/>
      <point x="376" y="-5"/>
      <point x="405" y="7" type="curve"/>
      <point x="385" y="74" type="line"/>
      <point x="362" y="64"/>
      <point x="335" y="59"/>
      <point x="312" y="59" type="curve" smooth="yes"/>
      <point x="199" y="59"/>
      <point x="128" y="137"/>
      <point x="128" y="264" type="curve" smooth="yes"/>
      <point x="128" y="379"/>
      <point x="186" y="470"/>
      <point x="312" y="534" type="curve"/>
      <point x="279" y="602" type="line"/>
      <point x="127" y="524"/>
      <point x="50" y="407"/>
      <point x="50" y="265" type="curve" smooth="yes"/>
      <point x="50" y="96"/>
      <point x="158" y="-10"/>
    </contour>
    <contour>
      <point x="199" y="225" type="line"/>
      <point x="393" y="274" type="line"/>
      <point x="373" y="349" type="line"/>
      <point x="179" y="300" type="line"/>
    </contour>
  </outline>
</glyph>
<glyph name="uni0AF0" format="2">
  <advance width="316"/>
  <unicode hex="0AF0"/>
  <outline>
    <contour>
      <point x="158" y="199" type="curve" smooth="yes"/>
      <point x="237" y="199"/>
      <point x="285" y="254"/>
      <point x="285" y="338" type="curve" smooth="yes"/>
      <point x="285" y="422"/>
      <point x="235" y="477"/>
      <point x="158" y="477" type="curve" smooth="yes"/>
      <point x="81" y="477"/>
      <point x="31" y="422"/>
      <point x="31" y="338" type="curve" smooth="yes"/>
      <point x="31" y="254"/>
      <point x="79" y="199"/>
    </contour>
    <contour>
      <point x="158" y="262" type="curve" smooth="yes"/>
      <point x="118" y="262"/>
      <point x="97" y="291"/>
      <point x="97" y="338" type="curve" smooth="yes"/>
      <point x="97" y="385"/>
      <point x="118" y="414"/>
      <point x="158" y="414" type="curve" smooth="yes"/>
      <point x="198" y="414"/>
      <point x="219" y="385"/>
      <point x="219" y="338" type="curve" smooth="yes"/>
      <point x="219" y="291"/>
      <point x="198" y="262"/>
    </contour>
  </outline>
</glyph>
<glyph name="uni0AFA" format="2">
  <unicode hex="0AFA"/>
  <outline>
    <contour>
      <point x="-145" y="625" type="line"/>
      <point x="-83" y="651"/>
      <point x="-36" y="697"/>
      <point x="-36" y="770" type="curve" smooth="yes"/>
      <point x="-36" y="845"/>
      <point x="-81" y="896"/>
      <point x="-170" y="896" type="curve" smooth="yes"/>
      <point x="-200" y="896"/>
      <point x="-226" y="891"/>
      <point x="-249" y="884" type="curve"/>
      <point x="-236" y="822" type="line"/>
      <point x="-218" y="828"/>
      <point x="-200" y="832"/>
      <point x="-172" y="832" type="curve" smooth="yes"/>
      <point x="-131" y="832"/>
      <point x="-104" y="808"/>
      <point x="-104" y="768" type="curve" smooth="yes"/>
      <point x="-104" y="728"/>
      <point x="-132" y="704"/>
      <point x="-176" y="686" type="curve"/>
    </contour>
  </outline>
</glyph>
<glyph name="uni0AFB" format="2">
  <unicode hex="0AFB"/>
  <outline>
    <contour>
      <point x="-135" y="828" type="curve"/>
      <point x="-185" y="828" type="line"/>
      <point x="-185" y="764"/>
      <point x="-195" y="738"/>
      <point x="-220" y="738" type="curve" smooth="yes"/>
      <point x="-243" y="738"/>
      <point x="-255" y="756"/>
      <point x="-257" y="830" type="curve"/>
      <point x="-315" y="828" type="line"/>
      <point x="-313" y="716"/>
      <point x="-279" y="680"/>
      <point x="-228" y="680" type="curve" smooth="yes"/>
      <point x="-170" y="680"/>
      <point x="-150" y="723"/>
    </contour>
    <contour>
      <point x="-131" y="828" type="curve"/>
      <point x="-180" y="828" type="line"/>
      <point x="-165" y="723"/>
      <point x="-145" y="680"/>
      <point x="-88" y="680" type="curve" smooth="yes"/>
      <point x="-38" y="680"/>
      <point x="-3" y="716"/>
      <point x="-1" y="828" type="curve"/>
      <point x="-59" y="830" type="line"/>
      <point x="-61" y="756"/>
      <point x="-72" y="738"/>
      <point x="-95" y="738" type="curve" smooth="yes"/>
      <point x="-120" y="738"/>
      <point x="-130" y="764"/>
    </contour>
  </outline>
</glyph>
<glyph name="uni0AFC" format="2">
  <unicode hex="0AFC"/>
  <outline>
    <contour>
      <point x="-27" y="835" type="line"/>
      <point x="-112" y="774"/>
      <point x="-141" y="764"/>
      <point x="-188" y="764" type="curve" smooth="yes"/>
      <point x="-224" y="764"/>
      <point x="-251" y="776"/>
      <point x="-280" y="799" type="curve"/>
      <point x="-318" y="756" type="line"/>
      <point x="-289" y="735"/>
      <point x="-249" y="719"/>
      <point x="-212" y="719" type="curve"/>
      <point x="-209" y="719"/>
      <point x="-205" y="719"/>
      <point x="-202" y="720" type="curve"/>
      <point x="-201" y="722" type="line"/>
      <point x="-222" y="715"/>
      <point x="-242" y="712"/>
      <point x="-274" y="712" type="curve" smooth="yes"/>
      <point x="-304" y="712"/>
      <point x="-339" y="717"/>
      <point x="-373" y="741" type="curve"/>
      <point x="-404" y="689" type="line"/>
      <point x="-373" y="668"/>
      <point x="-323" y="657"/>
      <point x="-282" y="657" type="curve" smooth="yes"/>
      <point x="-193" y="657"/>
      <point x="-129" y="688"/>
      <point x="12" y="788" type="curve"/>
    </contour>
  </outline>
</glyph>
<glyph name="uni0AFD" format="2">
  <unicode hex="0AFD"/>
  <outline>
    <contour>
      <point x="-255" y="787" type="curve" smooth="yes"/>
      <point x="-227" y="787"/>
      <point x="-211" y="809"/>
      <point x="-211" y="839" type="curve" smooth="yes"/>
      <point x="-211" y="869"/>
      <point x="-227" y="891"/>
      <point x="-255" y="891" type="curve" smooth="yes"/>
      <point x="-283" y="891"/>
      <point x="-299" y="869"/>
      <point x="-299" y="839" type="curve" smooth="yes"/>
      <point x="-299" y="809"/>
      <point x="-283" y="787"/>
    </contour>
    <contour>
      <point x="-313" y="663" type="curve" smooth="yes"/>
      <point x="-285" y="663"/>
      <point x="-269" y="685"/>
      <point x="-269" y="715" type="curve" smooth="yes"/>
      <point x="-269" y="745"/>
      <point x="-285" y="767"/>
      <point x="-313" y="767" type="curve" smooth="yes"/>
      <point x="-341" y="767"/>
      <point x="-357" y="745"/>
      <point x="-357" y="715" type="curve" smooth="yes"/>
      <point x="-357" y="685"/>
      <point x="-341" y="663"/>
    </contour>
    <contour>
      <point x="-197" y="663" type="curve" smooth="yes"/>
      <point x="-169" y="663"/>
      <point x="-153" y="685"/>
      <point x="-153" y="715" type="curve" smooth="yes"/>
      <point x="-153" y="745"/>
      <point x="-169" y="767"/>
      <point x="-197" y="767" type="curve" smooth="yes"/>
      <point x="-225" y="767"/>
      <point x="-241" y="745"/>
      <point x="-241" y="715" type="curve" smooth="yes"/>
      <point x="-241" y="685"/>
      <point x="-225" y="663"/>
    </contour>
  </outline>
</glyph>
<glyph name="uni0AFE" format="2">
  <unicode hex="0AFE"/>
  <outline>
    <contour>
      <point x="-346" y="762" type="curve" smooth="yes"/>
      <point x="-346" y="700"/>
      <point x="-309" y="663"/>
      <point x="-255" y="663" type="curve" smooth="yes"/>
      <point x="-201" y="663"/>
      <point x="-164" y="700"/>
      <point x="-164" y="762" type="curve" smooth="yes"/>
      <point x="-164" y="822"/>
      <point x="-199" y="862"/>
      <point x="-256" y="862" type="curve" smooth="yes"/>
      <point x="-309" y="862"/>
      <point x="-346" y="824"/>
    </contour>
    <contour>
      <point x="-299" y="761" type="curve" smooth="yes"/>
      <point x="-299" y="797"/>
      <point x="-281" y="818"/>
      <point x="-255" y="818" type="curve" smooth="yes"/>
      <point x="-227" y="818"/>
      <point x="-211" y="798"/>
      <point x="-211" y="763" type="curve" smooth="yes"/>
      <point x="-211" y="728"/>
      <point x="-229" y="707"/>
      <point x="-256" y="707" type="curve" smooth="yes"/>
      <point x="-284" y="707"/>
      <point x="-299" y="727"/>
    </contour>
  </outline>
</glyph>
<glyph name="uni0AFF" format="2">
  <unicode hex="0AFF"/>
  <outline>
    <contour>
      <point x="-436" y="762" type="curve" smooth="yes"/>
      <point x="-436" y="700"/>
      <point x="-402" y="663"/>
      <point x="-350" y="663" type="curve" smooth="yes"/>
      <point x="-298" y="663"/>
      <point x="-264" y="700"/>
      <point x="-264" y="762" type="curve" smooth="yes"/>
      <point x="-264" y="822"/>
      <point x="-296" y="862"/>
      <point x="-351" y="862" type="curve" smooth="yes"/>
      <point x="-402" y="862"/>
      <point x="-436" y="824"/>
    </contour>
    <contour>
      <point x="-390" y="761" type="curve" smooth="yes"/>
      <point x="-390" y="797"/>
      <point x="-374" y="818"/>
      <point x="-350" y="818" type="curve" smooth="yes"/>
      <point x="-324" y="818"/>
      <point x="-310" y="798"/>
      <point x="-310" y="763" type="curve" smooth="yes"/>
      <point x="-310" y="728"/>
      <point x="-326" y="707"/>
      <point x="-351" y="707" type="curve" smooth="yes"/>
      <point x="-377" y="707"/>
      <point x="-390" y="727"/>
    </contour>
    <contour>
      <point x="-246" y="762" type="curve" smooth="yes"/>
      <point x="-246" y="700"/>
      <point x="-212" y="663"/>
      <point x="-160" y="663" type="curve" smooth="yes"/>
      <point x="-108" y="663"/>
      <point x="-74" y="700"/>
      <point x="-74" y="762" type="curve" smooth="yes"/>
      <point x="-74" y="822"/>
      <point x="-106" y="862"/>
      <point x="-161" y="862" type="curve" smooth="yes"/>
      <point x="-212" y="862"/>
      <point x="-246" y="824"/>
    </contour>
    <contour>
      <point x="-200" y="761" type="curve" smooth="yes"/>
      <point x="-200" y="797"/>
      <point x="-184" y="818"/>
      <point x="-160" y="818" type="curve" smooth="yes"/>
      <point x="-134" y="818"/>
      <point x="-120" y="798"/>
      <point x="-120" y="763" type="curve" smooth="yes"/>
      <point x="-120" y="728"/>
      <point x="-136" y="707"/>
      <point x="-161" y="707" type="curve" smooth="yes"/>
      <point x="-187" y="707"/>
      <point x="-200" y="727"/>
    </contour>
  </outline>
</glyph>
<glyph name="uni20B9.gujr" format="2">
  <advance width="443"/>
  <unicode hex="20B9"/>
  <outline>
    <contour>
      <point x="387" y="554" type="line"/>
      <point x="387" y="622" type="line"/>
      <point x="65" y="622" type="line"/>
      <point x="65" y="554" type="line"/>
      <point x="106" y="554" type="line" smooth="yes"/>
      <point x="148" y="554"/>
      <point x="168" y="545"/>
      <point x="183" y="529" type="curve" smooth="yes"/>
      <point x="201" y="510"/>
      <point x="207" y="480"/>
      <point x="207" y="439" type="curve" smooth="yes"/>
      <point x="207" y="396"/>
      <point x="202" y="365"/>
      <point x="186" y="345" type="curve" smooth="yes"/>
      <point x="171" y="327"/>
      <point x="150" y="318"/>
      <point x="103" y="318" type="curve" smooth="yes"/>
      <point x="79" y="318" type="line"/>
      <point x="66" y="255" type="line"/>
      <point x="211" y="0" type="line"/>
      <point x="304" y="0" type="line"/>
      <point x="139" y="279" type="line"/>
      <point x="141" y="252" type="line"/>
      <point x="234" y="267"/>
      <point x="282" y="320"/>
      <point x="282" y="438" type="curve" smooth="yes"/>
      <point x="282" y="503"/>
      <point x="263" y="538"/>
      <point x="242" y="554" type="curve"/>
    </contour>
    <contour>
      <point x="65" y="474" type="line"/>
      <point x="65" y="406" type="line"/>
      <point x="387" y="406" type="line"/>
      <point x="387" y="474" type="line"/>
    </contour>
  </outline>
</glyph>
<glyph name="minus.gujr" format="2">
  <advance width="443"/>
  <unicode hex="2212"/>
  <outline>
    <contour>
      <point x="51" y="288" type="line"/>
      <point x="392" y="288" type="line"/>
      <point x="392" y="357" type="line"/>
      <point x="51" y="357" type="line"/>
    </contour>
  </outline>
</glyph>
<glyph name="uniA837" format="2">
  <advance width="380"/>
  <unicode hex="A837"/>
  <outline>
    <contour>
      <point x="166" y="86" type="curve" smooth="yes"/>
      <point x="242" y="86"/>
      <point x="290" y="145"/>
      <point x="290" y="240" type="curve" smooth="yes"/>
      <point x="290" y="332"/>
      <point x="241" y="390"/>
      <point x="166" y="390" type="curve" smooth="yes"/>
      <point x="150" y="390"/>
      <point x="135" y="386"/>
      <point x="119" y="380" type="curve"/>
      <point x="121" y="329" type="line"/>
      <point x="175" y="368"/>
      <point x="237" y="427"/>
      <point x="297" y="493" type="curve" smooth="yes"/>
      <point x="373" y="577" type="line"/>
      <point x="325" y="623" type="line"/>
      <point x="115" y="398" type="line" smooth="yes"/>
      <point x="66" y="346"/>
      <point x="43" y="305"/>
      <point x="43" y="240" type="curve" smooth="yes"/>
      <point x="43" y="142"/>
      <point x="96" y="86"/>
    </contour>
    <contour>
      <point x="167" y="150" type="curve" smooth="yes"/>
      <point x="131" y="150"/>
      <point x="109" y="179"/>
      <point x="109" y="240" type="curve" smooth="yes"/>
      <point x="109" y="296"/>
      <point x="129" y="328"/>
      <point x="167" y="328" type="curve" smooth="yes"/>
      <point x="202" y="328"/>
      <point x="224" y="298"/>
      <point x="224" y="240" type="curve" smooth="yes"/>
      <point x="224" y="179"/>
      <point x="203" y="150"/>
    </contour>
  </outline>
</glyph>
<glyph name="aivowelsignanusvaragujr" format="2">
  <outline>
    <contour>
      <point x="-138" y="641" type="curve"/>
      <point x="-77" y="641" type="line"/>
      <point x="-103" y="836"/>
      <point x="-150" y="896"/>
      <point x="-240" y="896" type="curve" smooth="yes"/>
      <point x="-261" y="896"/>
      <point x="-277" y="894"/>
      <point x="-298" y="889" type="curve"/>
      <point x="-284" y="824" type="line"/>
      <point x="-273" y="827"/>
      <point x="-258" y="828"/>
      <point x="-249" y="828" type="curve" smooth="yes"/>
      <point x="-187" y="828"/>
      <point x="-165" y="788"/>
    </contour>
    <contour>
      <point x="-191" y="623" type="curve"/>
      <point x="-149" y="657" type="line"/>
      <point x="-220" y="747"/>
      <point x="-267" y="781"/>
      <point x="-326" y="781" type="curve" smooth="yes"/>
      <point x="-349" y="781"/>
      <point x="-370" y="777"/>
      <point x="-390" y="771" type="curve"/>
      <point x="-369" y="706" type="line"/>
      <point x="-354" y="711"/>
      <point x="-340" y="714"/>
      <point x="-323" y="714" type="curve" smooth="yes"/>
      <point x="-280" y="714"/>
      <point x="-245" y="687"/>
    </contour>
    <contour>
      <point x="-42" y="758" type="curve" smooth="yes"/>
      <point x="-10" y="758"/>
      <point x="7" y="780"/>
      <point x="7" y="813" type="curve" smooth="yes"/>
      <point x="7" y="845"/>
      <point x="-10" y="868"/>
      <point x="-42" y="868" type="curve" smooth="yes"/>
      <point x="-73" y="868"/>
      <point x="-91" y="845"/>
      <point x="-91" y="813" type="curve" smooth="yes"/>
      <point x="-91" y="780"/>
      <point x="-73" y="758"/>
    </contour>
  </outline>
</glyph>
<glyph name="aivowelsignrephgujr" format="2">
  <outline>
    <contour>
      <point x="-143" y="641" type="curve"/>
      <point x="-82" y="641" type="line"/>
      <point x="-92" y="710"/>
      <point x="-103" y="763"/>
      <point x="-121" y="804" type="curve"/>
      <point x="-137" y="816" type="line"/>
      <point x="-157" y="871"/>
      <point x="-187" y="896"/>
      <point x="-246" y="896" type="curve" smooth="yes"/>
      <point x="-265" y="896"/>
      <point x="-282" y="894"/>
      <point x="-303" y="889" type="curve"/>
      <point x="-289" y="824" type="line"/>
      <point x="-278" y="827"/>
      <point x="-263" y="828"/>
      <point x="-254" y="828" type="curve" smooth="yes"/>
      <point x="-192" y="828"/>
      <point x="-170" y="788"/>
    </contour>
    <contour>
      <point x="-196" y="623" type="curve"/>
      <point x="-154" y="657" type="line"/>
      <point x="-225" y="747"/>
      <point x="-272" y="781"/>
      <point x="-332" y="781" type="curve" smooth="yes"/>
      <point x="-354" y="781"/>
      <point x="-375" y="777"/>
      <point x="-395" y="771" type="curve"/>
      <point x="-374" y="706" type="line"/>
      <point x="-359" y="711"/>
      <point x="-345" y="714"/>
      <point x="-328" y="714" type="curve" smooth="yes"/>
      <point x="-285" y="714"/>
      <point x="-250" y="687"/>
    </contour>
    <contour>
      <point x="-100" y="696" type="line"/>
      <point x="-105" y="717"/>
      <point x="-107" y="733"/>
      <point x="-107" y="744" type="curve" smooth="yes"/>
      <point x="-107" y="803"/>
      <point x="-75" y="832"/>
      <point x="-22" y="832" type="curve" smooth="yes"/>
      <point x="-5" y="832"/>
      <point x="7" y="830"/>
      <point x="17" y="827" type="curve"/>
      <point x="30" y="889" type="line"/>
      <point x="11" y="894"/>
      <point x="-8" y="896"/>
      <point x="-33" y="896" type="curve" smooth="yes"/>
      <point x="-106" y="896"/>
      <point x="-159" y="850"/>
      <point x="-159" y="772" type="curve"/>
    </contour>
  </outline>
</glyph>
<glyph name="badagujr" format="2">
  <advance width="738"/>
  <outline>
    <contour>
      <point x="181" y="153" type="curve" smooth="yes"/>
      <point x="270" y="153"/>
      <point x="329" y="212"/>
      <point x="329" y="352" type="curve" smooth="yes"/>
      <point x="329" y="421" type="line"/>
      <point x="254" y="430" type="line"/>
      <point x="254" y="342" type="line" smooth="yes"/>
      <point x="254" y="300"/>
      <point x="247" y="268"/>
      <point x="233" y="248" type="curve" smooth="yes"/>
      <point x="221" y="230"/>
      <point x="203" y="221"/>
      <point x="181" y="221" type="curve" smooth="yes"/>
      <point x="135" y="221"/>
      <point x="108" y="261"/>
      <point x="108" y="330" type="curve" smooth="yes"/>
      <point x="108" y="413"/>
      <point x="143" y="481"/>
      <point x="218" y="549" type="curve"/>
      <point x="167" y="602" type="line"/>
      <point x="74" y="521"/>
      <point x="32" y="435"/>
      <point x="32" y="331" type="curve" smooth="yes"/>
      <point x="32" y="224"/>
      <point x="92" y="153"/>
    </contour>
    <contour>
      <point x="376" y="230" type="curve" smooth="yes"/>
      <point x="400" y="230"/>
      <point x="417" y="233"/>
      <point x="436" y="240" type="curve"/>
      <point x="425" y="306" type="line"/>
      <point x="411" y="300"/>
      <point x="396" y="298"/>
      <point x="377" y="298" type="curve" smooth="yes"/>
      <point x="350" y="298"/>
      <point x="332" y="310"/>
      <point x="319" y="336" type="curve"/>
      <point x="293" y="269" type="line"/>
      <point x="314" y="243"/>
      <point x="343" y="230"/>
    </contour>
    <contour>
      <point x="614" y="-10" type="curve" smooth="yes"/>
      <point x="685" y="-10"/>
      <point x="741" y="28"/>
      <point x="741" y="90" type="curve" smooth="yes"/>
      <point x="741" y="129"/>
      <point x="721" y="157"/>
      <point x="687" y="157" type="curve" smooth="yes"/>
      <point x="656" y="157"/>
      <point x="634" y="134"/>
      <point x="634" y="102" type="curve" smooth="yes"/>
      <point x="634" y="79"/>
      <point x="644" y="56"/>
      <point x="664" y="41" type="curve"/>
      <point x="665" y="77" type="line"/>
      <point x="652" y="65"/>
      <point x="634" y="58"/>
      <point x="614" y="58" type="curve" smooth="yes"/>
      <point x="557" y="58"/>
      <point x="513" y="104"/>
      <point x="513" y="180" type="curve" smooth="yes"/>
      <point x="513" y="257"/>
      <point x="562" y="300"/>
      <point x="623" y="300" type="curve" smooth="yes"/>
      <point x="633" y="300"/>
      <point x="643" y="299"/>
      <point x="651" y="297" type="curve"/>
      <point x="663" y="362" type="line"/>
      <point x="648" y="366"/>
      <point x="634" y="368"/>
      <point x="617" y="368" type="curve" smooth="yes"/>
      <point x="518" y="368"/>
      <point x="438" y="296"/>
      <point x="438" y="180" type="curve" smooth="yes"/>
      <point x="438" y="66"/>
      <point x="513" y="-10"/>
    </contour>
    <contour>
      <point x="495" y="282" type="curve"/>
      <point x="553" y="328" type="line"/>
      <point x="509" y="357"/>
      <point x="484" y="396"/>
      <point x="484" y="445" type="curve" smooth="yes"/>
      <point x="484" y="499"/>
      <point x="521" y="534"/>
      <point x="581" y="534" type="curve" smooth="yes"/>
      <point x="596" y="534"/>
      <point x="612" y="533"/>
      <point x="629" y="530" type="curve"/>
      <point x="640" y="595" type="line"/>
      <point x="621" y="599"/>
      <point x="600" y="602"/>
      <point x="573" y="602" type="curve" smooth="yes"/>
      <point x="474" y="602"/>
      <point x="409" y="540"/>
      <point x="409" y="451" type="curve" smooth="yes"/>
      <point x="409" y="378"/>
      <point x="445" y="321"/>
    </contour>
  </outline>
</glyph>
<glyph name="baprehalfgujr" format="2">
  <advance width="426"/>
  <outline>
    <contour>
      <point x="181" y="153" type="curve" smooth="yes"/>
      <point x="270" y="153"/>
      <point x="329" y="212"/>
      <point x="329" y="352" type="curve" smooth="yes"/>
      <point x="329" y="421" type="line"/>
      <point x="254" y="430" type="line"/>
      <point x="254" y="342" type="line" smooth="yes"/>
      <point x="254" y="300"/>
      <point x="247" y="268"/>
      <point x="233" y="248" type="curve" smooth="yes"/>
      <point x="221" y="230"/>
      <point x="203" y="221"/>
      <point x="181" y="221" type="curve" smooth="yes"/>
      <point x="135" y="221"/>
      <point x="108" y="261"/>
      <point x="108" y="330" type="curve" smooth="yes"/>
      <point x="108" y="413"/>
      <point x="143" y="482"/>
      <point x="218" y="549" type="curve"/>
      <point x="167" y="602" type="line"/>
      <point x="74" y="521"/>
      <point x="32" y="435"/>
      <point x="32" y="331" type="curve" smooth="yes"/>
      <point x="32" y="224"/>
      <point x="92" y="153"/>
    </contour>
    <contour>
      <point x="370" y="230" type="curve" smooth="yes"/>
      <point x="399" y="230"/>
      <point x="425" y="241"/>
      <point x="444" y="258" type="curve"/>
      <point x="420" y="319" type="line"/>
      <point x="407" y="306"/>
      <point x="392" y="298"/>
      <point x="373" y="298" type="curve" smooth="yes"/>
      <point x="352" y="298"/>
      <point x="331" y="310"/>
      <point x="318" y="331" type="curve"/>
      <point x="292" y="264" type="line"/>
      <point x="313" y="243"/>
      <point x="342" y="230"/>
    </contour>
  </outline>
</glyph>
<glyph name="baragujr" format="2">
  <advance width="574"/>
  <outline>
    <contour>
      <point x="181" y="153" type="curve" smooth="yes"/>
      <point x="270" y="153"/>
      <point x="329" y="212"/>
      <point x="329" y="352" type="curve" smooth="yes"/>
      <point x="329" y="421" type="line"/>
      <point x="254" y="430" type="line"/>
      <point x="254" y="342" type="line" smooth="yes"/>
      <point x="254" y="300"/>
      <point x="247" y="268"/>
      <point x="233" y="248" type="curve" smooth="yes"/>
      <point x="221" y="230"/>
      <point x="203" y="221"/>
      <point x="181" y="221" type="curve" smooth="yes"/>
      <point x="135" y="221"/>
      <point x="108" y="261"/>
      <point x="108" y="330" type="curve" smooth="yes"/>
      <point x="108" y="413"/>
      <point x="143" y="482"/>
      <point x="218" y="549" type="curve"/>
      <point x="167" y="602" type="line"/>
      <point x="74" y="521"/>
      <point x="32" y="435"/>
      <point x="32" y="331" type="curve" smooth="yes"/>
      <point x="32" y="224"/>
      <point x="92" y="153"/>
    </contour>
    <contour>
      <point x="265" y="-10" type="line"/>
      <point x="479" y="159" type="line"/>
      <point x="447" y="216" type="line"/>
      <point x="428" y="203" type="line"/>
      <point x="213" y="51" type="line"/>
    </contour>
    <contour>
      <point x="370" y="260" type="curve" smooth="yes"/>
      <point x="398" y="260"/>
      <point x="425" y="272"/>
      <point x="443" y="291" type="curve"/>
      <point x="436" y="370" type="line"/>
      <point x="420" y="343"/>
      <point x="398" y="328"/>
      <point x="373" y="328" type="curve" smooth="yes"/>
      <point x="352" y="328"/>
      <point x="331" y="340"/>
      <point x="318" y="361" type="curve"/>
      <point x="292" y="294" type="line"/>
      <point x="313" y="273"/>
      <point x="342" y="260"/>
    </contour>
    <contour>
      <point x="542" y="0" type="curve" smooth="yes"/>
      <point x="562" y="0" type="line"/>
      <point x="566" y="68" type="line"/>
      <point x="542" y="68"/>
      <point x="530" y="72"/>
      <point x="521" y="79" type="curve" smooth="yes"/>
      <point x="508" y="89"/>
      <point x="503" y="104"/>
      <point x="503" y="129" type="curve" smooth="yes"/>
      <point x="503" y="592" type="line"/>
      <point x="428" y="602" type="line"/>
      <point x="428" y="117" type="line" smooth="yes"/>
      <point x="428" y="77"/>
      <point x="438" y="45"/>
      <point x="461" y="25" type="curve" smooth="yes"/>
      <point x="481" y="8"/>
      <point x="507" y="0"/>
    </contour>
  </outline>
</glyph>
<glyph name="baraprehalfgujr" format="2">
  <advance width="426"/>
  <outline>
    <contour>
      <point x="181" y="153" type="curve" smooth="yes"/>
      <point x="270" y="153"/>
      <point x="329" y="212"/>
      <point x="329" y="352" type="curve" smooth="yes"/>
      <point x="329" y="421" type="line"/>
      <point x="254" y="430" type="line"/>
      <point x="254" y="342" type="line" smooth="yes"/>
      <point x="254" y="300"/>
      <point x="247" y="268"/>
      <point x="233" y="248" type="curve" smooth="yes"/>
      <point x="221" y="230"/>
      <point x="203" y="221"/>
      <point x="181" y="221" type="curve" smooth="yes"/>
      <point x="135" y="221"/>
      <point x="108" y="261"/>
      <point x="108" y="330" type="curve" smooth="yes"/>
      <point x="108" y="413"/>
      <point x="143" y="482"/>
      <point x="218" y="549" type="curve"/>
      <point x="167" y="602" type="line"/>
      <point x="74" y="521"/>
      <point x="32" y="435"/>
      <point x="32" y="331" type="curve" smooth="yes"/>
      <point x="32" y="224"/>
      <point x="92" y="153"/>
    </contour>
    <contour>
      <point x="265" y="-10" type="line"/>
      <point x="428" y="117" type="line"/>
      <point x="428" y="203" type="line"/>
      <point x="213" y="51" type="line"/>
    </contour>
    <contour>
      <point x="370" y="250" type="curve" smooth="yes"/>
      <point x="398" y="250"/>
      <point x="426" y="262"/>
      <point x="444" y="278" type="curve"/>
      <point x="420" y="339" type="line"/>
      <point x="407" y="326"/>
      <point x="392" y="318"/>
      <point x="373" y="318" type="curve" smooth="yes"/>
      <point x="352" y="318"/>
      <point x="331" y="330"/>
      <point x="318" y="351" type="curve"/>
      <point x="292" y="284" type="line"/>
      <point x="313" y="263"/>
      <point x="342" y="250"/>
    </contour>
  </outline>
</glyph>
<glyph name="barastemgujr" format="2">
  <advance width="574"/>
  <outline>
    <contour>
      <point x="181" y="153" type="curve" smooth="yes"/>
      <point x="270" y="153"/>
      <point x="329" y="212"/>
      <point x="329" y="352" type="curve" smooth="yes"/>
      <point x="329" y="421" type="line"/>
      <point x="254" y="430" type="line"/>
      <point x="254" y="342" type="line" smooth="yes"/>
      <point x="254" y="300"/>
      <point x="247" y="268"/>
      <point x="233" y="248" type="curve" smooth="yes"/>
      <point x="221" y="230"/>
      <point x="203" y="221"/>
      <point x="181" y="221" type="curve" smooth="yes"/>
      <point x="135" y="221"/>
      <point x="108" y="261"/>
      <point x="108" y="330" type="curve" smooth="yes"/>
      <point x="108" y="413"/>
      <point x="143" y="482"/>
      <point x="218" y="549" type="curve"/>
      <point x="167" y="602" type="line"/>
      <point x="74" y="521"/>
      <point x="32" y="435"/>
      <point x="32" y="331" type="curve" smooth="yes"/>
      <point x="32" y="224"/>
      <point x="92" y="153"/>
    </contour>
    <contour>
      <point x="265" y="-10" type="line"/>
      <point x="479" y="159" type="line"/>
      <point x="447" y="216" type="line"/>
      <point x="428" y="203" type="line"/>
      <point x="213" y="51" type="line"/>
    </contour>
    <contour>
      <point x="370" y="260" type="curve" smooth="yes"/>
      <point x="398" y="260"/>
      <point x="425" y="272"/>
      <point x="443" y="291" type="curve"/>
      <point x="436" y="370" type="line"/>
      <point x="420" y="343"/>
      <point x="398" y="328"/>
      <point x="373" y="328" type="curve" smooth="yes"/>
      <point x="352" y="328"/>
      <point x="331" y="340"/>
      <point x="318" y="361" type="curve"/>
      <point x="292" y="294" type="line"/>
      <point x="313" y="273"/>
      <point x="342" y="260"/>
    </contour>
    <contour>
      <point x="428" y="-25" type="line"/>
      <point x="503" y="-25" type="line"/>
      <point x="503" y="592" type="line"/>
      <point x="428" y="602" type="line"/>
    </contour>
  </outline>
</glyph>
<glyph name="bastemgujr" format="2">
  <advance width="574"/>
  <outline>
    <contour>
      <point x="181" y="153" type="curve" smooth="yes"/>
      <point x="270" y="153"/>
      <point x="329" y="212"/>
      <point x="329" y="352" type="curve" smooth="yes"/>
      <point x="329" y="421" type="line"/>
      <point x="254" y="430" type="line"/>
      <point x="254" y="342" type="line" smooth="yes"/>
      <point x="254" y="300"/>
      <point x="247" y="268"/>
      <point x="233" y="248" type="curve" smooth="yes"/>
      <point x="221" y="230"/>
      <point x="203" y="221"/>
      <point x="181" y="221" type="curve" smooth="yes"/>
      <point x="135" y="221"/>
      <point x="108" y="261"/>
      <point x="108" y="330" type="curve" smooth="yes"/>
      <point x="108" y="413"/>
      <point x="143" y="482"/>
      <point x="218" y="549" type="curve"/>
      <point x="167" y="602" type="line"/>
      <point x="74" y="521"/>
      <point x="32" y="435"/>
      <point x="32" y="331" type="curve" smooth="yes"/>
      <point x="32" y="224"/>
      <point x="92" y="153"/>
    </contour>
    <contour>
      <point x="370" y="230" type="curve" smooth="yes"/>
      <point x="398" y="230"/>
      <point x="425" y="242"/>
      <point x="443" y="261" type="curve"/>
      <point x="436" y="340" type="line"/>
      <point x="420" y="313"/>
      <point x="398" y="298"/>
      <point x="373" y="298" type="curve" smooth="yes"/>
      <point x="352" y="298"/>
      <point x="331" y="310"/>
      <point x="318" y="331" type="curve"/>
      <point x="292" y="264" type="line"/>
      <point x="313" y="243"/>
      <point x="342" y="230"/>
    </contour>
    <contour>
      <point x="428" y="-25" type="line"/>
      <point x="503" y="-25" type="line"/>
      <point x="503" y="592" type="line"/>
      <point x="428" y="602" type="line"/>
    </contour>
  </outline>
</glyph>
<glyph name="bhaprehalfgujr" format="2">
  <advance width="464"/>
  <outline>
    <contour>
      <point x="171" y="48" type="curve"/>
      <point x="230" y="93" type="line"/>
      <point x="157" y="177"/>
      <point x="110" y="268"/>
      <point x="110" y="382" type="curve" smooth="yes"/>
      <point x="110" y="476"/>
      <point x="146" y="534"/>
      <point x="203" y="534" type="curve" smooth="yes"/>
      <point x="231" y="534"/>
      <point x="248" y="523"/>
      <point x="261" y="498" type="curve" smooth="yes"/>
      <point x="275" y="472"/>
      <point x="282" y="430"/>
      <point x="282" y="371" type="curve" smooth="yes"/>
      <point x="282" y="338" type="line"/>
      <point x="357" y="338" type="line"/>
      <point x="357" y="376" type="line" smooth="yes"/>
      <point x="357" y="459"/>
      <point x="341" y="520"/>
      <point x="309" y="557" type="curve" smooth="yes"/>
      <point x="283" y="587"/>
      <point x="247" y="602"/>
      <point x="201" y="602" type="curve" smooth="yes"/>
      <point x="100" y="602"/>
      <point x="34" y="516"/>
      <point x="34" y="384" type="curve" smooth="yes"/>
      <point x="34" y="257"/>
      <point x="88" y="144"/>
    </contour>
    <contour>
      <point x="323" y="203" type="curve" smooth="yes"/>
      <point x="351" y="203"/>
      <point x="357" y="225"/>
      <point x="357" y="249" type="curve" smooth="yes"/>
      <point x="357" y="295" type="line"/>
      <point x="474" y="295" type="line"/>
      <point x="474" y="363" type="line"/>
      <point x="274" y="363" type="line" smooth="yes"/>
      <point x="243" y="363"/>
      <point x="224" y="346"/>
      <point x="224" y="316" type="curve" smooth="yes"/>
      <point x="224" y="269"/>
      <point x="280" y="203"/>
    </contour>
  </outline>
</glyph>
<glyph name="bharagujr" format="2">
  <advance width="620"/>
  <outline>
    <contour>
      <point x="171" y="48" type="curve"/>
      <point x="230" y="93" type="line"/>
      <point x="157" y="177"/>
      <point x="110" y="268"/>
      <point x="110" y="382" type="curve" smooth="yes"/>
      <point x="110" y="476"/>
      <point x="146" y="534"/>
      <point x="203" y="534" type="curve" smooth="yes"/>
      <point x="231" y="534"/>
      <point x="248" y="523"/>
      <point x="261" y="498" type="curve" smooth="yes"/>
      <point x="275" y="472"/>
      <point x="282" y="430"/>
      <point x="282" y="371" type="curve" smooth="yes"/>
      <point x="282" y="338" type="line"/>
      <point x="357" y="338" type="line"/>
      <point x="357" y="376" type="line" smooth="yes"/>
      <point x="357" y="459"/>
      <point x="341" y="520"/>
      <point x="309" y="557" type="curve" smooth="yes"/>
      <point x="283" y="587"/>
      <point x="247" y="602"/>
      <point x="201" y="602" type="curve" smooth="yes"/>
      <point x="100" y="602"/>
      <point x="34" y="516"/>
      <point x="34" y="384" type="curve" smooth="yes"/>
      <point x="34" y="257"/>
      <point x="88" y="144"/>
    </contour>
    <contour>
      <point x="312" y="-10" type="line"/>
      <point x="526" y="159" type="line"/>
      <point x="494" y="216" type="line"/>
      <point x="475" y="203" type="line"/>
      <point x="260" y="51" type="line"/>
    </contour>
    <contour>
      <point x="323" y="203" type="curve" smooth="yes"/>
      <point x="351" y="203"/>
      <point x="357" y="225"/>
      <point x="357" y="249" type="curve" smooth="yes"/>
      <point x="357" y="295" type="line"/>
      <point x="498" y="295" type="line"/>
      <point x="498" y="363" type="line"/>
      <point x="274" y="363" type="line" smooth="yes"/>
      <point x="243" y="363"/>
      <point x="224" y="346"/>
      <point x="224" y="316" type="curve" smooth="yes"/>
      <point x="224" y="269"/>
      <point x="280" y="203"/>
    </contour>
    <contour>
      <point x="588" y="0" type="curve" smooth="yes"/>
      <point x="608" y="0" type="line"/>
      <point x="612" y="68" type="line"/>
      <point x="588" y="68"/>
      <point x="576" y="72"/>
      <point x="567" y="79" type="curve" smooth="yes"/>
      <point x="554" y="89"/>
      <point x="549" y="104"/>
      <point x="549" y="129" type="curve" smooth="yes"/>
      <point x="549" y="592" type="line"/>
      <point x="474" y="602" type="line"/>
      <point x="474" y="117" type="line" smooth="yes"/>
      <point x="474" y="77"/>
      <point x="484" y="45"/>
      <point x="507" y="25" type="curve" smooth="yes"/>
      <point x="527" y="8"/>
      <point x="553" y="0"/>
    </contour>
  </outline>
</glyph>
<glyph name="bharaprehalfgujr" format="2">
  <advance width="465"/>
  <outline>
    <contour>
      <point x="171" y="48" type="curve"/>
      <point x="230" y="93" type="line"/>
      <point x="157" y="177"/>
      <point x="110" y="268"/>
      <point x="110" y="382" type="curve" smooth="yes"/>
      <point x="110" y="476"/>
      <point x="146" y="534"/>
      <point x="203" y="534" type="curve" smooth="yes"/>
      <point x="231" y="534"/>
      <point x="248" y="523"/>
      <point x="261" y="498" type="curve" smooth="yes"/>
      <point x="275" y="472"/>
      <point x="282" y="430"/>
      <point x="282" y="371" type="curve" smooth="yes"/>
      <point x="282" y="338" type="line"/>
      <point x="357" y="338" type="line"/>
      <point x="357" y="376" type="line" smooth="yes"/>
      <point x="357" y="459"/>
      <point x="341" y="520"/>
      <point x="309" y="557" type="curve" smooth="yes"/>
      <point x="283" y="587"/>
      <point x="247" y="602"/>
      <point x="201" y="602" type="curve" smooth="yes"/>
      <point x="100" y="602"/>
      <point x="34" y="516"/>
      <point x="34" y="384" type="curve" smooth="yes"/>
      <point x="34" y="257"/>
      <point x="88" y="144"/>
    </contour>
    <contour>
      <point x="312" y="-10" type="line"/>
      <point x="475" y="117" type="line"/>
      <point x="475" y="203" type="line"/>
      <point x="260" y="51" type="line"/>
    </contour>
    <contour>
      <point x="323" y="203" type="curve" smooth="yes"/>
      <point x="351" y="203"/>
      <point x="357" y="225"/>
      <point x="357" y="249" type="curve" smooth="yes"/>
      <point x="357" y="295" type="line"/>
      <point x="474" y="295" type="line"/>
      <point x="474" y="363" type="line"/>
      <point x="274" y="363" type="line" smooth="yes"/>
      <point x="243" y="363"/>
      <point x="224" y="346"/>
      <point x="224" y="316" type="curve" smooth="yes"/>
      <point x="224" y="269"/>
      <point x="280" y="203"/>
    </contour>
  </outline>
</glyph>
<glyph name="bharastemgujr" format="2">
  <advance width="620"/>
  <outline>
    <contour>
      <point x="171" y="48" type="curve"/>
      <point x="230" y="93" type="line"/>
      <point x="157" y="177"/>
      <point x="110" y="269"/>
      <point x="110" y="383" type="curve" smooth="yes"/>
      <point x="110" y="477"/>
      <point x="146" y="535"/>
      <point x="203" y="535" type="curve" smooth="yes"/>
      <point x="231" y="535"/>
      <point x="248" y="524"/>
      <point x="261" y="499" type="curve" smooth="yes"/>
      <point x="275" y="473"/>
      <point x="282" y="431"/>
      <point x="282" y="372" type="curve" smooth="yes"/>
      <point x="282" y="338" type="line"/>
      <point x="357" y="338" type="line"/>
      <point x="357" y="377" type="line" smooth="yes"/>
      <point x="357" y="460"/>
      <point x="341" y="521"/>
      <point x="309" y="558" type="curve" smooth="yes"/>
      <point x="283" y="588"/>
      <point x="247" y="603"/>
      <point x="201" y="603" type="curve" smooth="yes"/>
      <point x="100" y="603"/>
      <point x="34" y="517"/>
      <point x="34" y="385" type="curve" smooth="yes"/>
      <point x="34" y="258"/>
      <point x="88" y="144"/>
    </contour>
    <contour>
      <point x="312" y="-10" type="line"/>
      <point x="526" y="159" type="line"/>
      <point x="494" y="216" type="line"/>
      <point x="475" y="203" type="line"/>
      <point x="260" y="51" type="line"/>
    </contour>
    <contour>
      <point x="323" y="203" type="curve" smooth="yes"/>
      <point x="351" y="203"/>
      <point x="357" y="225"/>
      <point x="357" y="249" type="curve" smooth="yes"/>
      <point x="357" y="295" type="line"/>
      <point x="498" y="295" type="line"/>
      <point x="498" y="363" type="line"/>
      <point x="274" y="363" type="line" smooth="yes"/>
      <point x="243" y="363"/>
      <point x="224" y="346"/>
      <point x="224" y="316" type="curve" smooth="yes"/>
      <point x="224" y="269"/>
      <point x="280" y="203"/>
    </contour>
    <contour>
      <point x="474" y="-25" type="line"/>
      <point x="549" y="-25" type="line"/>
      <point x="549" y="593" type="line"/>
      <point x="474" y="603" type="line"/>
    </contour>
  </outline>
</glyph>
<glyph name="caprehalfgujr" format="2">
  <advance width="348"/>
  <outline>
    <contour>
      <point x="261" y="126" type="curve" smooth="yes"/>
      <point x="314" y="126"/>
      <point x="353" y="142"/>
      <point x="385" y="175" type="curve"/>
      <point x="348" y="228" type="line"/>
      <point x="323" y="205"/>
      <point x="299" y="194"/>
      <point x="267" y="194" type="curve" smooth="yes"/>
      <point x="218" y="194"/>
      <point x="188" y="218"/>
      <point x="157" y="263" type="curve"/>
      <point x="150" y="282" type="line"/>
      <point x="125" y="325"/>
      <point x="101" y="341"/>
      <point x="75" y="341" type="curve" smooth="yes"/>
      <point x="40" y="341"/>
      <point x="20" y="320"/>
      <point x="20" y="289" type="curve" smooth="yes"/>
      <point x="20" y="252"/>
      <point x="54" y="228"/>
      <point x="103" y="228" type="curve" smooth="yes"/>
      <point x="195" y="228"/>
      <point x="268" y="311"/>
      <point x="268" y="424" type="curve" smooth="yes"/>
      <point x="268" y="526"/>
      <point x="208" y="602"/>
      <point x="107" y="602" type="curve" smooth="yes"/>
      <point x="81" y="602"/>
      <point x="51" y="595"/>
      <point x="22" y="583" type="curve"/>
      <point x="43" y="521" type="line"/>
      <point x="62" y="529"/>
      <point x="85" y="534"/>
      <point x="102" y="534" type="curve" smooth="yes"/>
      <point x="161" y="534"/>
      <point x="193" y="489"/>
      <point x="193" y="422" type="curve" smooth="yes"/>
      <point x="193" y="354"/>
      <point x="155" y="305"/>
      <point x="103" y="295" type="curve"/>
      <point x="80" y="276" type="line"/>
      <point x="86" y="250" type="line"/>
      <point x="120" y="175"/>
      <point x="190" y="126"/>
    </contour>
  </outline>
</glyph>
<glyph name="caragujr" format="2">
  <advance width="502"/>
  <outline>
    <contour>
      <point x="266" y="131" type="curve" smooth="yes"/>
      <point x="306" y="131"/>
      <point x="340" y="145"/>
      <point x="370" y="172" type="curve"/>
      <point x="370" y="255" type="line"/>
      <point x="343" y="214"/>
      <point x="308" y="194"/>
      <point x="267" y="194" type="curve" smooth="yes"/>
      <point x="218" y="194"/>
      <point x="188" y="218"/>
      <point x="157" y="263" type="curve"/>
      <point x="150" y="282" type="line"/>
      <point x="125" y="325"/>
      <point x="101" y="341"/>
      <point x="75" y="341" type="curve" smooth="yes"/>
      <point x="40" y="341"/>
      <point x="20" y="320"/>
      <point x="20" y="289" type="curve" smooth="yes"/>
      <point x="20" y="253"/>
      <point x="54" y="228"/>
      <point x="103" y="228" type="curve" smooth="yes"/>
      <point x="195" y="228"/>
      <point x="268" y="311"/>
      <point x="268" y="424" type="curve" smooth="yes"/>
      <point x="268" y="526"/>
      <point x="208" y="602"/>
      <point x="107" y="602" type="curve" smooth="yes"/>
      <point x="81" y="602"/>
      <point x="51" y="595"/>
      <point x="22" y="583" type="curve"/>
      <point x="43" y="521" type="line"/>
      <point x="62" y="529"/>
      <point x="85" y="534"/>
      <point x="102" y="534" type="curve" smooth="yes"/>
      <point x="161" y="534"/>
      <point x="193" y="489"/>
      <point x="193" y="422" type="curve" smooth="yes"/>
      <point x="193" y="354"/>
      <point x="155" y="305"/>
      <point x="103" y="295" type="curve"/>
      <point x="80" y="276" type="line"/>
      <point x="86" y="250" type="line"/>
      <point x="120" y="175"/>
      <point x="185" y="131"/>
    </contour>
    <contour>
      <point x="156" y="-19" type="line"/>
      <point x="374" y="172" type="line"/>
      <point x="337" y="200" type="line"/>
      <point x="279" y="167" type="line"/>
      <point x="103" y="40" type="line"/>
    </contour>
    <contour>
      <point x="470" y="0" type="curve" smooth="yes"/>
      <point x="490" y="0" type="line"/>
      <point x="494" y="68" type="line"/>
      <point x="470" y="68"/>
      <point x="458" y="72"/>
      <point x="449" y="79" type="curve" smooth="yes"/>
      <point x="436" y="89"/>
      <point x="431" y="104"/>
      <point x="431" y="129" type="curve" smooth="yes"/>
      <point x="431" y="592" type="line"/>
      <point x="356" y="602" type="line"/>
      <point x="356" y="117" type="line" smooth="yes"/>
      <point x="356" y="77"/>
      <point x="366" y="45"/>
      <point x="389" y="25" type="curve" smooth="yes"/>
      <point x="409" y="8"/>
      <point x="435" y="0"/>
    </contour>
  </outline>
</glyph>
<glyph name="caraprehalfgujr" format="2">
  <advance width="348"/>
  <outline>
    <contour>
      <point x="266" y="131" type="curve" smooth="yes"/>
      <point x="306" y="131"/>
      <point x="340" y="145"/>
      <point x="370" y="172" type="curve"/>
      <point x="348" y="228" type="line"/>
      <point x="324" y="205"/>
      <point x="298" y="194"/>
      <point x="267" y="194" type="curve" smooth="yes"/>
      <point x="218" y="194"/>
      <point x="188" y="218"/>
      <point x="157" y="263" type="curve"/>
      <point x="150" y="282" type="line"/>
      <point x="125" y="325"/>
      <point x="101" y="341"/>
      <point x="75" y="341" type="curve" smooth="yes"/>
      <point x="40" y="341"/>
      <point x="20" y="320"/>
      <point x="20" y="289" type="curve" smooth="yes"/>
      <point x="20" y="253"/>
      <point x="54" y="228"/>
      <point x="103" y="228" type="curve" smooth="yes"/>
      <point x="195" y="228"/>
      <point x="268" y="311"/>
      <point x="268" y="424" type="curve" smooth="yes"/>
      <point x="268" y="526"/>
      <point x="208" y="602"/>
      <point x="107" y="602" type="curve" smooth="yes"/>
      <point x="81" y="602"/>
      <point x="51" y="595"/>
      <point x="22" y="583" type="curve"/>
      <point x="43" y="521" type="line"/>
      <point x="62" y="529"/>
      <point x="85" y="534"/>
      <point x="102" y="534" type="curve" smooth="yes"/>
      <point x="161" y="534"/>
      <point x="193" y="489"/>
      <point x="193" y="422" type="curve" smooth="yes"/>
      <point x="193" y="354"/>
      <point x="155" y="305"/>
      <point x="103" y="295" type="curve"/>
      <point x="80" y="276" type="line"/>
      <point x="86" y="250" type="line"/>
      <point x="120" y="175"/>
      <point x="185" y="131"/>
    </contour>
    <contour>
      <point x="156" y="-19" type="line"/>
      <point x="384" y="171" type="line"/>
      <point x="348" y="228" type="line"/>
      <point x="325" y="190" type="line"/>
      <point x="281" y="167" type="line"/>
      <point x="103" y="40" type="line"/>
    </contour>
  </outline>
</glyph>
<glyph name="castemgujr" format="2">
  <advance width="502"/>
  <outline>
    <contour>
      <point x="261" y="126" type="curve" smooth="yes"/>
      <point x="306" y="126"/>
      <point x="344" y="140"/>
      <point x="370" y="164" type="curve"/>
      <point x="370" y="255" type="line"/>
      <point x="343" y="214"/>
      <point x="308" y="194"/>
      <point x="267" y="194" type="curve" smooth="yes"/>
      <point x="218" y="194"/>
      <point x="188" y="218"/>
      <point x="157" y="263" type="curve"/>
      <point x="150" y="282" type="line"/>
      <point x="125" y="325"/>
      <point x="101" y="341"/>
      <point x="75" y="341" type="curve" smooth="yes"/>
      <point x="40" y="341"/>
      <point x="20" y="320"/>
      <point x="20" y="289" type="curve" smooth="yes"/>
      <point x="20" y="253"/>
      <point x="54" y="228"/>
      <point x="103" y="228" type="curve" smooth="yes"/>
      <point x="195" y="228"/>
      <point x="268" y="311"/>
      <point x="268" y="424" type="curve" smooth="yes"/>
      <point x="268" y="526"/>
      <point x="208" y="602"/>
      <point x="107" y="602" type="curve" smooth="yes"/>
      <point x="81" y="602"/>
      <point x="51" y="595"/>
      <point x="22" y="583" type="curve"/>
      <point x="43" y="521" type="line"/>
      <point x="62" y="529"/>
      <point x="85" y="534"/>
      <point x="102" y="534" type="curve" smooth="yes"/>
      <point x="161" y="534"/>
      <point x="193" y="489"/>
      <point x="193" y="422" type="curve" smooth="yes"/>
      <point x="193" y="354"/>
      <point x="155" y="305"/>
      <point x="103" y="295" type="curve"/>
      <point x="80" y="276" type="line"/>
      <point x="86" y="250" type="line"/>
      <point x="120" y="175"/>
      <point x="189" y="126"/>
    </contour>
    <contour>
      <point x="356" y="-25" type="line"/>
      <point x="431" y="-25" type="line"/>
      <point x="431" y="592" type="line"/>
      <point x="356" y="602" type="line"/>
    </contour>
  </outline>
</glyph>
<glyph name="chasquishgujr" format="2">
  <advance width="575"/>
  <outline>
    <contour>
      <point x="250" y="118" type="curve" smooth="yes"/>
      <point x="418" y="118"/>
      <point x="541" y="243"/>
      <point x="541" y="425" type="curve" smooth="yes"/>
      <point x="541" y="535"/>
      <point x="491" y="603"/>
      <point x="399" y="603" type="curve" smooth="yes"/>
      <point x="328" y="603"/>
      <point x="280" y="559"/>
      <point x="280" y="489" type="curve" smooth="yes"/>
      <point x="280" y="415"/>
      <point x="334" y="357"/>
      <point x="418" y="324" type="curve"/>
      <point x="443" y="390" type="line"/>
      <point x="388" y="409"/>
      <point x="354" y="445"/>
      <point x="354" y="487" type="curve" smooth="yes"/>
      <point x="354" y="518"/>
      <point x="373" y="537"/>
      <point x="403" y="537" type="curve" smooth="yes"/>
      <point x="446" y="537"/>
      <point x="465" y="499"/>
      <point x="465" y="428" type="curve" smooth="yes"/>
      <point x="465" y="284"/>
      <point x="375" y="186"/>
      <point x="251" y="186" type="curve" smooth="yes"/>
      <point x="176" y="186"/>
      <point x="134" y="220"/>
      <point x="134" y="269" type="curve" smooth="yes"/>
      <point x="134" y="318"/>
      <point x="172" y="347"/>
      <point x="232" y="347" type="curve" smooth="yes"/>
      <point x="241" y="347"/>
      <point x="250" y="346"/>
      <point x="256" y="345" type="curve"/>
      <point x="263" y="412" type="line"/>
      <point x="254" y="413"/>
      <point x="241" y="414"/>
      <point x="231" y="414" type="curve" smooth="yes"/>
      <point x="129" y="414"/>
      <point x="60" y="356"/>
      <point x="60" y="272" type="curve" smooth="yes"/>
      <point x="60" y="182"/>
      <point x="127" y="118"/>
    </contour>
    <contour>
      <point x="123" y="329" type="curve"/>
      <point x="178" y="373" type="line"/>
      <point x="134" y="395"/>
      <point x="107" y="427"/>
      <point x="107" y="467" type="curve" smooth="yes"/>
      <point x="107" y="509"/>
      <point x="137" y="535"/>
      <point x="186" y="535" type="curve" smooth="yes"/>
      <point x="197" y="535"/>
      <point x="205" y="535"/>
      <point x="221" y="532" type="curve"/>
      <point x="230" y="598" type="line"/>
      <point x="213" y="601"/>
      <point x="196" y="603"/>
      <point x="179" y="603" type="curve" smooth="yes"/>
      <point x="90" y="603"/>
      <point x="32" y="552"/>
      <point x="32" y="476" type="curve" smooth="yes"/>
      <point x="32" y="418"/>
      <point x="64" y="370"/>
    </contour>
  </outline>
</glyph>
<glyph name="chavagujr" format="2">
  <advance width="575"/>
  <outline>
    <contour>
      <point x="256" y="67" type="curve" smooth="yes"/>
      <point x="430" y="67"/>
      <point x="541" y="196"/>
      <point x="541" y="404" type="curve" smooth="yes"/>
      <point x="541" y="526"/>
      <point x="493" y="603"/>
      <point x="398" y="603" type="curve" smooth="yes"/>
      <point x="328" y="603"/>
      <point x="280" y="557"/>
      <point x="280" y="485" type="curve" smooth="yes"/>
      <point x="280" y="407"/>
      <point x="334" y="338"/>
      <point x="424" y="303" type="curve"/>
      <point x="447" y="370" type="line"/>
      <point x="389" y="390"/>
      <point x="354" y="431"/>
      <point x="354" y="483" type="curve" smooth="yes"/>
      <point x="354" y="517"/>
      <point x="373" y="537"/>
      <point x="403" y="537" type="curve" smooth="yes"/>
      <point x="447" y="537"/>
      <point x="465" y="489"/>
      <point x="465" y="407" type="curve" smooth="yes"/>
      <point x="465" y="235"/>
      <point x="386" y="136"/>
      <point x="257" y="136" type="curve" smooth="yes"/>
      <point x="176" y="136"/>
      <point x="134" y="173"/>
      <point x="134" y="231" type="curve" smooth="yes"/>
      <point x="134" y="288"/>
      <point x="170" y="322"/>
      <point x="232" y="322" type="curve" smooth="yes"/>
      <point x="241" y="322"/>
      <point x="250" y="321"/>
      <point x="256" y="320" type="curve"/>
      <point x="263" y="388" type="line"/>
      <point x="254" y="389"/>
      <point x="241" y="390"/>
      <point x="231" y="390" type="curve" smooth="yes"/>
      <point x="127" y="390"/>
      <point x="60" y="325"/>
      <point x="60" y="234" type="curve" smooth="yes"/>
      <point x="60" y="129"/>
      <point x="137" y="67"/>
    </contour>
    <contour>
      <point x="121" y="318" type="curve"/>
      <point x="176" y="362" type="line"/>
      <point x="133" y="384"/>
      <point x="107" y="423"/>
      <point x="107" y="463" type="curve" smooth="yes"/>
      <point x="107" y="507"/>
      <point x="137" y="535"/>
      <point x="186" y="535" type="curve" smooth="yes"/>
      <point x="197" y="535"/>
      <point x="205" y="535"/>
      <point x="221" y="532" type="curve"/>
      <point x="230" y="598" type="line"/>
      <point x="213" y="601"/>
      <point x="196" y="603"/>
      <point x="179" y="603" type="curve" smooth="yes"/>
      <point x="90" y="603"/>
      <point x="32" y="550"/>
      <point x="32" y="472" type="curve" smooth="yes"/>
      <point x="32" y="414"/>
      <point x="63" y="359"/>
    </contour>
    <contour>
      <point x="311" y="-218" type="curve" smooth="yes"/>
      <point x="354" y="-218"/>
      <point x="393" y="-199"/>
      <point x="424" y="-163" type="curve"/>
      <point x="401" y="-104" type="line"/>
      <point x="379" y="-137"/>
      <point x="351" y="-157"/>
      <point x="311" y="-157" type="curve" smooth="yes"/>
      <point x="272" y="-157"/>
      <point x="243" y="-137"/>
      <point x="243" y="-91" type="curve" smooth="yes"/>
      <point x="243" y="-48"/>
      <point x="269" y="-22"/>
      <point x="318" y="-22" type="curve" smooth="yes"/>
      <point x="326" y="-22"/>
      <point x="335" y="-22"/>
      <point x="345" y="-24" type="curve"/>
      <point x="351" y="35" type="line"/>
      <point x="340" y="38"/>
      <point x="329" y="39"/>
      <point x="309" y="39" type="curve" smooth="yes"/>
      <point x="226" y="39"/>
      <point x="176" y="-16"/>
      <point x="176" y="-90" type="curve" smooth="yes"/>
      <point x="176" y="-166"/>
      <point x="228" y="-218"/>
    </contour>
    <contour>
      <point x="496" y="-268" type="curve" smooth="yes"/>
      <point x="506" y="-268" type="line"/>
      <point x="513" y="-208" type="line"/>
      <point x="492" y="-208"/>
      <point x="470" y="-204"/>
      <point x="460" y="-188" type="curve" smooth="yes"/>
      <point x="453" y="-177"/>
      <point x="450" y="-159"/>
      <point x="450" y="-117" type="curve" smooth="yes"/>
      <point x="450" y="184" type="line"/>
      <point x="384" y="124" type="line"/>
      <point x="384" y="-120" type="line" smooth="yes"/>
      <point x="384" y="-178"/>
      <point x="390" y="-209"/>
      <point x="407" y="-231" type="curve" smooth="yes"/>
      <point x="426" y="-256"/>
      <point x="454" y="-268"/>
    </contour>
  </outline>
</glyph>
<glyph name="chayagujr" format="2">
  <advance width="1030"/>
  <outline>
    <contour>
      <point x="265" y="-10" type="curve" smooth="yes"/>
      <point x="430" y="-10"/>
      <point x="541" y="127"/>
      <point x="541" y="379" type="curve" smooth="yes"/>
      <point x="541" y="521"/>
      <point x="493" y="602"/>
      <point x="398" y="602" type="curve" smooth="yes"/>
      <point x="328" y="602"/>
      <point x="279" y="551"/>
      <point x="279" y="471" type="curve" smooth="yes"/>
      <point x="279" y="388"/>
      <point x="334" y="315"/>
      <point x="424" y="275" type="curve"/>
      <point x="447" y="344" type="line"/>
      <point x="390" y="369"/>
      <point x="354" y="414"/>
      <point x="354" y="469" type="curve" smooth="yes"/>
      <point x="354" y="511"/>
      <point x="373" y="535"/>
      <point x="403" y="535" type="curve" smooth="yes"/>
      <point x="447" y="535"/>
      <point x="465" y="477"/>
      <point x="465" y="379" type="curve" smooth="yes"/>
      <point x="465" y="174"/>
      <point x="386" y="59"/>
      <point x="262" y="59" type="curve" smooth="yes"/>
      <point x="180" y="59"/>
      <point x="134" y="105"/>
      <point x="134" y="179" type="curve" smooth="yes"/>
      <point x="134" y="248"/>
      <point x="169" y="288"/>
      <point x="232" y="288" type="curve" smooth="yes"/>
      <point x="238" y="288"/>
      <point x="246" y="288"/>
      <point x="256" y="287" type="curve"/>
      <point x="263" y="354" type="line"/>
      <point x="255" y="355"/>
      <point x="241" y="356"/>
      <point x="231" y="356" type="curve" smooth="yes"/>
      <point x="127" y="356"/>
      <point x="60" y="285"/>
      <point x="60" y="181" type="curve" smooth="yes"/>
      <point x="60" y="65"/>
      <point x="137" y="-10"/>
    </contour>
    <contour>
      <point x="121" y="287" type="curve"/>
      <point x="176" y="331" type="line"/>
      <point x="133" y="359"/>
      <point x="107" y="401"/>
      <point x="107" y="446" type="curve" smooth="yes"/>
      <point x="107" y="500"/>
      <point x="137" y="534"/>
      <point x="186" y="534" type="curve" smooth="yes"/>
      <point x="199" y="534"/>
      <point x="207" y="533"/>
      <point x="221" y="530" type="curve"/>
      <point x="230" y="596" type="line"/>
      <point x="213" y="600"/>
      <point x="196" y="602"/>
      <point x="179" y="602" type="curve" smooth="yes"/>
      <point x="90" y="602"/>
      <point x="32" y="544"/>
      <point x="32" y="455" type="curve" smooth="yes"/>
      <point x="32" y="392"/>
      <point x="63" y="333"/>
    </contour>
    <contour>
      <point x="790" y="124" type="curve" smooth="yes"/>
      <point x="835" y="124"/>
      <point x="871" y="138"/>
      <point x="896" y="159" type="curve"/>
      <point x="912" y="216" type="line"/>
      <point x="896" y="254" type="line"/>
      <point x="868" y="212"/>
      <point x="834" y="192"/>
      <point x="791" y="192" type="curve" smooth="yes"/>
      <point x="742" y="192"/>
      <point x="697" y="220"/>
      <point x="681" y="272" type="curve"/>
      <point x="665" y="251" type="line"/>
      <point x="735" y="284"/>
      <point x="776" y="328"/>
      <point x="776" y="398" type="curve" smooth="yes"/>
      <point x="776" y="435"/>
      <point x="763" y="467"/>
      <point x="739" y="490" type="curve" smooth="yes"/>
      <point x="713" y="514"/>
      <point x="676" y="531"/>
      <point x="586" y="531" type="curve" smooth="yes"/>
      <point x="484" y="531" type="line"/>
      <point x="484" y="463" type="line"/>
      <point x="584" y="463" type="line" smooth="yes"/>
      <point x="637" y="463"/>
      <point x="662" y="459"/>
      <point x="680" y="445" type="curve" smooth="yes"/>
      <point x="693" y="435"/>
      <point x="701" y="420"/>
      <point x="701" y="396" type="curve" smooth="yes"/>
      <point x="701" y="343"/>
      <point x="660" y="318"/>
      <point x="598" y="296" type="curve"/>
      <point x="623" y="194"/>
      <point x="698" y="124"/>
    </contour>
    <contour>
      <point x="998" y="0" type="curve" smooth="yes"/>
      <point x="1018" y="0" type="line"/>
      <point x="1022" y="68" type="line"/>
      <point x="998" y="68"/>
      <point x="986" y="72"/>
      <point x="977" y="79" type="curve" smooth="yes"/>
      <point x="964" y="89"/>
      <point x="959" y="104"/>
      <point x="959" y="129" type="curve" smooth="yes"/>
      <point x="959" y="592" type="line"/>
      <point x="884" y="602" type="line"/>
      <point x="884" y="117" type="line" smooth="yes"/>
      <point x="884" y="77"/>
      <point x="894" y="45"/>
      <point x="917" y="25" type="curve" smooth="yes"/>
      <point x="937" y="8"/>
      <point x="963" y="0"/>
    </contour>
  </outline>
</glyph>
<glyph name="dabagujr" format="2">
  <advance width="527"/>
  <outline>
    <contour>
      <point x="331" y="46" type="curve" smooth="yes"/>
      <point x="425" y="46"/>
      <point x="502" y="80"/>
      <point x="502" y="147" type="curve" smooth="yes"/>
      <point x="502" y="180"/>
      <point x="483" y="208"/>
      <point x="447" y="208" type="curve" smooth="yes"/>
      <point x="414" y="208"/>
      <point x="391" y="184"/>
      <point x="391" y="151" type="curve" smooth="yes"/>
      <point x="391" y="136"/>
      <point x="395" y="122"/>
      <point x="400" y="116" type="curve"/>
      <point x="419" y="137" type="line"/>
      <point x="397" y="122"/>
      <point x="373" y="114"/>
      <point x="346" y="114" type="curve" smooth="yes"/>
      <point x="285" y="114"/>
      <point x="239" y="146"/>
      <point x="239" y="215" type="curve" smooth="yes"/>
      <point x="239" y="262"/>
      <point x="265" y="299"/>
      <point x="338" y="347" type="curve" smooth="yes"/>
      <point x="438" y="413"/>
      <point x="458" y="456"/>
      <point x="458" y="507" type="curve" smooth="yes"/>
      <point x="458" y="553"/>
      <point x="438" y="581"/>
      <point x="416" y="603" type="curve"/>
      <point x="353" y="561" type="line"/>
      <point x="367" y="548"/>
      <point x="380" y="532"/>
      <point x="380" y="510" type="curve" smooth="yes"/>
      <point x="380" y="475"/>
      <point x="364" y="454"/>
      <point x="288" y="403" type="curve" smooth="yes"/>
      <point x="188" y="336"/>
      <point x="161" y="276"/>
      <point x="161" y="217" type="curve" smooth="yes"/>
      <point x="161" y="107"/>
      <point x="240" y="46"/>
    </contour>
    <contour>
      <point x="495" y="-90" type="line"/>
      <point x="558" y="-63" type="line"/>
      <point x="465" y="117" type="line"/>
      <point x="410" y="92" type="line"/>
    </contour>
    <contour>
      <point x="191" y="-125" type="curve" smooth="yes"/>
      <point x="317" y="-125"/>
      <point x="389" y="-48"/>
      <point x="426" y="65" type="curve"/>
      <point x="356" y="89" type="line"/>
      <point x="321" y="-2"/>
      <point x="281" y="-59"/>
      <point x="196" y="-59" type="curve" smooth="yes"/>
      <point x="131" y="-59"/>
      <point x="94" y="-24"/>
      <point x="94" y="33" type="curve" smooth="yes"/>
      <point x="94" y="96"/>
      <point x="139" y="130"/>
      <point x="204" y="157" type="curve"/>
      <point x="177" y="218" type="line"/>
      <point x="78" y="178"/>
      <point x="22" y="113"/>
      <point x="22" y="33" type="curve" smooth="yes"/>
      <point x="22" y="-50"/>
      <point x="75" y="-125"/>
    </contour>
    <contour>
      <point x="263" y="-94" type="line"/>
      <point x="297" y="-52" type="line"/>
      <point x="131" y="128" type="line"/>
      <point x="87" y="100" type="line"/>
    </contour>
  </outline>
</glyph>
<glyph name="dabhagujr" format="2">
  <advance width="503"/>
  <outline>
    <contour>
      <point x="305" y="89" type="curve" smooth="yes"/>
      <point x="387" y="89"/>
      <point x="462" y="127"/>
      <point x="462" y="190" type="curve" smooth="yes"/>
      <point x="462" y="223"/>
      <point x="443" y="251"/>
      <point x="407" y="251" type="curve" smooth="yes"/>
      <point x="374" y="251"/>
      <point x="351" y="227"/>
      <point x="351" y="194" type="curve" smooth="yes"/>
      <point x="351" y="179"/>
      <point x="355" y="165"/>
      <point x="360" y="159" type="curve"/>
      <point x="385" y="180" type="line"/>
      <point x="363" y="165"/>
      <point x="341" y="157"/>
      <point x="312" y="157" type="curve" smooth="yes"/>
      <point x="251" y="157"/>
      <point x="206" y="182"/>
      <point x="206" y="237" type="curve" smooth="yes"/>
      <point x="206" y="282"/>
      <point x="231" y="313"/>
      <point x="312" y="364" type="curve" smooth="yes"/>
      <point x="407" y="424"/>
      <point x="424" y="463"/>
      <point x="424" y="507" type="curve" smooth="yes"/>
      <point x="424" y="552"/>
      <point x="404" y="581"/>
      <point x="382" y="603" type="curve"/>
      <point x="319" y="561" type="line"/>
      <point x="333" y="548"/>
      <point x="346" y="532"/>
      <point x="346" y="510" type="curve" smooth="yes"/>
      <point x="346" y="482"/>
      <point x="330" y="463"/>
      <point x="253" y="414" type="curve" smooth="yes"/>
      <point x="156" y="352"/>
      <point x="128" y="301"/>
      <point x="128" y="239" type="curve" smooth="yes"/>
      <point x="128" y="145"/>
      <point x="195" y="89"/>
    </contour>
    <contour>
      <point x="128" y="-233" type="curve"/>
      <point x="180" y="-186" type="line"/>
      <point x="114" y="-126"/>
      <point x="80" y="-84"/>
      <point x="80" y="-33" type="curve" smooth="yes"/>
      <point x="80" y="5"/>
      <point x="103" y="22"/>
      <point x="131" y="22" type="curve" smooth="yes"/>
      <point x="162" y="22"/>
      <point x="196" y="-3"/>
      <point x="224" y="-58" type="curve"/>
      <point x="218" y="-16" type="line"/>
      <point x="196" y="-31" type="line" smooth="yes"/>
      <point x="177" y="-44"/>
      <point x="169" y="-54"/>
      <point x="169" y="-71" type="curve" smooth="yes"/>
      <point x="169" y="-107"/>
      <point x="224" y="-140"/>
      <point x="273" y="-140" type="curve" smooth="yes"/>
      <point x="305" y="-140"/>
      <point x="321" y="-126"/>
      <point x="321" y="-101" type="curve" smooth="yes"/>
      <point x="321" y="-87"/>
      <point x="314" y="-71"/>
      <point x="302" y="-52" type="curve" smooth="yes"/>
      <point x="280" y="-16" type="line"/>
      <point x="260" y="-68" type="line"/>
      <point x="454" y="56" type="line"/>
      <point x="431" y="80" type="line"/>
      <point x="410" y="103" type="line"/>
      <point x="246" y="1" type="line"/>
      <point x="273" y="-5" type="line"/>
      <point x="229" y="58"/>
      <point x="181" y="89"/>
      <point x="125" y="89" type="curve" smooth="yes"/>
      <point x="64" y="89"/>
      <point x="9" y="49"/>
      <point x="9" y="-26" type="curve" smooth="yes"/>
      <point x="9" y="-102"/>
      <point x="53" y="-163"/>
    </contour>
    <contour>
      <point x="484" y="-89" type="line"/>
      <point x="547" y="-63" type="line"/>
      <point x="427" y="160" type="line"/>
      <point x="367" y="133" type="line"/>
    </contour>
  </outline>
</glyph>
<glyph name="dadagujr" format="2">
  <advance width="363"/>
  <outline>
    <contour>
      <point x="229" y="-10" type="curve" smooth="yes"/>
      <point x="293" y="-10"/>
      <point x="344" y="28"/>
      <point x="344" y="90" type="curve" smooth="yes"/>
      <point x="344" y="129"/>
      <point x="324" y="157"/>
      <point x="290" y="157" type="curve" smooth="yes"/>
      <point x="259" y="157"/>
      <point x="237" y="133"/>
      <point x="237" y="101" type="curve" smooth="yes"/>
      <point x="237" y="79"/>
      <point x="246" y="59"/>
      <point x="256" y="41" type="curve"/>
      <point x="288" y="77" type="line"/>
      <point x="269" y="65"/>
      <point x="250" y="58"/>
      <point x="227" y="58" type="curve" smooth="yes"/>
      <point x="176" y="58"/>
      <point x="136" y="104"/>
      <point x="136" y="180" type="curve" smooth="yes"/>
      <point x="136" y="257"/>
      <point x="185" y="300"/>
      <point x="246" y="300" type="curve" smooth="yes"/>
      <point x="256" y="300"/>
      <point x="266" y="299"/>
      <point x="274" y="297" type="curve"/>
      <point x="286" y="362" type="line"/>
      <point x="271" y="366"/>
      <point x="257" y="368"/>
      <point x="240" y="368" type="curve" smooth="yes"/>
      <point x="141" y="368"/>
      <point x="61" y="296"/>
      <point x="61" y="180" type="curve" smooth="yes"/>
      <point x="61" y="66"/>
      <point x="133" y="-10"/>
    </contour>
    <contour>
      <point x="388" y="-140" type="line"/>
      <point x="409" y="-69" type="line"/>
      <point x="401" y="-67" type="line" smooth="yes"/>
      <point x="373" y="-60"/>
      <point x="337" y="-41"/>
      <point x="314" y="86" type="curve"/>
      <point x="248" y="61" type="line"/>
      <point x="282" y="-79"/>
      <point x="317" y="-125"/>
      <point x="378" y="-138" type="curve" smooth="yes"/>
    </contour>
    <contour>
      <point x="118" y="282" type="curve"/>
      <point x="176" y="328" type="line"/>
      <point x="132" y="357"/>
      <point x="107" y="396"/>
      <point x="107" y="445" type="curve" smooth="yes"/>
      <point x="107" y="499"/>
      <point x="144" y="534"/>
      <point x="204" y="534" type="curve" smooth="yes"/>
      <point x="219" y="534"/>
      <point x="235" y="533"/>
      <point x="252" y="530" type="curve"/>
      <point x="263" y="595" type="line"/>
      <point x="244" y="599"/>
      <point x="223" y="602"/>
      <point x="196" y="602" type="curve" smooth="yes"/>
      <point x="97" y="602"/>
      <point x="32" y="540"/>
      <point x="32" y="451" type="curve" smooth="yes"/>
      <point x="32" y="378"/>
      <point x="68" y="321"/>
    </contour>
  </outline>
</glyph>
